<?xml version="1.0" encoding="iso-8859-1"?>
<!-- Uploaded to: SVG Repo, www.svgrepo.com, Generator: SVG Repo Mixer Tools -->
<svg height="800px" width="800px" version="1.1" id="Layer_1" xmlns="http://www.w3.org/2000/svg" xmlns:xlink="http://www.w3.org/1999/xlink" 
	 viewBox="0 0 513.7 513.7" xml:space="preserve">
<path style="fill:#6D4C41;" d="M472.85,283.7v-62l-7.2-0.4c-2.4,1.2-4.8,2.4-9.6,2.4c-9.2,0-12.4-5.6-17.6-5.6l0,0h-20.8
	c-5.2,0-8.4,6-17.6,6c-9.2,0-12.4-6-17.6-6l0,0h-20.8c-5.2,0-8.4,6-17.6,6c-9.2,0-12.4-6-17.6-6h-20.8c-5.2,0-8.4,6-17.6,6
	c-9.2,0-12.4-6-17.6-6h-20.8c-5.2,0-8.4,6-17.6,6c-9.2,0-12.4-6-17.6-6h-20.8c-5.2,0-8.4,6-17.6,6c-9.2,0-12.4-6-17.6-6h-20.8
	c-5.2,0-8.4,6-17.6,6c-9.2,0-12.4-6-17.6-6h-20.8c-5.2,0-8.4,6-17.6,6c-9.2,0-12.4-6-17.6-6l0,0h-3.2l-2,4v62c0,2,2,2,4,6h8h412h8
	C473.65,285.7,472.85,285.3,472.85,283.7z"/>
<g>
	<path style="fill:#FFCC80;" d="M52.85,289.7h412v4h-5.2c2.4,0,5.2,0.4,5.2,2v10.4c0,2-2.8,3.6-5.2,3.6H60.05
		c-2.4,0-3.2-1.2-7.2-3.2v-10c4-2,4.8-2.8,7.2-2.8h-7.2L52.85,289.7L52.85,289.7z"/>
	<path style="fill:#FFCC80;" d="M459.65,401.7c2.4,0,5.2,0.8,5.2,2.8v10.4c0,1.6-2.8,3.2-5.2,3.2H60.85c-2.8,0-4-1.6-8-3.6v-9.6
		c4-1.6,4.8-2.8,7.2-2.8h17.6h36C113.65,401.7,459.65,401.7,459.65,401.7z"/>
</g>
<path style="fill:#FFB74D;" d="M356.05,54.9c0-11.2,20-51.2,20-51.2s20,40,20,51.2s-8.8,20-20,20c-0.8,0-1.2,0-2,0
	C363.65,73.7,356.05,65.3,356.05,54.9z"/>
<path style="fill:#FFECB3;" d="M404.85,105.7v56h-68v-56h5.6c4.4,0,6.4,4.4,6.4,9.2v19.6c0,4.4,3.6,8,8,8s8-3.6,8-8v-19.6
	c0-4.4,3.6-8,8-8s8,3.6,8,8v4.4c0,4.4,3.6,8,8,8s8-3.6,8-8v-4.4c0-4.4,1.2-9.2,5.6-9.2H404.85z"/>
<path style="fill:#FFFDE7;" d="M402.45,93.7h-28.4h-28.4c-1.2,0-0.4,0-4.4,0v12h1.6c4.4,0,6.4,4.4,6.4,9.2v19.6c0,4.4,3.6,8,8,8
	s8-3.6,8-8v-19.6c0-4.4,4.4-9.2,9.2-9.2s7.2,4.4,7.2,9.2v4.4c0,4.4,3.6,8,8,8s8-3.6,8-8v-4.4c0-4.4,1.2-9.2,5.6-9.2h2.4v-8.8
	C404.85,94.1,405.25,93.7,402.45,93.7z"/>
<path style="fill:#FFB74D;" d="M283.65,54.9c0,11.2-8.8,20-20,20c-0.8,0-1.2,0-2,0c-10-1.2-18-9.6-18-20c0-11.2,20-51.2,20-51.2
	S283.65,44.1,283.65,54.9z"/>
<path style="fill:#FFECB3;" d="M230.45,105.7c4.4,0,6.4,4.4,6.4,9.2v19.6c0,4.4,3.6,8,8,8s8-3.6,8-8v-19.6c0-4.4,3.6-8,8-8
	s8,3.6,8,8v4.4c0,4.4,3.6,8,8,8s8-3.6,8-8v-4.4c0-4.4,1.2-9.2,5.6-9.2h2.4v56h-68v-56H230.45z"/>
<path style="fill:#FFFDE7;" d="M290.45,93.7h-28.4h-28.4c-1.2,0-0.4,0-4.4,0v12h1.6c4.4,0,6.4,4.4,6.4,9.2v19.6c0,4.4,3.6,8,8,8
	s8-3.6,8-8v-19.6c0-4.4,4.4-9.2,9.2-9.2s7.2,4.4,7.2,9.2v4.4c0,4.4,3.6,8,8,8s8-3.6,8-8v-4.4c0-4.4,1.2-9.2,5.6-9.2h2.4v-8.8
	C292.85,94.1,293.25,93.7,290.45,93.7z"/>
<path style="fill:#FFE0B2;" d="M480.85,213.7v-22.4c0-17.6-11.2-29.6-28.8-29.6h-46h-68h-44h-68h-44h-68h-46
	c-17.6,0-35.2,12-35.2,29.6v26.4h2.4h11.2c5.2,0,8.4,6,17.6,6c6.4,0,11.6-3.2,14.8-6.8l12.4-3.2h1.2c3.6,0,6.4,4,8.4,4l0,0h1.2
	c5.2,0,8.4,6,17.6,6s12.4-6,17.6-6h2.4l0,0c2,0,4.4-4,7.2-4c0.4,0,0.4,0,0.8,0c0,0,0.4,0,0.8,0h0.8c2.4,4,4.4,4,6.4,4l0,0h2.8
	c5.2,0,8.4,6,17.6,6s12.4-6,17.6-6h4h0.4c1.2,0,2.8-4,4.8-4h0.4c0.4,0,0.4,0,0.8,0c0.4,0,0.4,0,0.8,0h0.4c1.6,0,3.2,1.2,4.4,1.2h10
	l-6.4,1.2c0.4,0.4,0.4,0.8,0.8,1.6c5.2,0,8.4,6,17.6,6c9.2,0,12.4-6,17.6-6c0.4-0.4,0.8-2,1.2-3.2h6.4c0.4,0,1.2-0.4,1.6-0.4h0.4
	c0.4,0,0.8,0,1.2,0s0.8,0,1.2,0h5.6l-4.4,1.2c3.2,0.4,6-1.2,8,3.2c5.2,0,8.4,6,17.6,6c9.2,0,12.4-6,17.6-6c2.4-4,4.8,0,8.8-4h3.6
	c3.6,4,6.4,0,8.8,4c5.2,0,8.4,6,17.6,6s12.4-6,17.6-6c2.4-4,4.8,0,8.4-4h4.4c3.2,4,5.6,0,8,4l0,0c5.2,0,8.4,6,17.6,6
	c9.2,0,12.4-6,17.6-6c2-4,4.4,0,8-4h4.8c3.2,4,6,0,8,4l0,0c5.2,0,8.4,6,17.6,6c4.8,0,7.6-0.8,10-2.4c2-1.2,4-3.6,6-3.6
	c2.4-4,5.2-4,9.6-4h-1.2V213.7z"/>
<path style="fill:#FFB74D;" d="M172.05,54.9c0,11.2-8.8,20-20,20c-0.8,0-1.6,0-2,0c-10-1.2-17.6-9.6-17.6-20c0-11.2,20-51.2,20-51.2
	S172.05,44.1,172.05,54.9z"/>
<path style="fill:#FFFDE7;" d="M178.45,93.7h-28.4h-28.4c-1.2,0-0.4,0-4.4,0v12h1.6c4.4,0,6.4,4.4,6.4,9.2v19.6c0,4.4,3.6,8,8,8
	s8-3.6,8-8v-19.6c0-4.4,4.4-9.2,9.2-9.2s7.2,4.4,7.2,9.2v4.4c0,4.4,3.6,8,8,8s8-3.6,8-8v-4.4c0-4.4,1.2-9.2,5.6-9.2h2.4v-8.8
	C180.85,94.1,181.25,93.7,178.45,93.7z"/>
<path style="fill:#FFECB3;" d="M172.85,119.3v-4.4c0-4.4,1.2-9.2,5.6-9.2h-28.4h-31.6c4.4,0,6.4,4.4,6.4,9.2v19.6c0,4.4,3.6,8,8,8
	s8-3.6,8-8v-19.6c0-4.4,3.6-8,8-8s8,3.6,8,8v4.4c0,4.4,3.6,8,8,8S172.85,123.7,172.85,119.3z M112.85,161.7V96.9c0-2,4-2.8,4-3.2v12
	h64v56H112.85z"/>
<g>
	<path style="fill:#6D4C41;" d="M231.65,339.3c-14,0-14-8-28-8s-14,8-28,8s-14-8-28-8s-14,8-28,8s-14-8-28-8s-14,8.4-28,8.4
		c-10.4,0-13.2-6.4-20-6.4h-1.6l-0.4-18.4c0.8-3.6,6-5.6,10-5.6h2h6.4h399.6h6h2c3.6,0,5.6,1.6,6,4.8l-0.4,19.2h-1.6
		c-6.4,0-5.2,6-15.6,6c-14,0-14-8.4-28-8.4s-14,8-28,8s-14-8-28-8s-14,8-28,8s-14-8-28-8s-14,8-28,8s-14-8-28-8
		S245.65,339.3,231.65,339.3z"/>
	<path style="fill:#6D4C41;" d="M472.85,424.1C472.85,423.7,472.85,423.7,472.85,424.1c0-3.6-2.8-6.4-6.8-6.4c-0.4,0-0.8,0-1.2,0
		h-5.2H60.85h-8h-3.2c-4,0-9.2,2.4-9.2,6l0,0l1.6,17.6h1.6c6.8,0,9.2,6,20,6c14,0,14-8.8,28-8.8s14,8,28,8s14-8,28-8s14,8,28,8
		s14-8,28-8s14,8,28,8s14-8,28-8s14,8,28,8s14-8,28-8s14,8,28,8s14-8,28-8s14,8,28,8s14-8,28-8s14,8.4,28,8.4c10.4,0,9.2-6,15.6-6
		h1.6L472.85,424.1z"/>
	<path style="fill:#6D4C41;" d="M471.65,333.7c-6.4,0-5.2,6-15.6,6c-14,0-14-8.4-28-8.4s-14,8-28,8s-14-8-28-8s-14,8-28,8
		s-14-8-28-8s-14,8-28,8s-14-8-28-8s-14,8-28,8s-14-8-28-8s-14,8-28,8s-14-8-28-8s-14,8-28,8s-14-8-28-8s-14,8.4-28,8.4
		c-10.4,0-13.2-6.4-20-6.4h-1.6l1.6,63.6c2,2.8,5.2,4.4,8,4.4h0.8h7.2h17.6h36h346h5.2h2.8c1.6,0,2.8-0.4,4-1.6l1.6-66.4h-1.6V333.7
		z"/>
	<path style="fill:#6D4C41;" d="M203.65,439.3c14,0,14,8,28,8s14-8,28-8s14,8,28,8s14-8,28-8s14,8,28,8s14-8,28-8s14,8,28,8
		s14-8,28-8s14,8.8,28,8.8c10.4,0,9.2-6,15.6-6h1.6l-1.6,66c-1.6,1.6-3.6,2-6,2h-416c-2.4,0-4.4-0.4-6-2l-1.6-66h1.6
		c6.8,0,9.2,6,20,6c14,0,14-8.4,28-8.4s14,8,28,8s14-8,28-8s14,8,28,8S189.65,439.3,203.65,439.3z"/>
</g>
<path d="M132.85,146.5c-6.8,0-12-5.2-12-12v-19.6c0-2-0.8-4-3.2-4s-4-1.6-4-4s1.6-4,4-4c6.4,0,11.2,5.2,11.2,12v19.6
	c0,2.4,1.6,4,4,4s4-1.6,4-4v-19.6c0-6.8,5.2-12,12-12s12,5.2,12,12v4.4c0,2.4,1.6,4,4,4s4-1.6,4-4v-4.4c0-8,3.2-12,9.2-12
	c2.4,0,4,1.6,4,4s-1.6,4-4,4c-0.4,0-0.8,0-0.8,0s-0.4,0.8-0.4,4v4.4c0,6.8-5.2,12-12,12s-12-5.2-12-12v-4.4c0-2.4-1.6-4-4-4
	s-4,1.6-4,4v19.6C144.85,140.9,139.65,146.5,132.85,146.5z"/>
<path d="M180.85,165.7c-2.4,0-4-1.6-4-4v-64h-55.6c-1.2,0-2.4,0-3.2,0c-0.4,0-0.8,0-1.2,0.4v63.6c0,2.4-1.6,4-4,4s-4-1.6-4-4V96.9
	c0-1.6,0.8-6,8-6.8c1.2-0.4,3.2-0.4,4.4-0.4h57.2c1.6,0,3.6,0,5.2,1.6c1.6,1.6,1.2,3.2,1.2,4.4v9.6v56
	C184.85,164.1,183.25,165.7,180.85,165.7z"/>
<path d="M152.05,78.9c-0.8,0-1.6,0-2.8,0c-12-1.2-21.2-11.6-21.2-24c0-11.6,18.4-48.8,20.4-52.8c1.2-2.8,6-2.8,7.2,0
	c2,4,20.4,41.2,20.4,52.8C176.05,68.1,165.25,78.9,152.05,78.9z M152.05,12.9c-7.2,15.2-16,35.6-16,42c0,8,6,14.8,14,16l0,0
	c0.4,0,1.2,0,1.6,0c8.8,0,16-7.2,16-16C168.05,48.9,159.25,28.5,152.05,12.9z"/>
<path d="M148.85,97.7c-2.4,0-4-1.6-4-4v-32c0-2.4,1.6-4,4-4s4,1.6,4,4v32C152.85,96.1,151.25,97.7,148.85,97.7z"/>
<path d="M244.85,146.5c-6.8,0-12-5.2-12-12v-19.6c0-2-1.2-4-3.2-4c-2.4,0-4-1.6-4-4s1.6-4,4-4c6.4,0,11.2,5.2,11.2,12v19.6
	c0,2.4,1.6,4,4,4s4-1.6,4-4v-19.6c0-6.8,5.2-12,12-12s12,5.2,12,12v4.4c0,2.4,1.6,4,4,4s4-1.6,4-4v-4.4c0-2.8,0-12,8.8-12
	c2.4,0,4,1.6,4,4s-1.6,4-4,4c-0.4,0-0.8,0-0.8,0s-0.4,0.8-0.4,4v4.4c0,6.8-5.2,12-12,12s-12-5.2-12-12v-4.4c0-2.4-1.6-4-4-4
	s-4,1.6-4,4v19.6C256.85,140.9,251.65,146.5,244.85,146.5z"/>
<path d="M292.85,165.7c-2.4,0-4-1.6-4-4v-64h-56c-0.8,0-2,0-2.4,0s-1.2,0.4-1.2,0.4v63.6c0,2.4-1.6,4-4,4s-4-1.6-4-4V96.9
	c0-2,1.2-6,8-6.8c1.2-0.4,2.8-0.4,4-0.4h0.4h57.2c1.6,0,3.6,0,5.2,1.6c1.6,1.6,1.6,3.2,1.6,4.8v10.8v54.8
	C296.85,164.1,295.25,165.7,292.85,165.7z"/>
<path d="M264.05,78.9c-0.8,0-1.6,0-2.4,0c-12.4-1.2-21.6-11.6-21.6-24c0-11.6,18.4-48.8,20.4-52.8c1.2-2.8,6-2.8,7.2,0
	c2,4,20.4,41.2,20.4,52.8C287.65,68.1,277.25,78.9,264.05,78.9z M264.05,12.9c-7.2,15.2-16,35.6-16,42c0,8.4,6,15.2,14.4,16l0,0
	c0.4,0,1.2,0,1.6,0c8.8,0,16-7.2,16-16C279.65,48.9,271.25,28.5,264.05,12.9z"/>
<path d="M260.85,97.7c-2.4,0-4-1.6-4-4v-32c0-2.4,1.6-4,4-4s4,1.6,4,4v32C264.85,96.1,263.25,97.7,260.85,97.7z"/>
<path d="M356.85,146.5c-6.8,0-12-5.2-12-12v-19.6c0-2-1.2-4-3.2-4c-2.4,0-4-1.6-4-4s1.6-4,4-4c6.4,0,11.2,5.2,11.2,12v19.6
	c0,2.4,1.6,4,4,4s4-1.6,4-4v-19.6c0-6.8,5.2-12,12-12s12,5.2,12,12v4.4c0,2.4,1.6,4,4,4s4-1.6,4-4v-4.4c0-2.8,0-12,8.8-12
	c2.4,0,4,1.6,4,4s-1.6,4-4,4c-0.4,0-0.4,0-0.4,0s-0.4,0.8-0.4,4v4.4c0,6.8-5.2,12-12,12s-12-5.2-12-12v-4.4c0-2.4-1.6-4-4-4
	s-4,1.6-4,4v19.6C368.85,140.9,363.65,146.5,356.85,146.5z"/>
<path d="M404.85,165.7c-2.4,0-4-1.6-4-4v-64h-56c-0.8,0-2,0-2.4,0s-1.2,0-1.2,0.4v63.6c0,2.4-1.6,4-4,4s-4-1.6-4-4V96.9
	c0-1.6,0.8-6,8-6.8c1.2-0.4,2.8-0.4,4-0.4h0.4h57.2c1.6,0,3.6,0,5.2,1.6c1.6,1.6,1.6,3.2,1.6,4.8v10.8v54.8
	C408.85,164.1,407.25,165.7,404.85,165.7z"/>
<path d="M375.65,78.9c-0.8,0-1.6,0-2.4,0c-12.4-1.2-21.6-11.6-21.6-24c0-11.6,18.4-48.8,20.4-52.8c1.2-2.8,6-2.8,7.2,0
	c2,4,20.4,41.2,20.4,52.8C399.65,68.1,388.85,78.9,375.65,78.9z M375.65,12.9c-7.2,15.2-16,35.6-16,42c0,8.4,6,15.2,14.4,16l0,0
	c0.4,0,0.8,0,1.6,0c8.8,0,16-7.2,16-16C391.65,48.9,383.25,28.5,375.65,12.9z"/>
<path d="M372.85,97.7c-2.4,0-4-1.6-4-4v-32c0-2.4,1.6-4,4-4s4,1.6,4,4v32C376.85,96.1,375.25,97.7,372.85,97.7z"/>
<path d="M32.85,221.7c-2.4,0-4-1.6-4-4v-26.4c0-20.8,20.4-33.6,39.2-33.6h384c19.6,0,32.8,13.6,32.8,33.6v22.4c0,2.4-1.6,4-4,4
	s-4-1.6-4-4v-22.4c0-15.6-9.6-25.6-24.8-25.6h-384c-14.8,0-31.2,9.6-31.2,25.6v26.4C36.85,220.1,35.25,221.7,32.85,221.7z"/>
<path d="M456.05,343.3c-8,0-12.4-2.4-16-4.4c-3.2-2-6-3.6-12-3.6s-8.8,1.6-12,3.6c-3.6,2-8,4.4-16,4.4s-12.4-2.4-16-4.4
	c-3.2-2-6-3.6-12-3.6s-8.8,1.6-12,3.6c-3.6,2-8,4.4-16,4.4s-12.4-2.4-16-4.4c-3.2-2-6-3.6-12-3.6s-8.8,1.6-12,3.6
	c-3.6,2-8,4.4-16,4.4s-12.4-2.4-16-4.4c-3.2-2-6-3.6-12-3.6s-8.8,1.6-12,3.6c-3.6,2-8,4.4-16,4.4s-12.4-2.4-16-4.4
	c-3.2-2-6-3.6-12-3.6s-8.8,1.6-12,3.6c-3.6,2-8,4.4-16,4.4s-12.4-2.4-16-4.4c-3.2-2-6-3.6-12-3.6s-8.8,1.6-12,3.6
	c-3.6,2-8,4.4-16,4.4s-12.4-2.4-16-4.4c-3.2-2-6-3.6-12-3.6s-8.8,1.6-12,3.6c-3.6,2-8,4.4-16,4.4s-12.4-2.4-16-4.4
	c-1.6-0.8-3.2-2-5.2-2.4c-2-0.8-3.2-2.8-2.4-5.2c0.8-2,2.8-3.2,5.2-2.4c2.8,0.8,4.8,2,6.4,3.2c3.2,2,6,3.6,12,3.6s8.8-1.6,12-3.6
	c3.6-2,8-4.4,16-4.4s12.4,2.4,16,4.4c3.2,2,6,3.6,12,3.6s8.8-1.6,12-3.6c3.6-2,8-4.4,16-4.4s12.4,2.4,16,4.4c3.2,2,6,3.6,12,3.6
	s8.8-1.6,12-3.6c3.6-2,8-4.4,16-4.4s12.4,2.4,16,4.4c3.2,2,6,3.6,12,3.6s8.8-1.6,12-3.6c3.6-2,8-4.4,16-4.4s12.4,2.4,16,4.4
	c3.2,2,6,3.6,12,3.6s8.8-1.6,12-3.6c3.6-2,8-4.4,16-4.4s12.4,2.4,16,4.4c3.2,2,6,3.6,12,3.6s8.8-1.6,12-3.6c3.6-2,8-4.4,16-4.4
	s12.4,2.4,16,4.4c3.2,2,6,3.6,12,3.6s8.8-1.6,12-3.6c3.6-2,8-4.4,16-4.4s12.4,2.4,16,4.4c3.2,2,6,3.6,12,3.6c5.2,0,6-0.8,8-2.4
	c1.6-1.2,3.2-2.8,6.4-4c2-0.8,4.4,0.4,5.2,2.4c0.8,2-0.4,4.4-2.4,5.2c-1.6,0.8-2.8,1.2-4,2.4
	C466.05,341.3,463.25,343.3,456.05,343.3z"/>
<path d="M456.05,451.3c-8,0-12.4-2.4-16-4.4c-3.2-2-6-3.6-12-3.6s-8.8,1.6-12,3.6c-3.6,2-8,4.4-16,4.4s-12.4-2.4-16-4.4
	c-3.2-2-6-3.6-12-3.6s-8.8,1.6-12,3.6c-3.6,2-8,4.4-16,4.4s-12.4-2.4-16-4.4c-3.2-2-6-3.6-12-3.6s-8.8,1.6-12,3.6
	c-3.6,2-8,4.4-16,4.4s-12.4-2.4-16-4.4c-3.2-2-6-3.6-12-3.6s-8.8,1.6-12,3.6c-3.6,2-8,4.4-16,4.4s-12.4-2.4-16-4.4
	c-3.2-2-6-3.6-12-3.6s-8.8,1.6-12,3.6c-3.6,2-8,4.4-16,4.4s-12.4-2.4-16-4.4c-3.2-2-6-3.6-12-3.6s-8.8,1.6-12,3.6
	c-3.6,2-8,4.4-16,4.4s-12.4-2.4-16-4.4c-3.2-2-6-3.6-12-3.6s-8.8,1.6-12,3.6c-3.6,2-8,4.4-16,4.4s-12.4-2.4-16-4.4
	c-1.6-0.8-3.2-2-5.2-2.4c-2-0.8-3.2-2.8-2.4-5.2c0.8-2,2.8-3.2,5.2-2.4c2.8,0.8,4.8,2,6.4,3.2c3.2,2,6,3.6,12,3.6s8.8-1.6,12-3.6
	c3.6-2,8-4.4,16-4.4s12.4,2.4,16,4.4c3.2,2,6,3.6,12,3.6s8.8-1.6,12-3.6c3.6-2,8-4.4,16-4.4s12.4,2.4,16,4.4c3.2,2,6,3.6,12,3.6
	s8.8-1.6,12-3.6c3.6-2,8-4.4,16-4.4s12.4,2.4,16,4.4c3.2,2,6,3.6,12,3.6s8.8-1.6,12-3.6c3.6-2,8-4.4,16-4.4s12.4,2.4,16,4.4
	c3.2,2,6,3.6,12,3.6s8.8-1.6,12-3.6c3.6-2,8-4.4,16-4.4s12.4,2.4,16,4.4c3.2,2,6,3.6,12,3.6s8.8-1.6,12-3.6c3.6-2,8-4.4,16-4.4
	s12.4,2.4,16,4.4c3.2,2,6,3.6,12,3.6s8.8-1.6,12-3.6c3.6-2,8-4.4,16-4.4s12.4,2.4,16,4.4c3.2,2,6,3.6,12,3.6c4.8,0,6-0.8,8-2.4
	c1.6-1.2,3.2-2.8,6.4-4c2-0.8,4.4,0.4,5.2,2.4c0.8,2-0.4,4.4-2.4,5.2c-1.6,0.4-2.8,1.2-4,2.4
	C466.05,449.3,463.25,451.3,456.05,451.3z"/>
<path d="M464.85,513.7c-2.4,0-4-1.6-4-4s1.6-4,4-4c1.6,0,2.8-0.4,3.2-0.8c0.8-0.8,0.8-2,0.8-3.2v-78c0-2.4,1.6-4,4-4l0,0
	c2,0,4,2,4,4v78c0,2,0,6-2.8,9.2C471.65,512.5,468.85,513.7,464.85,513.7z"/>
<path d="M466.05,421.7h-422c-2.4,0-4-2-4-4s2-4,4-4l0,0h16.8h405.2c2.4,0,4,1.6,4,4S468.05,421.7,466.05,421.7z"/>
<path d="M44.85,513.7c-0.4,0-0.4,0-0.8,0c-5.2-0.8-7.2-6.8-7.2-12v-81.2c0-2,1.6-4,4-4s4,1.6,4,4v81.2c0,2.4,0.8,4,0.8,4.4
	c2,0.4,3.2,2.4,2.8,4.4C48.45,512.5,46.85,513.7,44.85,513.7z"/>
<path d="M464.85,513.7h-420c-2.4,0-4-1.6-4-4s1.6-4,4-4h420c2.4,0,4,1.6,4,4S467.25,513.7,464.85,513.7z"/>
<path d="M467.65,405.7h-354.8c-2.4,0-4-1.6-4-4s1.6-4,4-4h354.8l0.4-0.4c0.8-1.2,0.8-4.4,0.8-5.6v-76c0-0.8,0-1.2,0.4-1.6
	c-0.4,0-0.8,0-1.2,0H52.45c-3.6,0-6.4,1.2-6.8,2c0,0.4-0.4,0.8-0.4,1.2v74.4c0,0,0.4,0.8,1.6,2.8c1.6,2,4.4,3.6,5.6,3.6h24.8
	c2.4,0,4,1.6,4,4s-1.6,4-4,4h-24.8c-4.4,0-9.2-3.2-12-6.8c-1.6-2-3.2-4.8-3.2-7.6v-76c0-1.2,0.4-2,0.8-2.8c1.6-5.2,8.8-7.2,14-7.2
	h415.6c5.6,0,8.8,2.4,9.6,7.6c0,1.2,0,2-0.4,2.4v75.2c0,3.6-0.4,7.6-2.4,10.4C473.25,403.3,471.65,405.7,467.65,405.7z"/>
<path d="M76.85,297.7h-24.8c-4,0-8.4-2.8-10.8-5.6c-2.8-3.2-4.4-6-4.4-8.8v-61.6c0-2.4,1.6-4,4-4s4,1.6,4,4v62
	c0,0.4,0.4,1.6,2.4,3.2c1.6,1.6,4,2.8,4.8,2.8h24.8c2.4,0,4,1.6,4,4S79.25,297.7,76.85,297.7z"/>
<path d="M467.65,297.7h-354.8c-2.4,0-4-1.6-4-4s1.6-4,4-4h354.8c0,0,0.4-0.4,0.8-1.6c0.4-0.8,0.4-2.4,0.4-3.6v-0.8v-62
	c0-2.4,1.6-4,4-4s4,1.6,4,4v62.8c0,2,0,4.4-0.8,6.8C475.25,292.9,473.25,297.7,467.65,297.7z"/>
<path d="M60.85,421.7c-4,0-7.6-1.6-10-4.8c-1.6-2-2.8-4.8-2.8-7.2c0-2.8,0.8-5.2,2.8-7.6c2.4-2.8,5.6-4.4,9.2-4.4c2.4,0,4,1.6,4,4
	s-1.6,4-4,4c-0.8,0-2.4,0-3.2,1.2c-0.4,0.4-0.8,1.6-0.8,2.4s0.4,1.6,0.8,2c0.8,1.2,2.4,2,4,2c2.4,0,4,1.6,4,4
	S63.25,421.7,60.85,421.7z"/>
<path d="M459.65,421.7c-2.4,0-4-1.6-4-4s1.6-4,4-4c1.2,0,2.4-0.8,3.2-1.6c0.4-0.4,0.8-1.2,0.8-2.4c0-1.2-0.4-2-0.8-2.4
	c-0.8-0.8-2-1.2-3.2-1.2c-2.4,0-4-1.6-4-4s1.6-4,4-4c3.6,0,6.8,1.6,9.2,4c2,2,2.8,4.8,2.8,7.6c0,2.8-1.2,5.6-2.8,7.6
	C466.45,420.1,463.25,421.7,459.65,421.7z"/>
<path d="M60.05,313.7c-3.6,0-7.2-1.6-9.2-4.4c-2-2.4-2.8-4.8-2.8-7.6c0-2.8,0.8-5.2,2.8-7.6c2.4-2.8,5.6-4.4,9.2-4.4
	c2.4,0,4,1.6,4,4s-1.6,4-4,4c-1.2,0-2.4,0.4-3.2,1.6c-0.4,0.4-0.8,1.6-0.8,2.4s0.4,2,0.8,2.4c0.8,0.8,2,1.6,3.2,1.6c2.4,0,4,1.6,4,4
	S62.45,313.7,60.05,313.7z"/>
<path d="M458.45,313.7c-2.4,0-4-1.6-4-4s1.6-4,4-4c1.2,0,3.2-1.2,4-2s1.2-2,1.2-3.2c0-0.8-0.4-1.6-0.8-2s-2.4-0.8-4.4-0.8
	c-2.4,0-4-1.6-4-4s1.6-4,4-4c1.6,0,7.2,0.4,10,3.2c2,2,3.2,4.8,3.2,7.6c0,2.8-0.8,5.6-2.8,8C466.85,311.3,462.45,313.7,458.45,313.7
	z"/>
<path d="M456.05,227.3c-8,0-12.4-2.4-16-4.4c-3.2-2-6-3.6-12-3.6s-8.8,1.6-12,3.6c-3.6,2-8,4.4-16,4.4s-12.4-2.4-16-4.4
	c-3.2-2-6-3.6-12-3.6s-8.8,1.6-12,3.6c-3.6,2-8,4.4-16,4.4s-12.4-2.4-16-4.4c-3.2-2-6-3.6-12-3.6s-8.8,1.6-12,3.6
	c-3.6,2-8,4.4-16,4.4s-12.4-2.4-16-4.4c-3.2-2-6-3.6-12-3.6s-8.8,1.6-12,3.6c-3.6,2-8,4.4-16,4.4s-12.4-2.4-16-4.4
	c-3.2-2-6-3.6-12-3.6s-8.8,1.6-12,3.6c-3.6,2-8,4.4-16,4.4s-12.4-2.4-16-4.4c-3.2-2-6-3.6-12-3.6s-8.8,1.6-12,3.6
	c-3.6,2-8,4.4-16,4.4s-12.4-2.4-16-4.4c-3.2-2-6-3.6-12-3.6s-8.8,1.6-12,3.6c-3.6,2-8,4.4-16,4.4s-12.4-2.4-16-4.4
	c-1.6-0.8-3.2-2-5.2-2.4c-2-0.8-3.2-2.8-2.4-5.2c0.8-2,2.8-3.2,5.2-2.4c2.8,0.8,4.8,2,6.4,3.2c3.2,2,6,3.6,12,3.6s8.8-1.6,12-3.6
	c3.6-2,8-4.4,16-4.4s12.4,2.4,16,4.4c3.2,2,6,3.6,12,3.6s8.8-1.6,12-3.6c3.6-2,8-4.4,16-4.4s12.4,2.4,16,4.4c3.2,2,6,3.6,12,3.6
	s8.8-1.6,12-3.6c3.6-2,8-4.4,16-4.4s12.4,2.4,16,4.4c3.2,2,6,3.6,12,3.6s8.8-1.6,12-3.6c3.6-2,8-4.4,16-4.4s12.4,2.4,16,4.4
	c3.2,2,6,3.6,12,3.6s8.8-1.6,12-3.6c3.6-2,8-4.4,16-4.4s12.4,2.4,16,4.4c3.2,2,6,3.6,12,3.6s8.8-1.6,12-3.6c3.6-2,8-4.4,16-4.4
	s12.4,2.4,16,4.4c3.2,2,6,3.6,12,3.6s8.8-1.6,12-3.6c3.6-2,8-4.4,16-4.4s12.4,2.4,16,4.4c3.2,2,6,3.6,12,3.6c5.2,0,6-0.8,8-2.4
	c1.6-1.2,3.2-2.8,6.4-4c2-0.8,4.4,0.4,5.2,2.4c0.8,2-0.4,4.4-2.4,5.2c-1.6,0.8-2.8,1.2-4,2.4
	C466.05,225.3,463.25,227.3,456.05,227.3z"/>
<path d="M40.85,424.1c-2.4,0-4-1.6-4-4c0-3.6,3.2-6.8,7.2-6.8c2.4,0,4,1.6,4,4c0,2-1.6,3.6-3.2,4
	C44.05,423.3,42.45,424.1,40.85,424.1z"/>
<path d="M32.85,221.7c-1.6,0-3.2-0.8-3.6-2.4c-0.8-2,0-4.4,2-5.2l0.4-0.4c5.6-2.4,8.4-3.6,14-0.8c2,0.8,2.8,3.2,1.6,5.2
	c-0.8,2-3.2,2.8-5.2,1.6c-2-1.2-2.4-1.2-7.2,1.2l-0.4,0.4C34.05,221.7,33.25,221.7,32.85,221.7z"/>
<path d="M471.65,220.9c-2.4,0-4-1.6-4-4c0-4.4,5.2-5.2,13.2-5.2c2.4,0,4,1.6,4,4s-1.6,4-4,4c-3.2,0-5.6,0.4-6.8,0.4
	C473.25,220.5,472.45,220.9,471.65,220.9z"/>
<path d="M472.85,428.1c-2.4,0-4-1.6-4-4c0-1.2,0-1.6,0-2c-0.4,0-1.6-0.4-4-0.4s-4-1.6-4-4s1.6-4,4-4c7.6,0,12,1.6,12,10.4
	C476.85,426.1,475.25,428.1,472.85,428.1z"/>
</svg>