<?xml version="1.0" standalone="no"?>
<!DOCTYPE svg PUBLIC "-//W3C//DTD SVG 20010904//EN"
 "http://www.w3.org/TR/2001/REC-SVG-20010904/DTD/svg10.dtd">
<svg version="1.0" xmlns="http://www.w3.org/2000/svg"
 width="1280.000000pt" height="640.000000pt" viewBox="0 0 1280.000000 640.000000"
 preserveAspectRatio="xMidYMid meet">
<metadata>
Created by potrace 1.15, written by Peter Selinger 2001-2017
</metadata>
<g transform="translate(0.000000,640.000000) scale(0.100000,-0.100000)"
fill="#000000" stroke="none">
<path d="M5709 5682 c-29 -2 -154 -93 -715 -519 -373 -284 -1056 -810 -1516
-1170 -461 -359 -848 -657 -862 -663 -13 -5 -30 -17 -37 -27 -8 -11 -403 -319
-879 -686 l-865 -668 -45 -88 c-25 -48 -60 -125 -79 -170 l-33 -83 29 -31 c17
-18 197 -218 402 -444 205 -227 376 -413 381 -413 5 0 60 23 122 52 106 48
122 60 258 183 264 239 2651 2406 3521 3197 l857 778 7 55 6 55 -61 86 c-34
47 -101 133 -149 192 -183 225 -284 347 -295 357 -6 6 -27 9 -47 7z"/>
<path d="M8303 4353 c-540 -708 -1003 -1314 -1030 -1347 -95 -114 -107 -158
-60 -219 78 -100 415 -481 696 -787 69 -74 233 -261 364 -415 321 -375 429
-496 437 -493 12 5 857 905 887 945 15 21 42 51 58 68 50 49 1770 1897 1773
1905 7 17 -460 414 -793 676 -210 164 -792 603 -979 737 -137 98 -309 203
-347 212 -24 6 -82 -68 -1006 -1282z"/>
<path d="M12665 5530 c-159 -14 -304 -43 -667 -135 l-107 -27 -110 -192 c-135
-237 -201 -360 -201 -373 0 -5 -23 -52 -50 -103 -28 -51 -50 -93 -48 -94 2 -1
62 -43 133 -92 159 -110 150 -105 191 -114 26 -6 39 -4 57 11 l24 18 27 -227
c33 -281 88 -671 120 -857 19 -105 22 -142 13 -147 -7 -4 -18 -12 -26 -17 -7
-5 -14 -26 -15 -47 -1 -35 2 -39 25 -42 14 -2 131 22 260 53 194 47 377 85
412 85 4 0 7 40 7 89 0 96 3 100 68 101 l23 0 -3 1043 c-2 573 -7 1050 -12
1060 -4 9 -13 16 -20 16 -6 -1 -51 -5 -101 -9z"/>
<path d="M1250 5244 c-258 -24 -519 -97 -722 -201 -86 -44 -86 -44 -98 -94
-11 -44 -18 -54 -59 -80 l-48 -29 -48 -172 c-26 -95 -81 -282 -121 -415 -41
-132 -74 -243 -74 -246 0 -3 14 -14 32 -25 l32 -21 51 37 c281 203 604 360
748 364 103 2 167 -43 167 -119 0 -55 -54 -145 -131 -218 -146 -140 -322 -259
-657 -445 -183 -102 -202 -114 -196 -134 16 -47 10 -58 -51 -92 -33 -19 -63
-35 -68 -36 -4 -2 30 -107 77 -233 46 -127 106 -296 132 -377 56 -169 58 -171
150 -122 27 14 153 54 279 88 520 142 686 186 805 211 183 39 171 33 198 101
29 73 38 84 67 84 20 0 30 17 73 123 52 126 135 313 241 546 34 74 59 136 57
138 -2 2 -28 -6 -57 -18 -62 -24 -516 -179 -526 -179 -4 0 36 44 88 98 218
225 459 607 509 806 36 144 22 315 -34 411 -57 97 -175 179 -321 225 -60 18
-98 22 -260 25 -104 2 -210 1 -235 -1z"/>
<path d="M5546 2990 c-93 -154 -173 -280 -179 -280 -5 0 -107 54 -227 120
-119 66 -220 120 -223 120 -8 0 -49 -89 -52 -115 -2 -16 -111 -207 -205 -361
l-19 -30 247 -139 c136 -76 248 -140 250 -141 2 -1 -42 -92 -98 -203 l-100
-201 32 -20 c18 -11 118 -71 223 -134 167 -100 191 -112 201 -97 44 64 277
397 279 399 2 2 107 -49 233 -112 l231 -115 19 32 c50 84 212 384 212 393 -1
5 -100 63 -221 129 -121 66 -225 123 -230 126 -6 4 64 126 163 285 96 154 177
284 181 290 3 6 -107 77 -267 172 -151 89 -275 162 -277 162 -2 0 -80 -126
-173 -280z m352 -22 c81 -50 153 -97 161 -104 12 -11 -12 -52 -146 -261 -88
-136 -162 -253 -166 -259 -3 -6 98 -72 243 -159 l249 -148 -21 -31 c-12 -17
-46 -63 -75 -102 l-53 -71 -232 123 c-127 68 -232 123 -233 121 -1 -1 -57 -78
-125 -172 -68 -93 -124 -171 -125 -173 -2 -2 -235 126 -245 135 -2 2 40 93 95
203 55 110 97 201 95 203 -3 2 -86 48 -185 102 -99 54 -199 109 -221 122 l-42
24 60 112 c33 62 62 114 64 116 2 2 98 -49 215 -113 116 -65 212 -116 213
-114 1 2 20 35 43 73 113 196 274 465 279 465 2 0 71 -41 152 -92z"/>
</g>
</svg>
