<?xml version="1.0" standalone="no"?>
<!DOCTYPE svg PUBLIC "-//W3C//DTD SVG 20010904//EN"
 "http://www.w3.org/TR/2001/REC-SVG-20010904/DTD/svg10.dtd">
<svg version="1.0" xmlns="http://www.w3.org/2000/svg"
 width="1280.000000pt" height="932.000000pt" viewBox="0 0 1280.000000 932.000000"
 preserveAspectRatio="xMidYMid meet">
<metadata>
Created by potrace 1.15, written by Peter Selinger 2001-2017
</metadata>
<g transform="translate(0.000000,932.000000) scale(0.100000,-0.100000)"
fill="#000000" stroke="none">
<path d="M693 9313 c-33 -4 -33 -4 -33 -62 0 -32 -7 -98 -17 -147 -9 -49 -17
-113 -17 -141 -1 -35 -5 -53 -13 -53 -23 0 -14 -31 18 -61 17 -16 58 -45 92
-65 80 -48 211 -150 263 -206 63 -66 235 -298 255 -343 30 -68 32 -112 10
-219 -12 -55 -21 -112 -21 -128 0 -26 -3 -28 -40 -28 -22 0 -93 11 -157 25
-172 37 -235 41 -324 20 -95 -22 -168 -21 -222 3 -110 49 -203 232 -191 377
l4 50 -11 -40 c-6 -23 -8 -73 -5 -117 6 -70 5 -78 -14 -88 -15 -8 -27 -7 -51
5 -60 32 -209 42 -209 15 0 -4 15 -11 33 -14 49 -9 131 -62 243 -156 159 -133
164 -138 164 -174 0 -45 -25 -74 -139 -160 -119 -91 -166 -139 -157 -161 13
-34 59 -6 209 128 125 111 242 188 327 217 130 44 373 10 610 -85 243 -98 354
-164 348 -208 -2 -12 -18 -30 -36 -40 -37 -22 -203 -86 -397 -154 -71 -25
-138 -52 -147 -61 -22 -18 -23 -65 -3 -82 25 -21 70 -1 156 71 96 79 185 126
314 163 135 39 124 52 127 -133 3 -150 2 -159 -15 -149 -10 5 -32 8 -50 6
l-32 -3 0 -77 c0 -80 17 -114 23 -45 2 20 5 37 8 37 19 0 43 -25 49 -50 4 -16
11 -30 17 -30 12 0 6 -215 -6 -227 -13 -13 -26 21 -26 69 0 26 5 50 10 53 6 3
10 11 10 18 0 26 -31 -22 -37 -56 -4 -26 0 -45 15 -70 19 -33 19 -36 2 -61 -9
-15 -27 -34 -40 -43 -30 -21 -70 -8 -179 56 -55 33 -101 52 -130 56 -89 11
-103 20 -115 75 -4 17 -29 40 -79 72 -68 44 -177 147 -220 208 l-18 25 6 -30
c10 -47 48 -89 160 -175 56 -44 106 -87 109 -96 16 -43 -6 -84 -47 -84 -46 0
-99 -23 -184 -79 -106 -70 -282 -160 -378 -191 -46 -16 -95 -24 -141 -24 -61
-1 -70 -3 -66 -18 2 -11 -6 -22 -25 -32 -15 -8 -55 -45 -88 -83 l-60 -68 55
46 c82 69 125 92 229 122 51 16 151 57 220 92 70 35 154 71 187 80 32 10 68
26 80 36 43 40 80 11 48 -39 -30 -46 -99 -131 -106 -131 -5 -1 -8 8 -8 19 0
24 -28 40 -69 40 l-31 0 0 -79 c0 -87 -3 -90 -75 -91 -16 0 -48 -12 -70 -26
-29 -19 -33 -24 -15 -19 110 29 140 35 176 35 36 0 45 5 70 37 27 36 27 36 36
12 11 -29 25 -39 61 -39 16 0 26 -4 23 -9 -3 -4 2 -15 12 -24 16 -15 17 -8 14
119 -4 155 4 190 53 233 44 39 132 60 180 42 18 -6 50 -9 71 -6 33 5 48 1 100
-32 34 -21 82 -56 108 -79 l45 -41 -22 -21 c-41 -38 -167 -50 -167 -16 0 20
-18 18 -22 -2 -2 -13 -15 -7 -58 26 -30 24 -62 48 -70 54 -18 13 78 -93 100
-111 13 -11 12 -12 -7 -13 -12 0 -24 -6 -27 -12 -5 -10 -7 -10 -12 0 -3 6 -12
12 -20 12 -8 0 -14 -6 -14 -12 0 -9 -4 -8 -10 2 -9 13 -11 13 -20 0 -8 -11
-12 -12 -18 -3 -4 7 -17 10 -31 6 -14 -4 -18 -8 -11 -13 8 -5 8 -16 -3 -41
l-14 -34 -13 40 c-13 43 -26 62 -35 53 -3 -3 4 -31 16 -62 l22 -57 -23 -24
c-18 -19 -20 -25 -8 -25 21 0 39 23 65 84 26 63 47 67 51 9 4 -54 22 -56 22
-3 0 28 4 40 14 40 33 0 46 -13 46 -44 0 -17 7 -41 15 -52 13 -20 11 -26 -21
-79 -19 -32 -32 -60 -30 -62 4 -5 72 89 98 135 12 23 21 29 37 25 25 -6 25 -6
4 -61 -15 -40 -15 -46 0 -77 14 -30 14 -36 2 -49 -8 -8 -34 -17 -57 -21 -24
-4 -62 -20 -85 -36 -63 -44 -86 -50 -145 -38 -45 9 -66 7 -132 -10 -96 -25
-181 -27 -236 -5 -53 21 -65 10 -14 -13 22 -10 74 -19 122 -21 l82 -4 0 -68
c0 -38 4 -72 10 -75 6 -4 10 10 10 34 0 34 3 41 20 41 21 0 40 -27 40 -58 0
-26 -62 -81 -144 -127 -36 -20 -66 -38 -66 -41 0 -2 21 6 47 17 57 24 164 100
191 134 23 29 32 32 32 9 0 -8 4 -12 10 -9 5 3 10 21 10 39 0 31 15 56 33 56
5 0 7 -20 6 -45 -2 -24 0 -47 4 -51 4 -4 7 -2 7 5 0 8 5 9 19 1 28 -14 38 -13
61 10 25 25 26 72 2 93 -21 19 -48 22 -57 7 -3 -5 3 -10 13 -10 41 0 56 -61
21 -83 -34 -21 -50 -1 -47 55 l3 53 54 28 c30 15 70 27 88 27 29 0 33 -3 33
-27 l1 -28 14 26 c29 53 107 78 135 44 14 -17 8 -121 -7 -136 -11 -11 -55 19
-48 32 4 5 16 9 28 9 15 0 18 3 10 11 -15 15 -44 8 -57 -14 -9 -15 -6 -22 17
-41 35 -28 36 -50 2 -44 -30 6 -33 -10 -5 -20 20 -7 19 -11 -21 -72 -76 -118
-159 -220 -179 -220 -23 0 -36 -17 -16 -22 10 -2 6 -12 -15 -38 l-29 -34 0 31
c0 35 -22 63 -50 63 -31 0 -33 -18 -3 -22 23 -2 29 -8 31 -34 2 -19 -3 -36
-13 -44 -25 -20 -50 0 -51 41 -2 54 -3 59 -14 59 -6 0 -10 -35 -10 -85 0 -50
4 -85 10 -85 6 0 10 13 10 28 0 26 3 28 30 24 l30 -4 -27 -33 c-16 -19 -81
-94 -145 -168 -113 -130 -118 -134 -175 -150 -74 -21 -210 -22 -288 -2 -147
38 -323 131 -417 223 l-38 36 0 -82 c0 -80 5 -93 27 -71 8 8 27 2 70 -25 113
-70 386 -168 507 -182 83 -10 86 -15 38 -78 -65 -86 -97 -100 -183 -81 -45 10
-37 -14 26 -73 50 -48 55 -56 55 -96 0 -24 -7 -78 -16 -120 -8 -42 -14 -86
-12 -98 7 -45 39 40 48 126 16 152 43 218 136 329 55 67 58 68 93 62 125 -23
351 -212 351 -295 0 -34 -17 -49 -163 -139 -54 -33 -124 -82 -157 -108 -32
-27 -85 -64 -116 -83 -57 -34 -60 -35 -154 -32 -95 3 -99 2 -180 -37 -109 -53
-216 -77 -284 -64 -28 6 -59 13 -69 18 -16 7 -17 -3 -17 -123 l0 -130 33 -6
c50 -9 126 18 282 99 200 105 423 185 740 264 388 97 514 107 629 51 76 -37
233 -215 203 -231 -6 -4 -131 -35 -277 -69 -146 -34 -267 -64 -269 -66 -18
-16 40 -5 277 51 149 36 276 65 281 65 31 0 62 -193 44 -274 l-9 -39 -304 -50
c-168 -28 -307 -52 -309 -54 -17 -14 42 -7 304 37 165 27 301 47 303 45 7 -7
-31 -110 -65 -176 l-34 -67 -237 -67 c-130 -37 -244 -71 -252 -76 -36 -20 25
-6 240 55 124 36 226 63 228 61 10 -9 -149 -206 -242 -299 -98 -100 -103 -104
-163 -116 -66 -13 -88 -35 -28 -28 19 2 35 1 35 -2 0 -10 -200 -162 -300 -228
-141 -94 -387 -214 -422 -206 -21 4 -28 2 -28 -9 0 -37 -380 -141 -593 -163
l-67 -6 0 -102 0 -102 73 -12 c39 -6 95 -18 124 -27 49 -15 51 -16 44 -43 -21
-73 -77 -156 -176 -260 -55 -59 -65 -75 -65 -106 l0 -36 76 50 c42 28 87 50
99 50 l23 0 -19 -75 c-21 -81 -88 -234 -144 -324 l-35 -58 -6 -228 -7 -228 54
30 c197 110 327 171 488 227 109 38 237 71 321 82 61 8 62 25 -7 -161 -29 -78
-47 -143 -50 -186 -6 -73 1 -85 43 -75 35 9 50 52 64 176 15 138 47 249 74
260 12 5 64 14 116 20 334 40 585 90 859 172 159 47 215 59 248 55 24 -2 46
-7 49 -10 3 -2 -67 -126 -155 -273 -108 -182 -156 -271 -148 -275 7 -4 69 -15
140 -25 70 -10 127 -21 127 -25 0 -11 -115 -113 -179 -157 l-58 -41 5 52 c3
38 -1 57 -13 72 l-17 20 7 -20 c15 -44 16 -82 3 -111 -18 -42 -392 -402 -487
-469 -99 -69 -141 -116 -141 -155 0 -56 31 -39 175 100 55 52 183 163 285 245
102 82 235 195 295 250 158 144 236 207 251 201 7 -3 40 -8 73 -12 l61 -7 1
-36 c3 -121 -21 -290 -52 -362 -15 -33 -46 -72 -100 -123 -64 -60 -79 -79 -79
-103 0 -39 28 -63 73 -63 45 0 80 13 107 40 12 12 31 20 43 18 22 -3 35 -24
109 -183 46 -98 69 -110 213 -109 61 0 132 4 158 8 l48 7 -83 88 c-129 135
-188 269 -188 426 0 69 19 105 55 107 33 3 195 -91 254 -146 69 -65 166 -194
181 -243 17 -51 38 -73 71 -73 32 0 56 28 65 76 10 55 -18 92 -123 169 -136
98 -478 433 -461 451 3 2 166 -20 363 -51 197 -30 362 -55 366 -55 4 0 10 -12
13 -26 4 -15 37 -54 73 -88 73 -67 84 -83 190 -270 109 -191 122 -247 83 -335
l-20 -44 305 5 c233 5 310 9 325 20 10 7 52 39 93 70 88 67 210 142 362 222
l109 58 111 -115 c60 -63 121 -120 134 -127 22 -11 27 -10 43 10 42 52 13 96
-101 155 -48 25 -102 56 -120 69 l-33 25 98 46 c55 25 131 60 170 76 108 45
135 83 103 145 -10 21 -19 39 -19 40 0 5 99 -29 144 -49 67 -31 110 -69 144
-126 25 -43 27 -54 27 -156 0 -85 -6 -137 -28 -227 -32 -138 -31 -128 -12
-128 8 0 15 2 15 4 0 2 20 80 44 172 77 293 96 401 111 634 15 221 20 256 49
325 36 84 62 92 138 44 66 -43 298 -287 334 -352 25 -44 29 -62 28 -122 -1
-58 -8 -89 -43 -175 -23 -58 -64 -144 -91 -192 -57 -100 -67 -132 -50 -153 33
-40 78 -1 89 77 10 67 76 247 102 273 15 15 24 17 45 10 41 -15 62 -52 84
-145 11 -47 33 -144 50 -215 16 -72 30 -143 30 -158 0 -26 3 -27 47 -27 43 0
45 1 30 18 -9 9 -36 91 -61 182 -25 91 -73 246 -107 345 -74 214 -88 311 -49
338 17 12 29 13 51 5 86 -30 470 -458 659 -735 39 -56 84 -111 100 -123 37
-26 84 -35 129 -23 l34 9 -58 44 c-120 92 -379 453 -348 484 37 37 226 -85
433 -278 255 -239 280 -256 392 -264 50 -3 69 -2 64 6 -8 13 -228 198 -266
224 l-25 17 36 0 c75 2 93 78 24 101 -26 9 -48 9 -86 1 -28 -6 -62 -8 -77 -5
-65 15 -168 83 -320 210 l-162 136 167 82 c93 45 201 97 241 116 39 18 72 34
72 36 0 1 -93 148 -206 326 -114 178 -208 328 -211 334 -7 18 116 37 179 29
29 -4 107 -28 173 -53 109 -41 130 -46 225 -49 86 -3 126 1 220 21 119 26 111
27 -73 5 -120 -15 -201 -6 -300 31 -85 32 -121 60 -125 97 -3 25 3 36 30 56
40 29 73 42 398 149 l255 84 44 -135 c81 -245 218 -482 393 -680 249 -283 620
-504 988 -590 182 -42 221 -46 460 -45 214 0 246 3 355 26 66 15 128 29 138
33 9 4 17 5 17 2 0 -11 -351 -312 -568 -487 l-93 -75 75 -3 76 -3 252 208
c139 114 326 269 416 345 90 76 185 150 213 164 157 79 331 207 471 346 103
103 138 124 191 112 41 -9 48 -39 41 -173 -7 -112 -6 -118 20 -168 33 -65 33
-83 0 -114 -37 -35 -54 -72 -54 -121 0 -91 -48 -265 -102 -372 l-20 -41 30 29
c42 39 67 103 92 231 37 196 39 202 76 235 38 33 84 40 105 14 26 -32 75 -46
199 -59 196 -21 404 -76 491 -131 41 -26 89 -79 89 -100 0 -21 14 -17 25 9 7
15 17 21 30 18 33 -7 129 -3 154 7 20 7 10 10 -50 15 -60 6 -91 16 -164 52
-63 32 -136 56 -245 84 -144 36 -243 71 -256 92 -2 5 -18 6 -34 2 -39 -7 -64
12 -50 38 23 42 320 96 431 78 40 -6 59 -15 72 -33 11 -16 32 -28 55 -31 20
-3 48 -8 62 -10 15 -3 6 5 -23 19 -71 35 -146 88 -153 109 -3 11 -12 16 -22
13 -40 -13 -210 -46 -235 -46 -18 0 -27 5 -25 12 5 13 176 148 189 148 4 0 12
14 18 30 11 34 22 42 -195 -145 -81 -70 -166 -120 -224 -131 -76 -16 -180 46
-180 105 0 24 -6 34 -24 40 -13 5 -26 17 -30 26 -22 59 22 300 57 311 59 19
150 -43 163 -111 3 -20 0 -64 -10 -107 -9 -39 -14 -73 -12 -75 2 -2 18 39 36
91 17 53 36 99 42 102 15 10 59 -27 96 -80 17 -27 32 -43 32 -38 0 30 -44 122
-70 147 -35 33 -27 45 33 45 31 0 46 7 76 38 29 30 56 44 117 62 43 13 75 25
69 27 -14 4 -150 -31 -222 -58 -108 -41 -99 5 12 61 49 25 78 47 99 78 40 56
66 62 116 27 28 -20 56 -28 102 -32 81 -7 95 -15 118 -68 12 -29 34 -53 64
-74 63 -44 69 -59 62 -155 -7 -90 7 -87 18 4 9 77 19 90 47 65 35 -32 49 -78
49 -166 0 -45 3 -79 7 -76 3 4 13 1 21 -6 13 -10 14 -9 4 10 -7 12 -12 54 -12
93 0 67 1 71 20 65 11 -4 20 -2 20 4 0 6 -4 11 -9 11 -5 0 -31 27 -57 60 -26
33 -65 70 -87 83 -56 31 -79 64 -69 101 7 26 17 31 110 60 97 30 138 55 70 43
-18 -3 -66 -11 -106 -18 -69 -13 -77 -12 -189 16 -131 33 -164 54 -204 130
-17 32 -21 49 -14 59 48 66 47 61 29 99 -27 56 -13 97 57 172 34 35 64 64 67
62 4 -1 19 7 34 17 37 24 60 14 103 -44 20 -27 50 -59 66 -71 26 -18 29 -26
29 -76 0 -64 11 -64 19 -1 6 40 4 44 -43 87 -53 50 -84 107 -67 124 15 15 132
3 176 -18 29 -15 41 -28 47 -53 5 -17 13 -32 18 -32 19 0 10 49 -14 77 l-24
28 31 11 c26 9 7 11 -106 11 -87 1 -143 5 -150 12 -8 8 -5 25 11 64 12 29 22
63 22 77 0 42 -26 3 -47 -70 -17 -61 -21 -66 -65 -87 -27 -14 -55 -36 -68 -57
-59 -97 -130 -19 -130 143 1 118 56 201 136 201 41 0 94 16 94 29 0 3 -21 5
-46 2 -64 -5 -74 9 -40 58 15 22 34 42 42 45 8 3 22 23 30 43 35 83 46 101 82
120 20 12 62 24 92 28 70 9 116 28 129 53 6 12 11 23 11 26 0 14 -38 3 -112
-34 -45 -22 -90 -40 -101 -40 -18 0 -19 6 -15 63 7 110 37 151 161 221 41 24
73 62 61 75 -2 2 -32 -15 -67 -38 -35 -22 -69 -41 -76 -41 -10 0 -12 21 -7 98
3 53 8 115 12 137 6 37 5 39 -11 24 -12 -12 -19 -48 -27 -150 -8 -104 -15
-138 -29 -154 -10 -11 -23 -51 -30 -90 -7 -38 -19 -83 -27 -99 -8 -17 -25 -61
-38 -100 -30 -86 -49 -116 -74 -116 -28 0 -42 34 -35 84 6 40 5 43 -16 42 -19
-1 -30 11 -52 52 -26 48 -44 62 -60 46 -4 -4 9 -25 29 -47 40 -44 84 -130 84
-165 0 -49 -80 -203 -138 -265 -31 -32 -38 -33 -52 -7 -8 16 -7 46 4 119 24
146 19 192 -18 178 -15 -6 -15 -9 0 -39 50 -97 -39 -309 -152 -363 -48 -22
-88 -13 -80 18 3 13 10 77 17 142 58 612 -219 1266 -699 1651 l-107 85 -5 261
-5 262 -55 22 c-30 11 -133 52 -229 89 -168 66 -172 68 -144 80 16 7 43 28 59
48 39 46 67 54 100 28 66 -52 140 -37 314 61 549 311 580 330 649 401 51 53
70 83 71 113 0 17 10 23 53 33 83 18 115 47 221 201 163 235 239 404 213 475
-5 16 0 24 22 37 48 27 53 64 35 298 -14 188 -18 208 -41 244 -18 27 -22 41
-14 49 21 21 11 61 -46 181 -71 152 -90 181 -131 200 -18 9 -32 22 -31 29 1 6
1 20 0 30 -2 30 -129 154 -219 214 -72 48 -86 54 -106 45 -18 -8 -29 -6 -54
10 -18 11 -29 24 -26 29 9 16 125 71 138 66 7 -3 18 -23 24 -46 7 -22 17 -43
22 -46 16 -10 12 43 -6 76 -8 17 -14 32 -12 33 10 8 201 86 209 86 19 0 8 -33
-26 -77 -19 -25 -35 -50 -35 -54 0 -21 22 -6 48 32 49 73 92 117 137 139 25
12 49 19 55 15 20 -12 10 -66 -26 -136 -23 -47 -34 -81 -32 -102 l3 -32 18 32
c9 18 17 41 17 52 0 11 5 23 10 26 16 10 30 -41 30 -110 0 -35 4 -66 9 -70 15
-9 18 26 7 85 -26 142 2 243 85 307 37 28 46 31 89 26 41 -5 60 0 136 35 49
22 106 47 127 56 l37 15 0 60 c0 53 -2 61 -19 61 -28 0 -278 -126 -325 -164
-78 -63 -113 -70 -187 -36 -24 11 -55 20 -68 20 -43 0 -4 -28 55 -40 30 -6 54
-15 54 -20 0 -5 -19 -14 -42 -21 -24 -6 -102 -28 -174 -49 -71 -21 -152 -40
-179 -41 l-48 -4 -18 50 c-17 50 -24 105 -13 105 3 0 31 -7 61 -16 56 -16 103
-9 103 15 0 16 -13 20 -90 31 -142 20 -201 64 -413 310 -104 121 -137 172
-137 215 0 40 36 49 207 49 83 1 154 4 158 8 4 4 4 12 0 18 -5 7 -45 9 -134 4
-136 -7 -201 -1 -201 19 0 30 130 126 228 168 26 12 101 40 167 64 220 79 385
162 385 195 0 15 -48 -4 -200 -79 -79 -39 -167 -78 -193 -87 -59 -20 -66 -13
-68 61 0 54 -7 46 -28 -31 -9 -34 -25 -52 -96 -109 -48 -37 -94 -68 -103 -69
-19 -1 -20 4 -12 303 4 133 2 185 -6 188 -9 3 -13 -48 -16 -179 -3 -173 -5
-186 -30 -241 -34 -73 -114 -157 -175 -185 -117 -53 -402 -171 -437 -181 -72
-19 -73 1 -6 96 61 86 94 116 157 138 88 32 153 64 153 74 0 17 -16 13 -71
-14 -28 -15 -62 -30 -76 -36 -24 -9 -25 -8 -12 8 7 10 39 46 71 80 53 56 72
93 49 93 -5 0 -32 -28 -59 -62 -60 -75 -377 -391 -409 -407 -15 -8 -23 -8 -23
-1 0 19 -48 10 -64 -12 l-16 -23 -16 23 c-11 14 -27 22 -46 22 -24 0 -32 -6
-41 -30 -21 -54 -37 -46 -37 20 l0 59 36 -15 c20 -8 43 -13 52 -11 12 3 7 8
-15 17 -18 6 -33 15 -33 18 0 3 12 16 28 28 33 27 23 43 -12 20 -36 -23 -72
-20 -136 12 -54 27 -85 65 -105 130 -6 21 -4 22 44 22 l50 0 7 -50 c8 -59 24
-67 24 -11 0 22 3 42 8 44 4 3 46 8 94 12 l88 7 10 -28 c6 -16 13 -36 16 -44
8 -23 22 6 16 36 -5 28 13 54 37 54 22 0 58 26 49 35 -4 4 -26 0 -50 -8 -24
-9 -80 -19 -125 -22 -76 -6 -83 -5 -83 12 0 10 15 37 34 60 23 29 37 61 45
102 10 52 18 65 58 101 25 22 43 43 39 47 -3 4 -24 -11 -47 -33 -33 -32 -41
-36 -49 -24 -16 25 -12 44 35 170 49 131 50 134 36 125 -5 -3 -20 -36 -32 -73
-12 -37 -33 -89 -46 -117 -18 -39 -23 -67 -23 -132 0 -89 -15 -127 -73 -190
-36 -38 -66 -47 -117 -33 -32 9 -44 19 -61 52 -17 33 -18 42 -7 49 23 15 36
10 67 -28 42 -51 57 -34 19 20 -17 23 3 37 55 37 45 0 49 18 5 22 -29 3 -33 6
-32 33 0 17 4 50 8 74 12 63 -10 44 -24 -22 -17 -82 -25 -88 -60 -47 -24 28
-29 41 -24 65 6 29 6 30 -13 12 -20 -17 -21 -17 -51 18 -17 19 -34 35 -37 35
-17 0 2 -27 55 -79 64 -63 72 -84 41 -101 -29 -15 -126 -12 -166 4 -85 36 -70
113 41 213 41 37 98 102 127 143 55 80 153 200 194 238 31 28 26 35 -21 27
-29 -6 -48 -22 -102 -87 -42 -51 -71 -78 -82 -76 -24 5 -45 54 -50 116 -4 50
-6 53 -31 50 -21 -2 -26 -8 -24 -28 2 -14 5 -57 9 -96 12 -131 -4 -165 -148
-302 -80 -77 -87 -82 -97 -64 -10 18 -22 104 -38 259 l-6 63 59 57 c37 35 54
58 46 61 -8 2 -26 -7 -40 -20 -55 -49 -63 -53 -73 -37 -5 8 -9 33 -9 57 0 35
-3 42 -20 42 -22 0 -23 7 4 -115 40 -183 50 -359 25 -460 -32 -133 -110 -205
-222 -205 -44 0 -62 5 -95 30 -23 17 -42 35 -42 40 0 23 41 89 57 93 10 3 58
8 106 12 60 5 87 11 84 18 -2 8 -22 11 -55 9 -63 -5 -68 10 -13 38 44 22 52
37 49 96 -1 46 18 80 62 109 29 19 41 55 19 55 -6 0 -30 -21 -54 -47 -49 -53
-75 -54 -75 -1 0 47 -10 78 -25 78 -27 0 -24 -35 9 -109 52 -114 51 -131 -5
-167 -48 -30 -72 -26 -63 10 3 13 1 27 -6 31 -18 11 -24 -2 -22 -45 3 -35 -1
-42 -30 -60 l-33 -20 -3 20 c-2 11 4 45 13 76 18 63 14 94 -10 74 -8 -7 -15
-34 -17 -68 -4 -67 -19 -76 -50 -28 -23 35 -48 48 -48 24 0 -6 19 -43 42 -81
35 -58 40 -73 32 -95 -5 -15 -23 -33 -39 -41 -26 -13 -30 -12 -47 9 -10 12
-21 40 -24 62 -7 44 -28 59 -50 36 -13 -13 -11 -19 16 -53 35 -44 36 -48 14
-69 -21 -22 -67 -20 -95 3 -20 16 -24 30 -27 95 -7 141 27 178 219 241 81 27
134 49 134 57 0 14 -8 14 -38 3 -26 -11 -22 30 11 95 21 43 34 57 60 65 17 5
32 15 32 22 0 18 -25 16 -40 -2 -25 -30 -29 -14 -9 38 48 119 50 127 31 127
-13 0 -29 -36 -72 -162 -33 -100 -62 -170 -74 -181 -24 -21 -153 -77 -178 -77
-9 0 -20 9 -23 21 -11 34 -30 15 -30 -31 -1 -33 -6 -47 -25 -62 l-25 -20 -13
46 c-11 40 -11 54 5 113 l18 68 103 52 c128 64 171 111 172 188 l0 40 -29 -60
c-37 -78 -60 -98 -160 -140 l-83 -35 -26 20 c-43 34 -54 58 -61 133 -5 57 -10
72 -24 75 -25 5 -32 -25 -12 -48 12 -13 19 -37 19 -70 1 -39 7 -55 29 -78 30
-31 32 -46 15 -106 -12 -44 -25 -66 -38 -66 -11 0 -130 241 -130 263 0 21 -28
23 -36 2 -3 -8 15 -48 41 -89 71 -114 157 -312 163 -372 6 -68 -24 -136 -69
-159 -80 -42 -172 26 -173 127 -1 42 -18 52 -27 16 -6 -21 -8 -20 -23 15 -9
20 -31 61 -49 90 -19 28 -68 115 -111 192 -42 77 -102 175 -132 218 l-55 77
-88 0 -89 0 83 -122 c46 -68 109 -161 140 -206 31 -46 76 -128 99 -181 27 -61
76 -145 130 -222 63 -90 86 -130 84 -148 -5 -47 -35 -36 -115 41 -108 104
-159 177 -184 262 -30 103 -38 121 -50 109 -10 -10 -1 -80 17 -145 6 -19 -137
76 -385 255 -74 53 -139 97 -145 97 -10 -1 2 -12 73 -72 30 -25 26 -27 -95
-68 l-85 -29 -44 19 c-66 28 -191 66 -275 84 -156 32 -280 36 -605 23 -170 -8
-311 -13 -313 -11 -5 3 46 237 62 282 l15 42 -99 0 -99 0 6 -68 c6 -75 -4
-231 -16 -250 -7 -12 -934 -53 -1728 -78 -123 -4 -223 -10 -223 -13 0 -3 258
-1 572 6 1273 27 1368 28 1368 17 0 -6 -5 -36 -11 -66 l-11 -56 -102 -68 c-61
-41 -145 -113 -212 -179 l-112 -110 -163 37 c-216 48 -229 50 -229 41 0 -5 82
-26 183 -47 100 -22 185 -42 189 -45 4 -3 -18 -42 -48 -86 -30 -44 -76 -122
-102 -172 -26 -51 -50 -93 -53 -93 -3 0 -4 19 -2 43 l4 42 -28 -55 c-25 -49
-27 -57 -14 -78 12 -20 10 -33 -15 -116 l-28 -94 -70 64 c-38 35 -72 61 -75
58 -3 -3 24 -35 62 -70 l67 -64 -87 0 c-150 1 -287 17 -298 36 -5 10 -18 24
-27 33 -23 20 -25 91 -3 91 8 0 15 5 15 10 0 6 -7 10 -15 10 -8 0 -15 7 -15
15 0 8 -4 15 -10 15 -5 0 -10 -7 -10 -15 0 -27 -18 -16 -29 18 -6 17 -34 58
-61 90 -49 58 -60 65 -39 25 10 -18 8 -19 -13 -13 -22 6 -22 5 -3 -6 36 -21
75 -62 75 -79 0 -9 6 -22 13 -29 10 -11 10 -14 0 -18 -7 -3 -13 -16 -13 -29 0
-13 -4 -24 -9 -24 -5 0 -12 -10 -14 -22 -3 -18 -5 -16 -6 8 0 16 -7 37 -13 46
-16 20 -82 30 -114 18 -35 -14 -51 -4 -94 59 -21 31 -60 76 -86 101 l-47 45
61 -81 c34 -44 62 -83 62 -87 0 -3 -28 5 -62 19 -72 28 -88 29 -165 9 -31 -8
-71 -15 -89 -15 -30 0 -32 3 -47 58 -9 31 -18 73 -20 93 -2 20 -7 41 -11 48
-4 6 0 14 8 17 21 8 20 30 -3 53 -13 13 -23 46 -31 98 -7 43 -23 123 -36 178
-28 118 -30 148 -8 170 30 29 83 -5 165 -108 33 -42 39 -56 39 -98 0 -52 16
-68 22 -21 3 24 12 14 80 -88 69 -101 76 -116 60 -124 -24 -13 -32 -27 -32
-58 0 -54 61 -78 99 -37 l19 21 14 -21 c15 -25 50 -28 68 -6 10 12 11 24 2 52
-6 20 -9 40 -6 45 3 4 -2 8 -10 8 -9 0 -16 9 -16 20 0 11 7 20 15 20 8 0 15 5
15 10 0 15 -26 12 -39 -4 -10 -12 -23 -3 -77 56 l-65 71 21 19 c24 22 26 70 4
92 -20 21 -58 20 -79 0 -9 -9 -17 -15 -19 -13 -34 42 -195 268 -241 339 -77
118 -100 173 -115 275 -8 48 -19 85 -28 93 -11 8 -56 12 -144 12 l-128 0 25
-51 c33 -64 35 -130 6 -186 -19 -38 -125 -143 -143 -143 -5 0 -26 12 -48 26
-50 34 -147 44 -201 21 l-37 -15 28 78 c16 43 45 117 64 166 20 48 36 92 36
96 0 4 -15 8 -33 8 -32 0 -32 0 -76 -120 -33 -89 -49 -120 -60 -118 -8 2 -47
56 -86 120 -46 77 -76 117 -87 118 -10 0 -18 -3 -18 -6 0 -3 20 -34 45 -69
153 -214 154 -293 3 -525 -31 -47 -81 -134 -113 -195 -31 -60 -61 -118 -67
-128 -16 -31 -44 -2 -77 80 -35 87 -39 141 -15 179 13 19 14 28 6 36 -15 15
-38 -13 -46 -55 -3 -17 -11 -27 -18 -25 -14 5 -54 70 -104 169 -33 66 -47 80
-71 72 -30 -10 -13 -60 41 -122 78 -90 140 -187 191 -296 25 -53 45 -101 45
-106 0 -6 -93 38 -206 96 -113 59 -207 105 -209 104 -2 -2 -36 -178 -77 -391
-40 -214 -76 -388 -79 -388 -3 0 -11 19 -18 43 -18 59 -37 77 -81 77 -58 0
-68 -20 -40 -81 33 -68 22 -96 -49 -130 -81 -40 -183 -54 -366 -52 -115 1
-182 6 -240 20 l-80 18 -6 55 c-4 30 -9 285 -13 566 -5 435 -3 524 10 600 17
99 88 297 141 392 34 63 34 64 12 60 -19 -2 -35 -26 -78 -108 -53 -101 -55
-104 -66 -78 -9 23 -11 17 -11 -45 -1 -75 -31 -188 -51 -194 -16 -6 -30 80
-38 227 -8 160 -14 200 -31 200 -18 0 -17 -27 1 -115 8 -38 15 -84 15 -102 0
-62 -41 -50 -61 18 -7 21 -22 45 -35 54 -13 8 -37 35 -54 60 -29 43 -70 76
-70 57 0 -10 56 -95 119 -182 60 -81 82 -164 84 -307 l2 -118 -50 -27 c-27
-15 -65 -28 -82 -28 l-33 0 0 99 c0 99 -14 165 -33 158 -27 -9 -38 -81 -32
-204 8 -141 -2 -198 -47 -285 -37 -71 -69 -102 -96 -94 -24 8 -123 137 -163
213 -26 50 -29 64 -29 153 0 54 7 162 15 241 17 154 21 337 10 382 -6 22 -13
27 -37 27 l-30 0 7 -140 7 -141 -57 61 c-68 70 -88 78 -47 18 16 -24 39 -62
51 -85 12 -24 28 -43 36 -43 10 0 13 -8 10 -27 -3 -16 -12 -71 -20 -123 -25
-151 -50 -169 -146 -103 -120 81 -204 156 -201 177 2 12 7 81 11 154 7 109 12
139 28 160 24 33 82 41 118 18 24 -16 24 -16 -3 29 -29 47 -36 49 -129 38z
m3427 -370 c7 -32 10 -92 8 -133 -7 -113 -43 -184 -158 -306 -85 -90 -150
-176 -150 -196 0 -14 19 -9 61 18 45 28 54 26 46 -8 -10 -38 -61 -107 -154
-208 -48 -53 -142 -156 -208 -229 -89 -99 -140 -145 -197 -182 -120 -77 -112
-82 -105 62 3 81 16 177 36 276 53 258 111 399 203 498 l53 57 51 -32 c124
-76 279 -34 347 94 27 52 30 156 4 203 l-16 31 52 44 c99 85 112 86 127 11z
m-278 6 c21 -11 38 -23 38 -27 0 -12 -51 -39 -88 -47 -57 -12 -64 -94 -10
-124 32 -18 54 -9 76 30 9 18 29 46 43 62 l26 31 13 -38 c20 -62 9 -149 -26
-198 -59 -84 -181 -116 -270 -70 -66 34 -70 44 -26 79 54 43 76 53 121 53 50
0 59 13 26 42 -14 12 -30 39 -36 60 -5 21 -15 38 -22 38 -7 0 -23 -21 -37 -47
-24 -45 -115 -127 -131 -118 -21 14 -15 64 17 132 18 40 36 83 40 97 8 32 23
45 76 62 52 16 118 10 170 -17z m2783 -29 c-44 -16 -81 -30 -82 -30 -6 0 -2
47 4 53 3 4 40 7 82 6 l76 0 -80 -29z m1424 -39 c39 -37 39 -49 -2 -89 l-33
-32 -80 45 c-43 25 -87 48 -96 51 -10 3 -18 8 -18 12 0 12 103 40 151 41 39 1
52 -4 78 -28z m245 -145 c172 -139 347 -333 373 -414 13 -41 17 -115 6 -125
-12 -13 -33 16 -39 54 -8 46 -24 52 -24 8 l0 -30 -26 20 c-15 12 -33 21 -41
21 -25 0 -8 -24 36 -50 73 -43 87 -90 45 -146 l-27 -35 -59 118 c-32 65 -90
162 -129 216 l-71 99 11 45 c12 47 10 60 -8 48 -6 -3 -11 -22 -11 -41 0 -19
-3 -34 -7 -34 -3 0 -21 18 -40 39 -33 39 -185 171 -232 201 l-23 16 43 29 c88
60 103 57 223 -39z m-4787 -58 c-3 -8 -6 -5 -6 6 -1 11 2 17 5 13 3 -3 4 -12
1 -19z m-1879 -250 c0 -117 5 -274 11 -348 6 -74 11 -193 11 -263 l0 -128 -52
28 c-79 42 -163 130 -201 210 -31 65 -32 73 -32 188 0 106 4 129 28 195 47
128 142 275 201 311 17 11 32 19 33 19 1 0 1 -96 1 -212z m8409 197 c63 -19
97 -56 119 -132 14 -48 15 -67 4 -131 l-12 -74 33 -34 c41 -42 50 -37 14 10
-21 28 -25 41 -20 68 11 57 19 64 52 43 50 -32 73 -58 73 -84 0 -35 -10 -47
-42 -55 -27 -6 -46 -42 -40 -73 2 -7 -4 -13 -13 -13 -11 0 -15 11 -15 45 0 35
-4 45 -16 45 -13 0 -15 -9 -12 -45 3 -48 -7 -57 -33 -27 -9 9 -25 22 -35 29
-16 10 -17 14 -5 22 8 5 20 7 28 4 7 -3 13 0 13 6 0 15 -43 14 -58 -1 -19 -19
-14 -36 16 -52 30 -17 17 -21 -21 -7 -14 5 -27 21 -31 35 -7 30 -49 45 -76 28
-13 -8 -23 -7 -41 5 -129 86 -173 215 -109 316 53 84 118 104 227 72z m-5272
-36 c8 -24 -3 -59 -17 -59 -18 0 -48 32 -48 51 0 20 27 39 47 32 7 -3 15 -13
18 -24z m-1760 -182 l200 -103 3 -92 c7 -238 -97 -470 -243 -538 -94 -45 -260
-24 -298 38 -8 11 10 125 64 407 40 215 74 391 74 391 1 0 91 -46 200 -103z
m1815 -143 c0 -29 -29 -46 -53 -33 -23 13 -22 65 0 78 23 12 53 -13 53 -45z
m-616 25 c18 -14 26 -30 26 -50 0 -22 4 -29 16 -27 14 3 45 -56 70 -134 4 -14
-41 23 -115 91 -96 90 -119 117 -110 127 17 21 82 17 113 -7z m6131 -56 c0
-64 -6 -71 -63 -72 -31 -1 -33 1 -30 27 2 22 8 28 36 30 18 2 32 8 30 15 -3
16 12 57 20 57 4 0 7 -26 7 -57z m924 32 c31 -27 45 -60 55 -132 6 -39 4 -43
-14 -43 -33 0 -34 -26 -2 -57 24 -23 32 -43 45 -113 9 -46 14 -86 11 -89 -9
-9 -220 214 -245 258 -31 57 -53 71 -75 50 -12 -13 -24 -15 -52 -8 -21 5 -73
9 -117 9 -74 0 -119 11 -99 23 5 2 36 12 69 22 33 9 78 26 100 38 77 39 169
66 232 66 52 1 66 -3 92 -24z m-7050 -116 c131 -125 156 -161 106 -151 -52 10
-87 -64 -49 -103 24 -23 76 -16 90 13 10 21 15 11 53 -101 39 -118 41 -130 42
-253 1 -71 1 -136 0 -144 0 -9 -27 -25 -63 -39 -35 -13 -155 -64 -268 -113
-113 -50 -285 -123 -383 -165 -169 -71 -179 -74 -193 -56 -36 47 -146 216
-161 249 -16 33 -16 36 -1 45 9 5 26 39 38 75 53 164 159 353 257 456 60 62
73 69 73 38 0 -11 5 -20 10 -20 6 0 10 13 10 30 0 17 7 33 17 39 14 7 22 2 40
-27 20 -33 22 -46 18 -132 -5 -93 -5 -94 11 -61 8 19 20 78 25 130 6 53 17
119 26 146 29 95 141 281 163 273 4 -2 67 -60 139 -129z m7299 -108 c2 -45 1
-50 -15 -44 -15 5 -16 3 -5 -8 15 -16 16 -99 1 -99 -22 0 -96 71 -112 107 -20
45 -47 163 -47 202 0 15 6 33 13 40 10 10 26 -3 87 -68 71 -75 75 -83 78 -130z
m-1500 177 c20 -20 14 -28 -13 -16 -13 6 -22 15 -19 19 7 12 18 11 32 -3z
m450 0 c19 -19 14 -28 -18 -28 -16 0 -30 4 -30 8 0 9 21 32 30 32 3 0 11 -5
18 -12z m112 2 c0 -5 -7 -10 -16 -10 -8 0 -12 5 -9 10 3 6 10 10 16 10 5 0 9
-4 9 -10z m502 -162 c50 -30 178 -159 178 -181 0 -8 -17 -19 -42 -25 l-43 -11
49 4 c69 7 118 -19 199 -103 49 -51 67 -77 67 -97 0 -21 -4 -26 -17 -23 -324
89 -328 90 -357 122 -24 27 -27 28 -21 9 8 -27 4 -28 -61 -8 -68 20 -137 95
-163 178 -16 47 -38 69 -62 62 -21 -7 -193 11 -250 26 -20 5 -42 16 -49 24
-10 12 -6 18 22 35 29 18 50 20 178 20 201 -1 233 -17 305 -160 34 -68 63
-110 76 -110 16 0 1 40 -32 88 -37 55 -37 66 1 59 16 -4 37 -4 45 -1 26 10 5
24 -37 24 -60 0 -129 57 -115 95 8 18 75 4 129 -27z m508 -60 c70 -81 90 -110
100 -148 10 -37 1 -134 -19 -207 -10 -38 -15 -43 -41 -43 -27 0 -31 4 -48 63
-11 34 -27 99 -37 145 -16 81 -16 83 4 118 26 44 27 57 1 24 l-20 -25 0 63 c0
34 3 62 8 62 4 0 27 -23 52 -52z m-6820 23 c35 -7 66 -14 68 -16 2 -2 -3 -13
-10 -25 -11 -18 -11 -23 6 -35 10 -8 24 -16 29 -18 6 -2 8 -11 4 -21 -5 -12
-13 -15 -27 -11 -11 4 -20 2 -20 -4 0 -16 56 -13 69 3 15 18 5 41 -25 54 -43
20 -23 45 26 32 22 -5 25 -12 28 -53 2 -33 7 -47 18 -47 10 0 14 11 14 37 0
35 0 36 20 18 11 -10 20 -22 20 -27 0 -14 -99 -239 -122 -275 -11 -18 -24 -33
-28 -33 -5 0 -66 52 -135 116 -94 87 -125 121 -125 140 0 23 16 30 58 25 16
-2 16 91 0 107 -15 15 -68 16 -68 1 0 -6 8 -8 18 -5 22 7 47 -8 38 -23 -4 -6
-15 -11 -25 -11 -9 0 -22 -5 -28 -11 -9 -9 -13 -5 -18 17 -4 16 -8 34 -10 41
-5 16 10 25 55 34 40 9 78 6 170 -10z m5833 -51 c67 -22 139 -43 160 -47 30
-4 49 -18 92 -66 80 -88 81 -87 -70 -43 -73 21 -80 25 -87 54 -5 17 -14 34
-20 38 -7 5 -9 2 -6 -7 23 -60 17 -76 -17 -43 -9 10 -24 14 -37 11 -26 -7
-174 60 -202 91 -26 30 -14 52 29 52 20 0 91 -18 158 -40z m-351 0 c26 -10 78
-39 117 -65 68 -44 71 -48 71 -86 0 -21 5 -39 10 -39 6 0 10 9 10 21 0 31 17
14 53 -54 45 -88 44 -175 -7 -345 -41 -141 -41 -138 -22 -122 8 6 20 37 27 68
21 105 30 126 44 111 8 -8 27 -49 44 -92 17 -42 47 -109 66 -147 19 -38 35
-73 35 -78 0 -5 -24 -19 -52 -32 -63 -29 -63 -29 -56 -35 3 -3 31 6 63 20 l58
26 24 -28 c14 -15 23 -21 20 -13 -2 8 -7 24 -11 36 -5 18 5 25 83 61 l90 41
40 -62 c21 -33 51 -85 66 -114 15 -29 31 -55 36 -58 21 -13 5 24 -56 128 -36
61 -64 112 -63 114 11 11 257 121 261 117 3 -3 18 4 34 16 38 27 212 105 219
98 12 -11 -8 -47 -37 -68 -17 -12 -51 -27 -77 -33 -25 -7 -47 -17 -50 -24 -4
-14 15 -15 78 -2 25 5 48 5 53 1 13 -13 -53 -102 -154 -206 -92 -94 -114 -125
-89 -125 9 0 43 40 195 230 42 52 89 112 106 132 38 48 90 63 162 48 75 -15
129 -49 139 -85 4 -16 31 -53 60 -80 29 -28 69 -73 88 -100 24 -34 46 -53 68
-60 29 -8 33 -13 28 -36 -3 -19 6 -43 35 -90 48 -79 59 -115 59 -202 0 -63 2
-68 25 -77 14 -5 25 -12 25 -15 0 -4 -4 -4 -9 0 -18 10 -28 -29 -34 -125 -4
-62 -15 -121 -32 -169 -14 -41 -25 -84 -25 -95 0 -12 -12 -32 -27 -46 -14 -14
-41 -57 -59 -96 -58 -123 -178 -270 -291 -355 -29 -21 -54 -39 -57 -39 -3 0
-244 124 -536 276 -292 152 -533 275 -535 273 -2 -2 46 -236 107 -519 l110
-516 -33 -52 c-26 -42 -34 -50 -41 -38 -16 28 -95 66 -169 82 -83 17 -217 8
-365 -24 l-81 -18 -1 40 c-3 97 -31 216 -51 216 -3 0 -6 30 -6 68 0 94 -33
260 -56 283 -13 13 -16 27 -13 51 6 39 -38 252 -57 274 -11 13 -14 102 -5 111
1 2 17 4 34 6 18 2 32 7 32 10 0 4 0 27 0 52 0 49 -23 72 -60 60 -29 -9 -25
-21 7 -20 14 0 28 -5 30 -11 5 -14 -50 -26 -58 -12 -3 5 -12 54 -19 109 -9 71
-17 102 -28 108 -14 8 -14 12 -3 25 12 14 11 33 -4 119 -9 56 -26 117 -36 136
-15 24 -17 37 -9 46 6 7 10 40 8 72 -3 53 -1 59 22 70 l25 11 -26 1 c-18 1
-28 8 -32 21 -4 17 0 20 29 20 21 0 34 5 34 13 0 24 -31 57 -55 57 -14 0 -26
7 -30 19 -3 10 -15 21 -25 24 -40 10 -17 24 87 51 133 34 372 121 393 142 14
14 12 15 -15 8 -16 -3 -77 -24 -135 -46 -58 -23 -139 -51 -180 -63 -41 -13
-92 -31 -114 -40 -43 -18 -55 -14 -35 12 11 15 11 16 -1 6 -19 -18 -30 -16
-30 3 0 9 -14 74 -30 144 -17 71 -27 135 -24 144 3 9 1 16 -5 16 -13 0 -15 46
-3 54 12 7 27 -5 61 -48 36 -46 38 -52 11 -59 -26 -7 -42 -50 -31 -81 10 -25
30 -36 67 -36 36 0 29 18 -8 22 -29 3 -33 7 -36 34 -4 41 24 67 44 40 7 -11
20 -16 29 -13 12 5 9 15 -20 53 -41 54 -42 83 -4 101 15 7 32 20 39 28 19 23
-6 19 -37 -5 -29 -23 -63 -26 -81 -8 -32 32 4 108 84 173 39 32 44 34 44 16 0
-24 19 -76 25 -69 3 2 1 18 -4 36 -13 42 -5 65 29 85 15 9 31 17 34 17 2 0 -4
-25 -15 -57 -22 -65 -22 -63 -10 -63 5 0 11 9 14 20 3 12 14 20 27 20 13 0 24
-8 27 -20 4 -16 23 -30 23 -17 0 12 -35 104 -43 115 -7 9 10 21 67 48 122 56
170 60 268 24z m-5902 -29 c0 -16 -7 -34 -16 -42 -36 -30 -73 41 -39 75 23 23
55 4 55 -33z m640 23 c0 -14 -3 -14 -15 -4 -8 7 -15 14 -15 16 0 2 7 4 15 4 8
0 15 -7 15 -16z m84 0 c9 -25 7 -54 -5 -54 -35 0 -63 42 -42 63 12 13 41 7 47
-9z m101 -31 c3 -18 2 -34 -4 -38 -7 -4 -11 3 -11 17 0 13 -3 34 -6 48 -5 17
-3 22 4 15 5 -5 13 -24 17 -42z m6278 -42 c57 -60 71 -88 65 -136 l-3 -27 -50
33 c-61 41 -99 108 -89 157 4 18 10 32 14 32 4 0 32 -26 63 -59z m-6823 35 c0
-18 -27 -39 -40 -31 -14 9 -13 32 3 38 23 10 37 7 37 -7z m480 -142 c0 -80
-10 -114 -47 -150 -60 -60 -133 -39 -133 37 0 50 59 207 80 211 8 2 34 -8 57
-22 41 -24 42 -27 43 -76z m4813 66 c4 -15 0 -20 -15 -20 -14 0 -18 5 -14 16
3 9 6 20 6 25 0 17 17 1 23 -21z m-4754 -29 c11 -7 10 -11 -7 -20 -18 -9 -23
-8 -32 9 -9 17 -8 20 7 20 10 0 24 -4 32 -9z m146 -31 c38 -6 71 -13 73 -15 9
-8 -231 -145 -255 -145 -16 0 -16 14 -2 79 13 62 51 104 88 97 14 -3 57 -10
96 -16z m5533 -10 c44 -12 89 -28 99 -36 16 -12 8 -13 -62 -8 -75 6 -82 9
-115 41 -19 20 -28 33 -19 30 9 -3 52 -15 97 -27z m960 -58 c24 -46 42 -86 39
-88 -2 -3 -20 -7 -38 -10 -33 -5 -34 -4 -62 58 -28 65 -32 84 -21 113 13 32
40 8 82 -73z m-1131 57 c-5 -17 -3 -18 9 -8 12 10 18 9 32 -4 15 -16 14 -17
-10 -17 -16 0 -33 -9 -41 -20 -14 -20 -15 -20 -20 6 -5 28 10 64 27 64 4 0 6
-9 3 -21z m-5981 -81 c53 -51 102 -97 110 -101 22 -12 17 -24 -20 -46 -44 -27
-60 -28 -46 -1 6 12 21 20 35 20 14 0 25 5 25 10 0 6 -11 10 -25 10 -29 0 -65
-32 -65 -58 0 -23 -19 -42 -42 -42 -12 0 -18 7 -18 21 0 16 5 20 20 16 16 -4
20 0 20 17 0 26 -18 46 -41 46 -13 0 -20 22 -36 100 -11 55 -18 100 -16 100 2
0 47 -42 99 -92z m879 72 c8 -13 -45 -50 -71 -50 -12 0 -34 -4 -48 -10 -19 -7
-26 -6 -26 2 0 6 -8 4 -18 -5 -23 -21 -107 -50 -124 -44 -15 5 89 74 135 89
18 6 37 14 42 18 23 18 99 17 110 0z m5525 -63 c20 -8 21 -11 8 -14 -9 -2 -30
3 -47 12 -57 29 -30 31 39 2z m-453 -85 c32 -48 71 -115 87 -150 l30 -62 -17
-72 c-24 -102 -20 -115 10 -33 14 39 27 72 28 73 5 5 75 -74 103 -114 l22 -33
-86 -40 c-48 -23 -90 -39 -94 -36 -4 3 -27 49 -50 102 -24 54 -59 130 -78 168
-26 52 -36 87 -40 137 -5 75 5 161 18 153 5 -3 35 -45 67 -93z m307 72 c80
-21 171 -69 184 -99 9 -19 7 -28 -8 -47 -19 -25 -155 -89 -228 -108 -46 -12
-53 -32 -20 -54 15 -9 23 -5 48 22 30 33 216 130 227 118 3 -3 -2 -17 -11 -31
-9 -14 -12 -25 -7 -25 5 0 13 9 16 20 8 25 50 54 65 45 14 -9 12 -100 -3 -138
-12 -28 -31 -40 -152 -95 -106 -48 -140 -60 -146 -50 -4 7 -40 58 -79 113 -75
105 -106 163 -93 176 5 5 33 2 63 -7 89 -24 140 -32 140 -22 0 13 -37 24 -105
33 -33 4 -74 15 -91 26 -28 17 -84 85 -84 102 0 4 15 7 33 8 17 0 50 6 72 14
55 18 106 18 179 -1z m-5507 -39 c-30 -24 -57 -49 -59 -55 -2 -6 -18 -11 -36
-13 -29 -2 -32 -5 -32 -34 0 -43 -20 -42 -40 0 -19 41 -70 50 -93 17 -11 -17
-19 -19 -38 -11 -17 7 -19 10 -6 10 9 1 17 7 17 14 0 8 26 20 63 29 34 9 103
32 152 52 123 48 140 46 72 -9z m193 5 c0 -43 -14 -54 -23 -18 -5 19 7 58 18
58 3 0 5 -18 5 -40z m5768 -35 c39 -10 72 -22 72 -26 0 -24 -134 -14 -221 16
-44 16 -109 60 -109 74 0 4 42 -4 93 -19 50 -14 125 -35 165 -45z m328 26 l21
-39 -34 -4 c-26 -3 -32 -1 -28 10 3 7 5 27 5 43 0 39 11 36 36 -10z m-6137
-30 c30 -38 31 -42 31 -139 l0 -101 -90 62 -90 62 64 15 c83 20 121 51 80 67
-8 3 -25 -4 -37 -15 -12 -11 -41 -25 -64 -30 l-43 -10 0 33 c0 36 18 57 70 79
47 20 44 21 79 -23z m3646 -32 c36 -18 75 -70 58 -76 -7 -3 -13 -9 -13 -15 0
-6 7 -8 15 -4 24 9 18 -20 -10 -49 -35 -34 -45 -32 -45 10 0 26 4 35 18 35 9
1 -1 7 -22 15 -23 8 -46 10 -55 6 -9 -5 -21 -6 -28 -4 -6 2 -13 -6 -15 -18 -2
-12 -13 -28 -25 -37 l-23 -14 15 36 c12 29 13 36 2 36 -7 0 -20 -21 -28 -47
l-15 -48 -13 40 c-14 43 -27 62 -36 53 -3 -3 3 -26 14 -51 l20 -45 -124 -82
c-68 -45 -128 -79 -134 -76 -11 7 -27 109 -22 150 3 27 70 106 91 106 5 0 15
3 24 6 11 4 16 1 16 -10 0 -9 16 -24 35 -33 26 -13 35 -23 33 -38 -2 -15 -11
-20 -35 -21 -43 0 -52 -11 -18 -20 42 -10 75 10 75 46 0 25 -6 33 -35 47 -43
21 -45 39 -3 48 17 4 63 23 102 42 76 37 123 40 181 12z m2701 6 c-22 -17 -56
-20 -56 -6 0 12 19 19 50 20 24 0 24 0 6 -14z m-72 -10 c3 -9 0 -18 -7 -20 -6
-3 -51 -18 -99 -34 l-87 -28 -27 28 c-22 23 -24 29 -11 29 9 0 17 -5 17 -12 0
-7 5 -5 13 5 7 10 43 22 92 31 105 18 102 18 109 1z m-7204 -36 c0 -5 -7 -9
-15 -9 -9 0 -15 9 -15 21 0 18 2 19 15 9 8 -7 15 -16 15 -21z m591 0 c11 -21
10 -22 -22 -15 -38 7 -43 11 -34 25 11 18 44 12 56 -10z m91 -1 c-7 -7 -12 -8
-12 -2 0 14 12 26 19 19 2 -3 -1 -11 -7 -17z m4078 -17 c14 -26 13 -31 -5 -25
-13 5 -15 -8 -15 -80 0 -51 4 -86 10 -86 6 0 10 14 10 30 0 17 3 30 8 30 13 0
28 -15 35 -32 9 -24 24 -23 32 2 19 61 87 -22 113 -137 9 -38 8 -42 -14 -52
-15 -6 -24 -7 -24 -1 0 6 -4 10 -10 10 -5 0 -10 -6 -10 -14 0 -14 -29 -31 -37
-22 -2 2 1 13 8 25 7 11 10 23 6 28 -9 8 -92 -77 -89 -90 1 -4 -4 -17 -12 -29
-16 -22 -11 -34 -70 171 -19 65 -21 142 -4 139 7 -2 10 15 9 54 -3 60 11 98
34 98 8 0 19 -9 25 -19z m-4380 -5 c0 -15 -26 -46 -39 -46 -13 0 -31 24 -31
42 0 14 8 18 35 18 24 0 35 -5 35 -14z m50 -5 c0 -35 12 -51 38 -51 l26 0 -22
16 c-30 21 -28 44 3 44 14 0 25 -5 25 -12 0 -38 60 -60 99 -36 10 6 26 8 35 5
14 -6 13 -13 -9 -63 -14 -32 -30 -63 -36 -71 -16 -19 -52 -16 -78 7 -24 20
-89 45 -97 37 -3 -2 15 -13 40 -23 29 -12 46 -25 46 -36 0 -9 5 -20 10 -23 13
-8 13 -25 -1 -25 -11 0 -199 170 -199 180 0 4 13 5 28 2 33 -4 62 19 62 49 0
10 7 19 15 19 8 0 15 -9 15 -19z m6293 6 c18 -8 38 -21 45 -30 11 -13 1 -21
-84 -61 -53 -25 -98 -46 -100 -46 -8 0 -2 57 9 90 19 54 68 72 130 47z m-6433
-17 c0 -24 -6 -25 -25 -6 -15 15 -10 26 12 26 7 0 13 -9 13 -20z m277 -1 c24
-9 26 -12 11 -20 -19 -11 -44 -3 -52 17 -6 17 3 18 41 3z m-2373 -11 c55 -17
107 -72 146 -154 17 -38 75 -156 127 -262 53 -106 94 -195 91 -198 -5 -4 -198
-80 -350 -138 l-67 -25 -91 81 -91 81 28 19 28 20 -30 -7 c-16 -3 -55 -23 -85
-43 -71 -48 -67 -46 -75 -23 -3 12 -10 21 -15 21 -5 0 -4 -12 2 -26 10 -21 9
-27 -3 -34 -10 -7 -16 -4 -21 8 -6 15 -8 14 -14 -5 -8 -28 -30 -30 -39 -3 -3
11 -10 20 -15 20 -6 0 -6 -10 0 -24 7 -18 5 -26 -6 -30 -11 -4 -14 5 -14 44 0
28 -4 50 -10 50 -5 0 -10 -9 -10 -20 0 -15 -7 -20 -25 -20 -28 0 -50 -32 -42
-61 3 -10 4 -19 2 -19 -2 0 -11 -3 -19 -6 -14 -5 -15 -2 -8 17 12 35 4 58 -24
65 -32 8 -54 -11 -54 -48 0 -17 -4 -27 -10 -23 -5 3 -10 17 -10 29 0 30 -23
49 -50 41 -30 -10 -26 28 8 73 l27 36 -30 -21 c-51 -36 -66 -59 -74 -115 -9
-65 -22 -90 -60 -117 -44 -31 -77 -27 -101 12 l-20 32 23 18 22 17 -23 20
c-22 18 -23 48 -1 35 5 -4 9 -1 9 4 0 6 -9 11 -20 11 -14 0 -21 9 -25 33 -29
172 -70 565 -60 576 4 3 120 7 259 9 226 3 271 6 417 32 179 31 335 38 403 18z
m2041 3 c3 -5 1 -13 -5 -16 -15 -9 -43 3 -35 15 8 13 32 13 40 1z m4305 -5 c0
-2 -7 -7 -16 -10 -8 -3 -12 -2 -9 4 6 10 25 14 25 6z m-4317 -25 c36 3 67 -14
67 -37 0 -8 6 -14 14 -14 8 0 51 -34 96 -77 84 -79 88 -93 27 -93 -29 0 -52
-19 -124 -104 -29 -35 -35 -37 -70 -32 -21 4 -51 3 -68 -2 -23 -6 -15 -8 40
-9 l70 -1 62 60 c38 38 67 59 76 55 8 -3 18 -2 23 3 5 4 23 11 40 15 30 6 42
-4 272 -222 144 -136 237 -230 230 -234 -7 -4 -3 -9 10 -11 28 -4 342 -301
329 -310 -7 -4 -1 -11 14 -18 24 -11 24 -12 -76 -115 -55 -57 -118 -112 -139
-123 l-40 -19 52 5 52 5 0 -39 1 -39 32 60 c17 33 67 96 109 140 l78 80 52
-51 c155 -149 392 -285 608 -347 216 -63 486 -79 695 -42 133 23 315 84 439
146 273 136 521 379 666 652 40 75 43 78 61 61 34 -30 33 -71 -4 -179 -47
-137 -59 -158 -122 -206 -30 -23 -55 -45 -55 -50 0 -14 7 -11 50 17 22 15 43
25 46 22 2 -3 0 -54 -6 -113 -5 -60 -8 -111 -5 -113 12 -13 18 15 26 115 8
109 20 165 45 216 19 35 31 34 39 -3 8 -35 25 -50 25 -21 0 11 -5 23 -11 27
-14 9 -6 145 11 189 l12 30 36 -41 c37 -42 87 -157 98 -226 4 -22 0 -58 -11
-92 -21 -66 -14 -85 11 -32 10 20 20 36 24 36 8 0 70 -104 70 -118 0 -12 4
-17 61 -82 l31 -35 -31 57 c-17 32 -31 60 -31 63 0 10 25 5 54 -10 16 -9 31
-13 34 -10 3 2 4 37 3 77 -1 40 3 80 9 88 7 11 10 4 10 -27 0 -24 5 -43 10
-43 6 0 10 18 10 41 0 70 24 94 63 65 18 -14 16 -18 -27 -71 -50 -61 -52 -66
-35 -98 23 -42 57 -49 89 -17 26 26 26 64 0 90 -17 17 -19 24 -9 42 l12 22 23
-28 c20 -22 23 -34 18 -66 -6 -34 -3 -42 22 -67 16 -15 34 -43 39 -62 6 -19
16 -36 24 -39 10 -3 12 0 6 14 -28 69 -29 74 -17 86 10 10 15 10 22 -2 7 -10
10 16 10 78 0 55 -4 92 -10 92 -5 0 -10 -16 -10 -35 0 -32 -2 -35 -19 -25 -11
5 -26 7 -34 4 -18 -7 -31 24 -17 41 6 7 23 16 38 19 15 4 51 17 79 28 45 18
58 20 89 10 28 -8 34 -8 26 0 -19 19 -15 24 46 59 79 44 49 49 -35 5 -78 -40
-95 -44 -86 -18 4 11 -6 6 -28 -14 -38 -36 -98 -60 -123 -51 -16 6 -22 64 -20
177 2 49 15 174 20 179 6 6 95 -70 102 -88 8 -21 58 -71 71 -71 23 0 21 21 -4
45 -33 30 -59 96 -42 107 9 6 9 10 1 16 -7 4 -15 32 -19 63 -8 66 5 82 39 50
24 -22 46 -28 46 -11 0 6 -12 16 -27 22 l-28 11 43 9 c37 8 46 7 58 -9 11 -13
17 -14 20 -5 9 19 34 15 102 -18 35 -17 71 -30 79 -30 23 0 10 23 -18 31 -13
4 -50 15 -82 25 -58 17 -87 36 -87 56 0 5 6 8 13 5 8 -3 20 -1 28 3 8 5 19 4
26 -2 10 -8 13 1 13 44 0 49 12 78 32 78 4 0 8 -27 8 -60 0 -33 4 -60 10 -60
6 0 10 30 10 69 0 54 4 70 16 75 32 12 37 7 30 -40 -9 -71 19 -237 47 -272 6
-8 10 -35 9 -60 -3 -64 32 -199 58 -227 15 -16 18 -25 10 -30 -14 -9 -4 -264
11 -279 5 -6 9 -21 9 -33 0 -34 28 -83 46 -83 12 0 14 -5 8 -17 -11 -22 -11
-129 -1 -206 6 -38 17 -67 33 -86 15 -18 20 -32 14 -36 -15 -9 -12 -57 12
-199 18 -108 25 -130 42 -138 19 -8 21 -18 21 -86 0 -42 2 -104 5 -137 l5 -60
-65 -8 c-86 -11 -239 -1 -379 23 -204 36 -332 21 -401 -45 l-27 -26 -26 40
c-49 73 -173 142 -294 162 -54 9 -108 9 -225 0 -136 -10 -182 -9 -388 9 -129
11 -273 25 -320 30 -191 22 -351 24 -440 6 -123 -25 -140 -36 -194 -121 l-48
-75 -71 0 c-114 0 -364 19 -462 35 -274 44 -533 173 -762 380 -55 50 -73 73
-71 89 2 11 11 22 21 24 13 3 17 -4 17 -32 0 -19 5 -38 10 -41 6 -4 10 10 10
34 0 41 -26 71 -46 51 -20 -19 -65 3 -100 48 l-35 46 23 12 c16 9 27 9 35 2
10 -8 13 1 13 40 0 69 -26 95 -77 75 -14 -6 -11 -9 16 -13 41 -6 55 -30 17
-30 -14 0 -31 -9 -40 -21 -13 -20 -16 -17 -56 62 -81 161 -133 209 -226 209
-27 -1 -106 -16 -177 -34 l-127 -34 -46 51 c-97 108 -125 188 -180 505 -19
112 -52 278 -73 370 -36 152 -91 405 -91 417 0 3 6 5 13 5 6 1 44 16 82 34 46
22 74 30 82 24 7 -5 27 -8 46 -7z m4577 -38 c0 -14 -6 -23 -15 -23 -17 0 -30
42 -20 67 6 17 7 17 21 -1 8 -11 14 -30 14 -43z m-740 10 c0 -7 -4 -13 -10
-13 -5 0 -10 12 -10 28 0 21 2 24 10 12 5 -8 10 -21 10 -27z m500 2 c0 -31 -4
-36 -47 -56 -29 -13 -42 -24 -33 -26 9 -2 42 8 74 22 74 33 86 24 61 -42 -45
-120 -95 -202 -139 -225 -16 -8 -18 -7 -13 6 9 22 -2 20 -29 -5 l-22 -21 -11
21 c-14 26 -35 28 -27 3 5 -16 2 -18 -23 -14 -24 3 -33 12 -41 38 -13 37 -39
45 -47 15 -3 -13 -11 -17 -24 -14 -22 6 -25 -9 -5 -26 13 -11 13 -17 0 -46
-16 -40 -18 -55 -4 -55 5 0 12 11 16 25 9 37 58 35 78 -4 l15 -28 -55 -38
c-68 -47 -122 -58 -246 -50 l-96 7 18 53 c10 28 24 78 31 109 7 31 16 59 20
62 4 2 28 8 53 13 50 9 55 3 57 -74 0 -22 4 -49 9 -60 7 -19 8 -19 15 -2 4 9
5 46 3 82 l-4 64 36 5 c114 17 128 17 214 -4 49 -12 100 -19 114 -15 38 9 18
18 -56 24 -50 5 -67 10 -67 21 0 8 9 16 20 18 29 6 41 20 28 33 -7 7 -30 5
-79 -10 -70 -20 -210 -41 -219 -33 -3 3 20 15 51 28 31 12 80 39 110 58 30 20
59 36 64 36 6 0 35 24 63 53 52 52 52 52 55 25 5 -39 22 -35 22 5 0 25 6 37
23 45 34 16 37 15 37 -23z m-3749 -20 c84 -43 159 -109 159 -139 0 -8 -11 -38
-25 -68 -14 -29 -25 -60 -25 -68 1 -8 10 6 22 33 11 26 24 47 28 47 3 0 12
-30 19 -67 6 -38 30 -122 52 -187 l40 -119 -25 -25 -25 -25 -38 33 c-136 120
-463 424 -463 431 0 14 62 49 85 49 12 0 28 -12 37 -28 10 -16 35 -47 57 -69
30 -32 42 -55 52 -100 7 -32 14 -50 17 -40 8 37 -29 121 -78 173 -26 29 -50
64 -52 78 -5 25 13 91 30 108 15 15 67 -17 91 -57 21 -37 41 -39 41 -5 0 12
-19 29 -55 49 -30 17 -55 33 -55 36 0 13 32 1 111 -40z m3267 -45 c9 -35 7
-47 -14 -89 -28 -60 -49 -77 -41 -35 3 16 9 59 12 97 8 78 27 90 43 27z
m-3118 -22 c0 -6 -6 -5 -15 2 -8 7 -15 14 -15 16 0 2 7 1 15 -2 8 -4 15 -11
15 -16z m3140 -95 c0 -18 -4 -33 -9 -33 -17 0 -20 15 -14 54 7 44 23 29 23
-21z m-4365 5 c-10 -18 -52 -91 -95 -163 -121 -202 -183 -370 -150 -410 14
-17 29 -19 47 -7 7 5 22 46 34 93 32 130 149 341 230 414 79 71 108 34 140
-181 11 -76 36 -200 54 -274 57 -230 77 -353 82 -527 l6 -163 -24 0 c-74 0
-237 67 -351 143 -90 60 -180 143 -302 280 -43 48 -140 144 -217 213 -154 140
-263 269 -238 285 8 5 17 9 21 9 4 0 98 39 210 86 112 48 266 112 343 144 77
31 158 66 180 77 22 12 41 20 43 18 2 -2 -4 -18 -13 -37z m4929 -44 c20 -19
21 -64 1 -90 -8 -11 -15 -14 -15 -6 0 6 -4 12 -10 12 -6 0 -10 -27 -10 -60 0
-33 4 -60 10 -60 6 0 10 19 10 43 0 28 3 37 9 28 7 -11 11 -9 20 8 18 33 31
16 31 -39 0 -49 0 -49 -41 -62 -39 -11 -43 -10 -60 11 -12 15 -17 31 -13 47 4
14 1 37 -6 53 -10 25 -8 35 14 80 28 55 36 60 60 35z m-370 -103 c-8 -9 -22
12 -17 26 6 15 7 14 13 -3 4 -10 6 -21 4 -23z m860 -16 c4 -11 -1 -15 -19 -15
-16 0 -25 6 -25 15 0 8 9 15 19 15 10 0 21 -7 25 -15z m-8180 -11 c9 -8 16
-17 16 -19 0 -10 -33 -35 -46 -35 -9 0 -14 11 -14 35 0 39 17 46 44 19z m7336
0 c0 -2 -12 -4 -26 -4 -14 0 -23 4 -20 9 6 8 46 4 46 -5z m270 -9 c0 -8 -2
-15 -4 -15 -2 0 -6 7 -10 15 -3 8 -1 15 4 15 6 0 10 -7 10 -15z m-210 -10 c13
-15 7 -45 -8 -45 -8 0 -32 42 -32 55 0 11 29 4 40 -10z m160 -16 c0 -10 -4
-19 -9 -19 -10 0 -21 36 -14 44 10 10 23 -5 23 -25z m-10 -69 c0 -19 -25 -50
-40 -50 -5 0 -15 -3 -24 -6 -9 -3 -16 -1 -16 5 0 6 7 11 15 11 8 0 15 7 15 15
0 20 -42 20 -81 -1 -51 -26 -52 -11 -3 36 29 28 48 40 51 33 3 -7 12 -13 20
-13 13 0 13 3 3 15 -10 12 -10 18 0 30 10 12 16 9 36 -21 13 -19 24 -43 24
-54z m310 70 c0 -24 -26 -38 -42 -22 -8 8 -8 15 2 27 18 21 40 19 40 -5z
m-7820 -42 l-1 -33 -13 25 c-14 25 -13 40 5 40 5 0 9 -15 9 -32z m7570 -23
c15 -18 7 -29 -27 -40 -25 -7 -29 4 -13 36 13 23 23 24 40 4z m24 -82 c8 -49
8 -103 0 -103 -4 0 -24 5 -45 12 -33 9 -39 15 -38 37 2 62 17 82 70 90 4 1 9
-16 13 -36z m-479 -33 c-3 -5 -12 -10 -19 -10 -18 0 -56 -38 -56 -56 0 -35 31
-25 78 25 43 46 52 51 90 51 23 0 42 -1 42 -3 0 -14 -53 -156 -66 -175 -18
-27 -71 -52 -93 -44 -51 17 -148 169 -124 193 19 19 159 37 148 19z m276 -2
c124 -42 114 -112 -20 -142 -36 -8 -86 -22 -110 -31 -24 -8 -45 -15 -47 -15
-11 0 0 33 38 112 39 83 43 88 73 88 18 0 47 -5 66 -12z m-6364 -85 c101 -91
114 -75 -132 -159 -211 -72 -259 -76 -353 -26 -34 17 -67 32 -72 32 -6 0 -28
-16 -50 -36 -42 -38 -73 -42 -78 -8 -4 26 35 83 77 111 41 27 64 24 141 -23
31 -19 64 -34 75 -33 15 0 11 4 -12 15 -18 8 -33 18 -33 23 0 18 50 48 91 55
49 8 58 2 41 -24 -7 -12 -8 -20 -2 -20 5 0 16 13 24 29 14 25 53 47 65 36 2
-3 -1 -17 -8 -32 -11 -23 -10 -25 3 -14 8 7 18 25 21 41 4 19 25 44 57 70 28
22 53 40 56 40 2 0 43 -35 89 -77z m-627 7 c0 -22 -4 -40 -10 -40 -11 0 -13
39 -4 64 10 26 14 19 14 -24z m3704 -3 c7 -18 26 -53 40 -76 15 -24 26 -44 24
-46 -2 -1 -32 24 -67 56 -64 57 -64 59 -46 79 25 27 32 25 49 -13z m-3637 -22
c-2 -5 -13 -11 -25 -13 -30 -5 -41 26 -16 45 16 12 20 11 32 -4 7 -9 11 -22 9
-28z m96 23 c14 -21 2 -48 -22 -48 -22 0 -33 30 -19 54 11 19 27 17 41 -6z
m73 -16 c-15 -15 -16 -15 -16 5 0 12 6 23 13 26 19 6 21 -13 3 -31z m989 -107
c35 -135 42 -244 21 -317 -9 -31 -20 -59 -25 -62 -7 -5 -415 353 -409 359 2 2
84 39 183 84 l180 80 12 -22 c6 -13 23 -68 38 -122z m5980 77 c-3 -3 -12 3
-19 14 -11 14 -11 21 -3 26 12 7 32 -30 22 -40z m-7405 7 c0 -5 -4 -9 -10 -9
-5 0 -10 7 -10 16 0 8 5 12 10 9 6 -3 10 -10 10 -16z m7257 -56 c-3 -10 -8
-36 -12 -58 -6 -39 -46 -118 -65 -130 -5 -3 -36 11 -67 31 -32 20 -87 50 -123
66 -49 22 -61 31 -50 38 25 16 47 11 55 -12 l8 -23 4 23 c5 25 5 26 73 11 65
-14 78 -4 16 12 -25 6 -46 15 -46 19 0 10 125 38 173 39 32 1 38 -2 34 -16z
m-6147 -162 l75 -69 -55 -26 c-33 -16 -47 -26 -34 -26 12 0 38 11 58 25 l37
25 107 -96 c59 -53 108 -100 110 -104 5 -14 -95 -108 -159 -151 -80 -52 -406
-211 -424 -207 -15 3 -275 332 -275 347 0 15 59 34 90 28 16 -4 53 -22 82 -41
53 -35 88 -42 173 -37 l40 2 -55 15 c-30 8 -78 29 -107 46 -59 36 -58 49 5 69
20 6 61 24 89 40 45 25 64 29 130 30 l78 1 -80 18 c-92 20 -100 19 -188 -44
-58 -41 -118 -66 -194 -81 -41 -8 -43 6 -8 71 14 26 25 54 25 63 -1 9 -12 -7
-25 -34 -14 -28 -39 -64 -56 -80 l-31 -30 -34 40 c-18 22 -34 35 -34 28 0 -6
12 -25 26 -42 l26 -31 -38 -16 c-50 -21 -100 -29 -107 -17 -13 21 17 88 59
133 58 62 126 97 319 163 88 31 180 64 205 75 53 23 50 25 170 -87z m9167 87
c-3 -8 -6 -5 -6 6 -1 11 2 17 5 13 3 -3 4 -12 1 -19z m-3316 -33 c34 -12 166
-83 188 -101 2 -2 -14 -25 -36 -51 -54 -66 -60 -77 -37 -69 16 5 19 0 21 -39
1 -25 0 -45 -2 -45 -1 0 -20 29 -41 65 -21 36 -44 65 -51 65 -7 0 -13 -17 -15
-42 l-3 -43 -28 52 c-27 53 -54 150 -43 160 3 3 19 -6 36 -21 28 -23 60 -35
60 -21 0 2 -25 23 -55 45 -77 57 -75 73 6 45z m303 -69 c4 -18 4 -41 0 -49 -5
-15 -9 -15 -35 -1 -34 17 -35 19 -9 62 24 38 35 35 44 -12z m-8184 -50 c0 -19
-4 -22 -25 -18 l-24 4 22 19 c28 23 27 23 27 -5z m-132 -12 c4 -25 -22 -49
-43 -40 -9 3 -15 18 -15 36 0 28 3 31 28 28 18 -2 28 -9 30 -24z m132 -62 c0
-27 -15 -52 -31 -52 -14 0 -39 32 -39 50 0 10 7 26 16 34 22 23 54 4 54 -32z
m370 10 c0 -10 -21 -32 -31 -32 -6 0 -6 19 0 38 2 6 31 1 31 -6z m-533 -19
c-9 -9 -19 -14 -23 -11 -10 10 6 28 24 28 15 0 15 -1 -1 -17z m8138 -91 c-2
-2 -13 -1 -24 3 -16 5 -21 15 -21 43 l1 37 24 -40 c13 -21 22 -41 20 -43z
m-7550 58 c3 -6 -1 -7 -9 -4 -18 7 -21 14 -7 14 6 0 13 -4 16 -10z m7727 -26
c15 -32 0 -59 -32 -59 -27 0 -41 30 -29 63 12 31 46 29 61 -4z m133 -18 c0
-52 -20 -57 -40 -11 -17 43 -12 57 18 53 18 -2 22 -10 22 -42z m-45 -22 c0 -8
-4 -12 -10 -9 -5 3 -10 13 -10 21 0 8 5 12 10 9 6 -3 10 -13 10 -21z m742 -16
c-12 -12 -42 -4 -42 12 0 6 10 14 23 19 16 6 23 5 25 -6 2 -8 -1 -20 -6 -25z
m1320 -363 c202 -104 368 -196 368 -202 0 -9 -15 -13 -44 -13 -68 0 -88 -12
-188 -113 -108 -108 -201 -162 -382 -221 -60 -20 -133 -49 -162 -66 -30 -16
-56 -30 -58 -30 -2 0 -7 17 -11 38 -10 58 -195 925 -201 944 -4 12 42 -7 153
-65 87 -45 324 -167 525 -272z m-8758 215 c49 -62 81 -110 72 -107 -10 4 -24
7 -31 7 -7 0 -37 18 -65 39 l-53 40 -54 -21 c-87 -32 -148 -24 -173 23 -16 28
0 44 63 65 29 9 70 30 92 45 22 15 44 27 50 25 5 -1 50 -54 99 -116z m1 -90
c33 -17 67 -30 77 -30 10 0 36 -25 59 -56 35 -45 40 -57 28 -65 -8 -5 -46 -27
-84 -48 -72 -40 -135 -95 -135 -117 0 -31 -29 -18 -185 81 -91 58 -170 105
-174 105 -10 0 -21 35 -21 71 0 44 33 64 109 64 95 0 120 -14 188 -106 32 -43
62 -79 66 -79 5 0 -7 28 -26 63 -49 88 -52 102 -28 126 28 28 55 26 126 -9z
m-1454 -30 c13 -10 18 -19 12 -20 -7 0 -13 -7 -13 -15 0 -8 -8 -28 -18 -45
l-19 -30 -11 25 c-7 15 -8 27 -2 30 14 9 12 62 -2 68 -7 3 -3 6 8 6 12 1 32
-8 45 -19z m-77 4 c22 -9 20 -41 -4 -54 -26 -14 -40 -5 -40 24 0 34 12 42 44
30z m729 -136 l4 -23 8 23 c10 29 21 28 55 -6 60 -61 66 -191 19 -459 -24
-138 -30 -198 -26 -268 4 -86 28 -175 47 -175 17 0 31 112 38 308 l7 203 233
-181 233 -181 -33 -41 c-44 -56 -147 -131 -244 -178 -222 -107 -498 -134 -704
-69 -115 37 -176 76 -241 155 -60 73 -66 77 -187 119 -7 3 39 69 120 172 72
93 132 169 133 170 1 2 23 4 49 5 l48 1 -4 53 -3 53 106 123 c107 124 153 164
221 192 33 14 37 14 43 -2 6 -15 8 -14 16 6 5 14 17 22 33 22 18 0 26 -6 29
-22z m585 -106 l152 -95 0 -81 0 -81 -32 40 c-18 22 -92 102 -165 177 -73 75
-133 139 -133 143 0 8 -3 10 178 -103z m3422 95 c0 -7 -5 -18 -12 -25 -7 -7
-18 -12 -25 -12 -17 0 -17 37 0 43 22 10 37 7 37 -6z m-3682 -64 c85 -50 187
-135 310 -256 l103 -102 -6 -45 c-15 -104 -84 -264 -110 -258 -7 2 -114 82
-238 178 l-226 175 0 80 c-1 102 15 213 34 242 22 33 60 29 133 -14z m3737
-113 c3 -5 2 -10 -4 -10 -5 0 -13 5 -16 10 -3 6 -2 10 4 10 5 0 13 -4 16 -10z
m-4532 -186 c10 -10 -12 -44 -28 -44 -18 0 -18 5 -5 31 11 19 22 24 33 13z
m10510 -211 c-7 -2 -21 -2 -30 0 -10 3 -4 5 12 5 17 0 24 -2 18 -5z m-1156
-179 c-3 -3 -12 -4 -19 -1 -8 3 -5 6 6 6 11 1 17 -2 13 -5z m-3392 -424 c33
-47 102 -96 159 -111 42 -12 188 -8 436 11 191 14 320 12 563 -11 240 -23 377
-21 480 6 75 20 124 44 108 55 -7 4 22 8 66 9 l78 2 38 -46 c47 -56 123 -96
196 -102 82 -8 248 13 463 57 240 50 313 59 306 38 -9 -21 32 -190 50 -210 14
-17 7 -18 -147 -18 -310 0 -578 -63 -851 -200 -606 -305 -996 -876 -1061
-1555 -12 -133 -6 -342 16 -470 7 -44 10 -83 6 -87 -10 -12 -293 -125 -494
-199 -110 -41 -212 -72 -246 -75 l-58 -7 1 63 c1 57 -1 64 -26 83 -23 17 -30
18 -57 7 -37 -15 -45 -38 -32 -87 16 -58 14 -70 -24 -108 -78 -77 -217 -128
-645 -236 -266 -67 -293 -72 -400 -73 -106 -1 -119 1 -175 27 -124 58 -199
130 -442 424 -215 261 -271 359 -280 493 -16 219 218 395 355 267 13 -12 35
-43 48 -69 13 -26 35 -55 49 -64 35 -23 93 -13 123 21 44 52 19 124 -63 179
-57 38 -72 66 -61 112 13 48 132 71 217 40 130 -46 245 -242 256 -437 6 -105
7 -101 -67 -304 -53 -146 -69 -211 -48 -199 60 33 86 94 122 280 13 71 28 140
33 153 l9 23 16 -24 c26 -39 102 -196 153 -313 104 -242 223 -448 225 -389 0
23 -13 49 -160 324 -160 299 -220 464 -220 605 0 94 20 126 103 165 49 24 76
30 129 30 57 0 71 -4 97 -26 30 -25 40 -57 22 -68 -14 -9 -21 -75 -11 -102 12
-31 35 -31 56 2 14 20 15 32 7 59 -9 28 -8 35 4 40 24 9 38 -9 102 -129 70
-132 125 -208 176 -244 34 -24 48 -27 191 -35 170 -10 184 -7 184 44 0 88 -39
105 -152 64 -157 -55 -219 -13 -346 241 -28 55 -62 114 -76 131 -14 17 -26 33
-26 36 0 11 74 28 270 62 113 20 234 43 270 51 130 30 176 21 290 -57 56 -38
101 -57 99 -42 -1 9 -141 132 -180 157 -15 9 -55 21 -90 27 -35 6 -74 17 -86
25 -31 19 -61 81 -71 146 -13 84 -5 99 65 128 79 32 93 45 93 86 0 40 -14 43
-75 15 -47 -21 -90 -68 -117 -128 -16 -36 -18 -57 -12 -152 l7 -110 -34 -34
c-83 -83 -427 -130 -507 -70 -60 45 -28 115 147 328 187 227 241 268 390 290
107 17 135 27 156 59 19 29 12 86 -10 86 -7 0 -43 -16 -80 -36 -62 -32 -217
-94 -237 -94 -15 0 89 193 132 244 45 54 47 62 23 88 -44 49 -94 1 -139 -135
-37 -112 -217 -372 -252 -365 -46 9 -79 121 -50 168 28 44 -32 79 -67 40 -28
-31 -22 -76 19 -154 20 -37 36 -76 36 -87 0 -40 -31 -90 -102 -166 -41 -43
-102 -114 -135 -158 -33 -44 -70 -89 -82 -99 -23 -21 -131 -36 -131 -18 0 5 9
29 20 53 24 53 25 69 6 95 -14 18 -16 18 -32 2 -9 -9 -25 -40 -35 -70 -16 -47
-21 -53 -46 -53 -28 0 -28 1 -31 65 -2 46 8 116 33 234 27 132 35 191 35 274
0 205 31 428 79 566 29 82 101 215 155 285 96 124 232 223 409 296 85 35 244
85 270 85 4 0 7 -31 7 -69 l0 -70 -47 -6 c-115 -16 -215 -56 -308 -125 -53
-39 -145 -135 -145 -152 0 -5 20 -18 45 -29 25 -11 45 -21 45 -22 0 -1 -33 -2
-74 -2 -68 0 -77 -2 -104 -28 -38 -37 -84 -137 -118 -259 l-28 -97 -58 -3
c-85 -4 -77 -22 12 -26 l76 -3 12 59 c25 123 86 274 122 307 14 12 44 16 131
18 95 2 114 5 117 18 2 11 -17 24 -67 44 l-70 28 21 29 c32 46 125 116 203
154 71 34 182 64 242 64 l33 0 -6 63 c-3 34 -7 74 -9 89 -4 26 2 31 51 37 6 0
24 -17 39 -39z m3666 -68 l226 -87 6 -245 c3 -135 4 -246 2 -248 -2 -2 -41 18
-87 46 -218 131 -468 224 -699 261 -67 11 -105 35 -80 50 22 14 -4 206 -30
222 -8 4 -11 9 -9 11 26 19 399 90 430 81 8 -2 117 -43 241 -91z m-2194 42
c-3 -3 -12 -4 -19 -1 -8 3 -5 6 6 6 11 1 17 -2 13 -5z m-6337 -1839 c77 -14
180 -46 183 -57 1 -3 -40 -56 -91 -117 -51 -62 -92 -116 -90 -121 2 -5 47 45
102 110 54 66 102 120 106 120 4 0 34 -17 66 -38 159 -103 215 -254 167 -452
l-18 -75 -118 -63 c-65 -35 -116 -66 -113 -69 2 -3 53 20 112 51 59 31 108 56
109 56 6 0 -50 -142 -75 -192 -70 -137 -137 -214 -214 -243 -45 -17 -49 -17
-76 -2 -49 29 -101 21 -218 -32 -59 -27 -143 -60 -187 -74 -127 -40 -513 -145
-595 -162 -92 -19 -226 -23 -243 -6 -29 29 48 98 302 273 74 51 186 130 249
176 81 59 118 80 125 73 17 -17 64 -13 82 6 13 12 16 27 12 55 -4 30 -1 40 13
48 25 13 39 12 20 -1 -11 -8 -12 -12 -2 -16 7 -3 12 -24 12 -54 0 -47 1 -49
28 -49 23 1 24 2 10 11 -23 13 -26 89 -3 89 8 0 15 5 15 10 0 6 -6 10 -14 10
-8 0 -17 7 -20 16 -6 15 21 30 154 87 42 17 76 49 85 77 8 26 -15 74 -39 78
-51 10 -87 -10 -184 -101 -54 -51 -123 -114 -155 -140 -52 -45 -58 -48 -72
-33 -41 41 -99 3 -93 -60 3 -37 2 -38 -95 -104 -139 -95 -473 -288 -482 -278
-6 7 124 503 155 590 34 99 82 198 127 264 l28 42 18 -24 c10 -14 28 -24 42
-24 56 0 78 74 33 113 -11 10 -19 19 -17 21 138 112 214 153 344 186 160 40
378 51 515 25z m-852 -247 c19 -19 15 -66 -7 -78 -15 -7 -23 -6 -35 6 -21 20
-20 43 1 66 19 21 25 22 41 6z m-360 -161 c12 -11 27 -39 33 -61 14 -52 6
-224 -16 -331 -18 -90 -100 -377 -118 -415 -14 -30 -89 -70 -402 -217 -126
-59 -261 -124 -300 -144 -38 -21 -98 -45 -132 -55 -57 -16 -64 -16 -87 -1 -44
29 -42 106 5 199 37 73 227 354 287 425 75 89 94 141 69 185 l-17 30 92 93
c99 98 246 212 342 266 110 61 196 71 244 26z m3432 -42 c80 -7 175 -23 211
-34 113 -35 199 -119 224 -218 16 -62 5 -104 -39 -153 -20 -22 -36 -49 -36
-59 0 -11 -9 -35 -19 -53 -11 -18 -31 -78 -46 -133 -29 -110 -70 -199 -161
-350 -34 -55 -81 -136 -105 -179 -24 -44 -63 -100 -86 -125 -53 -58 -67 -47
-58 47 4 50 1 76 -19 135 -55 157 -67 250 -41 300 19 36 6 64 -33 73 -15 3
-37 10 -50 15 -63 25 -125 6 -229 -70 -117 -84 -199 -130 -291 -161 -93 -31
-357 -80 -432 -80 -90 0 -243 56 -396 146 -44 26 -44 26 -44 83 0 124 47 293
109 388 66 102 153 146 400 203 181 42 244 63 385 129 229 106 415 130 756 96z
m-2804 -317 c7 -10 -41 -58 -58 -58 -10 0 -10 32 -2 54 7 19 49 21 60 4z m140
-43 c-8 -31 -31 -42 -52 -25 -13 12 -11 17 13 42 31 32 49 24 39 -17z m3267
-12 c69 -54 313 -283 360 -339 58 -69 95 -130 103 -170 8 -41 -25 -81 -74 -89
-86 -14 -106 -43 -77 -111 21 -51 53 -84 82 -84 23 0 35 14 96 110 18 27 30
35 52 35 24 0 32 -7 51 -45 35 -71 74 -243 74 -326 0 -92 -14 -159 -53 -253
l-30 -74 -61 5 c-34 3 -126 27 -206 53 -113 37 -163 49 -225 51 -84 4 -86 2
-20 -15 l41 -11 -4 -67 c-3 -45 -9 -74 -20 -85 -10 -9 -62 -46 -117 -82 l-99
-65 -46 33 c-104 76 -296 178 -403 215 -62 21 -129 46 -150 55 -44 19 -53 -5
81 221 134 227 329 518 398 596 33 37 101 106 152 155 51 48 92 96 92 106 0
10 -11 45 -25 78 -24 58 -34 130 -16 130 4 0 24 -12 44 -27z m-2589 -370 c-22
-103 -74 -255 -119 -350 -53 -111 -167 -291 -191 -300 -7 -2 -72 5 -144 16
-71 12 -132 21 -135 21 -2 0 67 118 153 262 l158 262 39 2 c22 1 51 -3 64 -8
28 -10 44 1 78 57 31 49 50 65 80 65 20 0 23 -4 17 -27z m4767 -354 l207 -324
-227 -112 c-124 -61 -233 -112 -241 -112 -8 0 -69 45 -135 101 -66 55 -185
144 -264 196 -215 141 -291 222 -276 293 7 31 47 69 91 87 176 69 403 147 459
158 38 7 90 20 115 28 25 7 49 13 55 12 5 -2 103 -149 216 -327z m-3054 192
c42 -49 94 -161 109 -232 12 -57 13 -87 4 -150 -10 -73 -61 -273 -72 -285 -3
-3 -21 2 -39 10 -19 9 -106 42 -194 75 -206 76 -260 100 -335 151 -34 23 -91
52 -128 65 -66 22 -201 94 -202 106 0 8 5 9 220 65 195 50 254 74 344 138 110
78 159 97 226 89 32 -4 51 -13 67 -32z m-1375 -185 c35 -13 104 -44 153 -69
50 -25 127 -59 171 -76 87 -34 184 -92 223 -134 16 -17 29 -53 41 -109 9 -46
20 -90 24 -99 6 -13 2 -16 -16 -12 -13 2 -182 28 -377 58 -229 35 -357 58
-363 67 -22 35 -32 104 -33 231 0 126 2 140 19 153 29 21 87 17 158 -10z
m-435 -298 c6 -7 13 -20 16 -29 5 -15 0 -16 -36 -11 -23 2 -51 8 -62 12 -18 6
-17 8 10 23 36 20 59 21 72 5z m1279 -106 c130 -64 211 -94 379 -142 76 -22
140 -41 142 -44 13 -13 -213 -424 -252 -456 -32 -26 -89 37 -191 211 -115 195
-119 205 -119 287 0 65 -3 76 -24 93 -13 10 -30 19 -37 19 -14 0 -34 38 -34
66 0 24 33 16 136 -34z m710 -236 c148 -45 270 -94 389 -154 156 -79 154 -69
33 -136 -164 -91 -545 -275 -624 -302 -94 -31 -128 -31 -161 2 -21 21 -24 32
-20 62 4 27 263 560 273 562 1 0 50 -15 110 -34z"/>
<path d="M8567 8183 c-2 -5 -1 -19 4 -33 7 -23 7 -23 8 8 1 31 -3 40 -12 25z"/>
<path d="M3921 7986 c-16 -20 -17 -72 -1 -91 14 -17 80 -21 80 -4 0 6 -9 8
-20 4 -23 -7 -50 10 -50 30 0 8 12 12 36 10 40 -2 52 12 34 44 -13 25 -61 29
-79 7z m57 -8 c19 -19 14 -28 -18 -28 -16 0 -30 4 -30 8 0 9 21 32 30 32 3 0
11 -5 18 -12z"/>
<path d="M4040 7953 c0 -64 8 -73 58 -71 l42 1 0 59 c0 32 -4 58 -10 58 -5 0
-10 -18 -10 -39 0 -47 -24 -78 -46 -60 -8 7 -14 30 -14 55 0 24 -4 44 -10 44
-5 0 -10 -21 -10 -47z"/>
<path d="M4178 7940 c4 -70 22 -82 22 -14 0 37 4 47 20 51 11 3 20 9 20 14 0
13 -24 11 -38 -3 -9 -9 -12 -9 -12 0 0 7 -3 12 -7 12 -5 0 -6 -27 -5 -60z"/>
<path d="M4680 7938 c0 -70 18 -78 22 -10 3 43 5 47 28 47 23 0 25 -4 28 -47
4 -63 22 -62 22 1 0 58 -14 72 -64 69 l-36 -3 0 -57z"/>
<path d="M10540 7900 c0 -5 5 -10 11 -10 5 0 7 5 4 10 -3 6 -8 10 -11 10 -2 0
-4 -4 -4 -10z"/>
<path d="M9974 7848 c14 -20 14 -24 1 -45 -9 -13 -11 -23 -6 -23 6 0 15 8 21
18 10 16 10 16 20 0 6 -10 15 -18 21 -18 5 0 3 10 -6 23 -13 21 -13 25 1 45 8
12 11 22 5 22 -5 0 -15 -8 -21 -17 -10 -17 -10 -17 -20 0 -6 9 -16 17 -21 17
-6 0 -3 -10 5 -22z"/>
<path d="M10062 7858 c-13 -13 -15 -37 -6 -62 10 -26 63 -21 73 7 18 49 -32
90 -67 55z m48 -13 c14 -17 4 -55 -14 -55 -25 0 -39 27 -26 49 13 25 23 26 40
6z"/>
<path d="M10160 7862 c0 -5 7 -9 16 -8 26 2 28 -22 2 -26 -15 -2 -23 -10 -23
-23 0 -15 8 -21 33 -23 l33 -3 -3 43 c-3 39 -6 43 -30 46 -16 2 -28 -1 -28 -6z
m44 -57 c-4 -8 -12 -15 -20 -15 -8 0 -14 7 -14 15 0 8 9 15 20 15 13 0 18 -5
14 -15z"/>
<path d="M10252 7848 c14 -20 14 -25 1 -45 -9 -13 -11 -23 -5 -23 5 0 13 8 17
18 6 16 7 16 21 -2 18 -25 29 -14 12 13 -10 16 -10 23 0 33 20 20 13 32 -8 13
-18 -16 -20 -16 -26 -1 -3 9 -11 16 -16 16 -6 0 -4 -10 4 -22z"/>
<path d="M10337 7849 c-23 -31 -8 -63 31 -67 27 -3 32 1 38 24 13 53 -40 86
-69 43z m52 -6 c11 -21 -3 -53 -24 -53 -19 0 -29 38 -15 55 16 20 27 19 39 -2z"/>
<path d="M9960 7480 c0 -53 4 -90 10 -90 6 0 10 37 10 90 0 53 -4 90 -10 90
-6 0 -10 -37 -10 -90z"/>
<path d="M10163 7558 c-23 -37 -31 -58 -22 -63 5 -4 9 -28 9 -56 0 -27 5 -49
10 -49 6 0 10 24 10 54 0 44 4 55 18 59 16 4 16 5 0 6 -26 2 -24 41 2 41 11 0
20 5 20 10 0 14 -37 12 -47 -2z"/>
<path d="M10224 7528 c-10 -15 -6 -82 6 -113 9 -24 50 -36 50 -15 0 6 -7 10
-15 10 -23 0 -21 87 3 93 16 4 16 5 0 6 -10 0 -18 8 -18 16 0 18 -16 20 -26 3z"/>
<path d="M9890 7512 c-49 -15 -66 -74 -32 -105 20 -18 72 -23 72 -7 0 6 -10
10 -23 10 -45 0 -62 43 -31 75 10 9 25 14 35 12 11 -3 19 -2 19 3 0 11 -22 18
-40 12z"/>
<path d="M10050 7513 c-41 -15 -54 -78 -22 -106 20 -19 67 -23 77 -7 4 6 -6
10 -22 10 -28 0 -53 15 -53 32 0 4 21 8 46 8 42 0 45 1 39 23 -7 21 -32 48
-44 46 -3 0 -13 -3 -21 -6z m38 -36 c3 -12 -3 -17 -21 -17 -31 0 -40 10 -25
27 15 18 42 12 46 -10z"/>
<path d="M9766 7313 l-28 -48 36 34 c20 19 36 41 36 48 0 25 -15 13 -44 -34z"/>
<path d="M10156 7182 c-3 -6 -1 -14 5 -17 15 -10 25 3 12 16 -7 7 -13 7 -17 1z"/>
<path d="M10472 7105 c2 -48 7 -85 13 -85 6 0 11 37 13 85 2 72 0 85 -13 85
-13 0 -15 -13 -13 -85z"/>
<path d="M9869 7136 c-2 -2 -2 -32 -1 -65 4 -70 22 -73 22 -4 0 36 4 46 20 50
11 3 20 9 20 14 0 13 -28 11 -36 -2 -5 -8 -8 -8 -13 0 -4 6 -9 9 -12 7z"/>
<path d="M9950 7082 c0 -73 17 -84 22 -14 3 39 6 47 23 47 17 0 21 -8 25 -48
3 -26 10 -47 15 -47 6 0 12 21 15 47 4 40 8 48 25 48 17 0 20 -8 23 -47 2 -27
8 -48 13 -48 6 0 9 22 7 51 -3 60 -24 82 -58 61 -16 -9 -24 -10 -39 0 -15 9
-23 9 -33 0 -11 -9 -17 -9 -26 0 -9 9 -12 -2 -12 -50z"/>
<path d="M10160 7080 c0 -33 4 -60 10 -60 6 0 10 27 10 60 0 33 -4 60 -10 60
-6 0 -10 -27 -10 -60z"/>
<path d="M10219 7135 c-1 -5 -2 -34 -3 -62 -1 -69 22 -73 26 -6 2 37 7 49 22
51 24 5 36 -14 36 -60 0 -21 5 -38 10 -38 17 0 12 87 -6 104 -18 19 -50 21
-60 5 -4 -8 -9 -7 -15 2 -5 8 -9 10 -10 4z"/>
<path d="M10361 7131 c-11 -7 -6 -10 19 -13 39 -4 54 -28 18 -28 -30 0 -48
-17 -48 -46 0 -25 24 -38 48 -25 9 4 23 6 30 4 15 -6 17 69 2 98 -11 20 -45
25 -69 10z m59 -64 c0 -17 -20 -37 -37 -37 -17 0 -17 37 0 43 22 10 37 7 37
-6z"/>
<path d="M10250 6410 c0 -5 7 -10 15 -10 8 0 15 5 15 10 0 6 -7 10 -15 10 -8
0 -15 -4 -15 -10z"/>
<path d="M10000 6317 c0 -38 4 -67 10 -67 6 0 10 20 10 44 0 46 19 72 45 62
11 -4 15 -20 15 -56 0 -27 5 -50 10 -50 6 0 10 25 10 55 0 44 -4 56 -20 65
-13 7 -26 7 -38 1 -13 -7 -23 -6 -30 1 -9 9 -12 -4 -12 -55z"/>
<path d="M10125 6359 c14 -43 44 -109 50 -109 7 0 55 106 55 122 0 24 -27 -13
-40 -54 l-13 -43 -17 49 c-9 28 -22 52 -29 54 -10 3 -11 -2 -6 -19z"/>
<path d="M10255 6368 c-9 -24 -1 -113 10 -111 14 4 19 103 6 116 -7 7 -12 5
-16 -5z"/>
<path d="M10337 6369 c-63 -37 -16 -143 50 -113 14 6 10 9 -17 13 -22 4 -36
12 -38 24 -3 14 4 17 37 17 33 0 41 4 41 18 0 19 -29 52 -46 52 -5 0 -17 -5
-27 -11z m51 -26 c2 -9 -7 -13 -27 -13 -30 0 -39 9 -24 24 11 10 46 3 51 -11z"/>
<path d="M10440 6317 c0 -38 4 -67 10 -67 6 0 10 20 10 44 0 35 5 48 22 60 12
9 19 19 15 22 -4 4 -13 2 -20 -4 -10 -9 -17 -8 -25 0 -9 9 -12 -4 -12 -55z"/>
<path d="M2112 7045 c3 -93 20 -115 28 -38 4 40 8 48 25 48 17 0 21 -8 25 -49
3 -30 11 -51 19 -54 11 -4 13 6 9 48 -6 60 -28 86 -59 70 -25 -14 -25 -14 -21
25 3 27 1 35 -12 35 -15 0 -16 -12 -14 -85z"/>
<path d="M2310 7035 l0 -85 45 0 c25 0 45 5 45 10 0 6 -16 10 -35 10 -32 0
-35 2 -35 30 0 27 3 30 30 30 17 0 30 5 30 10 0 6 -13 10 -30 10 -25 0 -30 4
-30 25 0 22 4 25 35 25 19 0 35 5 35 10 0 6 -20 10 -45 10 l-45 0 0 -85z"/>
<path d="M2430 7035 c0 -50 4 -85 10 -85 6 0 10 18 10 40 0 28 4 40 14 40 20
0 46 -28 46 -50 0 -19 17 -36 26 -27 3 3 -2 22 -11 43 -10 25 -12 41 -5 48 14
14 13 49 -2 64 -7 7 -29 12 -50 12 l-38 0 0 -85z m66 61 c15 -12 17 -18 8 -33
-6 -10 -21 -19 -33 -21 -17 -3 -21 2 -21 26 0 44 13 52 46 28z"/>
<path d="M1992 7065 c-51 -37 -8 -135 47 -105 24 12 27 2 8 -25 -10 -12 -22
-16 -41 -13 -17 4 -25 1 -23 -6 5 -17 50 -19 72 -3 15 12 20 30 23 85 4 64 2
71 -14 70 -11 0 -26 2 -34 6 -8 3 -25 -1 -38 -9z m59 -29 c20 -43 -18 -85 -49
-54 -25 25 -8 78 25 78 7 0 18 -11 24 -24z"/>
<path d="M1840 7019 c6 -60 27 -82 60 -61 12 7 20 8 20 2 0 -5 5 -10 10 -10 6
0 10 27 10 60 0 43 -4 60 -13 60 -9 0 -12 -11 -9 -32 4 -40 -18 -74 -42 -65
-11 5 -16 19 -16 52 0 30 -4 45 -13 45 -9 0 -11 -14 -7 -51z"/>
<path d="M1980 6805 c0 -37 4 -65 10 -65 6 0 10 28 10 65 0 37 -4 65 -10 65
-6 0 -10 -28 -10 -65z"/>
<path d="M1913 6813 c-4 -10 2 -22 15 -33 24 -19 19 -30 -12 -30 -18 -1 -19
-2 -4 -10 9 -6 23 -7 32 -4 23 9 20 41 -4 54 -23 12 -18 32 5 23 8 -3 15 0 15
6 0 17 -40 13 -47 -6z"/>
<path d="M5777 6569 c-22 -11 -36 -23 -33 -26 5 -5 76 35 76 43 0 6 -1 5 -43
-17z"/>
<path d="M9633 6418 c-22 -34 -31 -58 -22 -58 5 0 9 -25 9 -55 0 -30 5 -55 10
-55 6 0 10 24 10 54 0 44 4 55 18 59 16 4 16 5 0 6 -26 2 -22 36 5 49 l22 11
-22 0 c-12 1 -25 -5 -30 -11z"/>
<path d="M9323 6370 c-27 -11 -39 -53 -25 -85 12 -27 52 -42 79 -29 15 6 12 9
-12 12 -66 9 -74 42 -10 42 51 0 59 16 25 50 -22 22 -25 23 -57 10z m51 -25
c4 -12 -3 -15 -31 -15 -30 0 -34 2 -23 15 7 8 20 15 30 15 10 0 20 -7 24 -15z"/>
<path d="M9503 6370 c-41 -17 -42 -89 -1 -111 30 -16 64 -3 78 30 13 33 2 64
-30 81 -21 11 -18 11 -47 0z m56 -32 c12 -33 -2 -63 -29 -63 -32 0 -47 27 -32
59 15 33 49 35 61 4z"/>
<path d="M5757 5934 c-4 -4 -7 -43 -7 -86 0 -65 3 -78 16 -78 13 0 15 7 11 30
-6 28 -5 29 17 19 48 -22 92 33 68 86 -13 28 -44 40 -71 26 -13 -8 -20 -8 -23
0 -2 6 -7 7 -11 3z m84 -35 c16 -31 -4 -71 -34 -67 -39 5 -37 88 2 88 11 0 25
-10 32 -21z"/>
<path d="M5902 5928 c-19 -19 -14 -36 13 -54 14 -9 25 -23 25 -31 0 -11 -7
-14 -25 -11 -25 5 -34 -5 -14 -17 17 -11 56 3 64 22 4 13 -3 26 -24 44 -32 26
-32 39 1 39 11 0 16 5 13 10 -8 14 -38 13 -53 -2z"/>
<path d="M6007 5922 c-44 -48 0 -124 60 -106 l28 8 -30 4 c-62 8 -74 42 -15
42 33 0 40 3 40 19 0 24 -26 51 -49 51 -10 0 -25 -8 -34 -18z m61 -19 c2 -9
-7 -13 -27 -13 -30 0 -39 9 -24 24 11 10 46 3 51 -11z"/>
<path d="M6010 5739 c0 -5 5 -7 10 -4 6 3 10 8 10 11 0 2 -4 4 -10 4 -5 0 -10
-5 -10 -11z"/>
<path d="M6136 5735 c5 -11 8 -38 8 -60 0 -22 -3 -49 -8 -60 -8 -20 -7 -20 8
-1 9 11 16 38 16 61 0 23 -7 50 -16 61 -15 19 -16 19 -8 -1z"/>
<path d="M5942 5715 c-7 -8 -8 -15 -3 -15 5 0 11 -17 13 -37 2 -29 8 -39 23
-41 16 -3 18 -1 8 9 -16 16 -17 69 -2 69 6 0 4 7 -5 15 -18 18 -18 18 -34 0z"/>
<path d="M5869 5709 c-11 -7 -9 -9 9 -9 12 0 22 -3 22 -8 0 -4 -10 -12 -22
-17 -13 -6 -23 -19 -23 -30 0 -16 7 -20 33 -20 30 -1 32 1 32 37 0 41 -24 64
-51 47z m31 -53 c0 -16 -18 -31 -27 -22 -8 8 5 36 17 36 5 0 10 -6 10 -14z"/>
<path d="M6073 5709 c-26 -9 -32 -56 -11 -77 15 -15 48 -16 48 -1 0 5 -4 8 -9
5 -4 -3 -16 0 -26 8 -25 18 -11 54 23 58 18 2 22 5 12 9 -8 4 -25 3 -37 -2z"/>
<path d="M6011 5663 c1 -53 6 -49 11 10 2 20 0 37 -4 37 -4 0 -8 -21 -7 -47z"/>
<path d="M9087 6812 c-28 -29 -33 -42 -18 -42 11 0 55 59 49 65 -3 3 -17 -8
-31 -23z"/>
<path d="M1480 5573 c-10 -12 -11 -18 -2 -21 7 -2 12 -23 12 -53 0 -47 1 -49
28 -49 23 1 24 2 10 11 -23 13 -26 89 -3 89 8 0 15 5 15 10 0 6 -7 10 -15 10
-8 0 -15 5 -15 10 0 15 -13 12 -30 -7z"/>
<path d="M1280 5510 c0 -33 4 -60 10 -60 6 0 10 16 10 35 0 22 8 43 21 56 23
23 18 39 -6 19 -10 -8 -15 -9 -15 -1 0 6 -4 11 -10 11 -6 0 -10 -27 -10 -60z"/>
<path d="M1365 5561 c-3 -5 9 -11 27 -13 40 -4 39 -20 -1 -31 -31 -8 -44 -28
-35 -52 4 -11 19 -15 50 -13 l44 1 0 39 c0 55 -15 78 -50 78 -16 0 -31 -4 -35
-9z m63 -67 c-5 -26 -37 -42 -48 -24 -11 18 6 40 32 40 13 0 18 -6 16 -16z"/>
<path d="M1560 5536 c0 -19 4 -46 10 -60 8 -23 14 -25 55 -24 l46 2 -3 55 c-4
73 -28 83 -28 12 0 -28 -4 -52 -10 -52 -32 -5 -35 -1 -40 45 -6 59 -30 76 -30
22z"/>
<path d="M1713 5563 c-22 -8 -14 -40 14 -61 29 -21 24 -47 -8 -39 -11 3 -19 1
-19 -5 0 -5 15 -8 33 -6 43 4 50 39 13 64 -33 21 -33 34 0 34 14 0 23 4 19 10
-6 10 -31 12 -52 3z"/>
<path d="M7450 4240 c0 -69 3 -91 13 -87 7 2 11 16 9 36 -4 37 12 61 39 61 16
0 19 -8 19 -50 0 -38 4 -50 15 -50 18 0 21 54 5 96 -9 24 -14 26 -46 21 -35
-6 -35 -5 -32 25 2 19 -2 33 -9 35 -10 4 -13 -18 -13 -87z"/>
<path d="M7650 4240 c0 -53 4 -90 10 -90 6 0 10 37 10 90 0 53 -4 90 -10 90
-6 0 -10 -37 -10 -90z"/>
<path d="M7710 4240 c0 -53 4 -90 10 -90 6 0 10 37 10 90 0 53 -4 90 -10 90
-6 0 -10 -37 -10 -90z"/>
<path d="M8020 4240 c0 -53 4 -90 10 -90 6 0 10 11 10 25 0 32 9 32 36 -2 30
-38 42 -23 13 16 l-23 31 24 25 c18 20 20 25 8 25 -9 0 -26 -12 -37 -27 l-20
-28 -1 58 c0 31 -4 57 -10 57 -6 0 -10 -37 -10 -90z"/>
<path d="M6881 4248 c-13 -40 -26 -79 -28 -85 -3 -7 0 -13 6 -13 6 0 13 11 17
25 5 20 12 25 40 25 28 0 35 -5 40 -25 3 -14 12 -25 19 -25 19 0 -37 164 -56
168 -10 2 -22 -20 -38 -70z m53 -5 c6 -20 4 -23 -17 -23 -24 0 -25 1 -14 35
11 36 17 34 31 -12z"/>
<path d="M7592 4311 c4 -13 18 -16 19 -4 0 4 -5 9 -11 12 -7 2 -11 -2 -8 -8z"/>
<path d="M7019 4242 c20 -28 20 -28 -1 -60 -23 -36 -8 -44 17 -9 l16 22 19
-25 c24 -32 37 -20 14 15 -16 25 -16 28 0 56 20 33 5 40 -18 8 l-14 -21 -14
21 c-7 11 -19 21 -26 21 -10 0 -8 -8 7 -28z"/>
<path d="M7136 4254 c-36 -35 -10 -104 39 -104 46 0 70 53 45 101 -13 23 -62
26 -84 3z m74 -44 c0 -34 -26 -53 -53 -39 -22 13 -22 65 0 78 27 14 53 -5 53
-39z"/>
<path d="M7260 4208 c0 -32 4 -58 10 -58 6 0 10 18 10 39 0 43 22 74 45 65 10
-4 15 -21 15 -55 0 -28 5 -49 10 -49 7 0 10 22 8 58 l-3 57 -47 1 -48 1 0 -59z"/>
<path d="M7590 4210 c0 -33 4 -60 10 -60 6 0 10 27 10 60 0 33 -4 60 -10 60
-6 0 -10 -27 -10 -60z"/>
<path d="M7777 4252 c-38 -42 -6 -107 50 -100 65 7 63 110 -3 116 -20 2 -36
-3 -47 -16z m61 -4 c19 -19 15 -66 -7 -78 -39 -20 -68 41 -35 74 19 19 26 20
42 4z"/>
<path d="M7916 4254 c-9 -8 -16 -28 -16 -44 0 -16 7 -36 16 -44 17 -18 74 -22
74 -6 0 6 -13 10 -29 10 -33 0 -47 25 -36 60 6 19 22 25 53 21 6 -1 12 3 12 9
0 16 -57 12 -74 -6z"/>
<path d="M1754 2645 c-4 -8 -4 -24 -1 -34 4 -15 -1 -18 -31 -17 -30 1 -39 -4
-50 -26 -25 -53 31 -113 74 -78 10 9 14 9 14 1 0 -6 5 -11 10 -11 6 0 10 37
10 90 0 55 -4 90 -10 90 -6 0 -13 -7 -16 -15z m-16 -64 c8 -5 12 -22 10 -42
-2 -29 -7 -34 -28 -34 -20 0 -26 6 -28 28 -2 16 2 35 9 43 13 16 19 17 37 5z"/>
<path d="M1895 2640 c-3 -5 1 -10 9 -10 9 0 16 5 16 10 0 6 -4 10 -9 10 -6 0
-13 -4 -16 -10z"/>
<path d="M1530 2537 c0 -42 3 -58 12 -55 8 3 12 18 10 40 -3 37 20 72 42 65 6
-2 12 -27 14 -55 2 -37 7 -52 18 -52 17 0 19 55 4 94 -8 23 -14 25 -55 24
l-45 -2 0 -59z"/>
<path d="M1810 2538 c0 -32 4 -58 10 -58 6 0 10 16 10 35 0 22 8 43 20 55 26
26 26 27 -10 27 -30 0 -30 -1 -30 -59z"/>
<path d="M1900 2540 c0 -33 4 -60 10 -60 6 0 10 27 10 60 0 33 -4 60 -10 60
-6 0 -10 -27 -10 -60z"/>
<path d="M1962 2588 c-17 -17 -15 -74 4 -92 37 -37 94 -8 94 48 0 40 -15 56
-55 56 -17 0 -36 -5 -43 -12z m66 -10 c31 -31 -2 -97 -39 -78 -33 18 -20 90
16 90 6 0 16 -5 23 -12z"/>
<path d="M2090 2539 c0 -33 4 -59 10 -59 6 0 10 18 10 39 0 43 22 74 45 65 10
-4 15 -21 15 -55 0 -28 5 -49 10 -49 7 0 10 22 8 58 l-3 57 -47 1 -48 2 0 -59z"/>
<path d="M2016 2143 c-3 -3 -6 -44 -6 -90 0 -62 3 -83 13 -83 9 0 12 9 9 29
-5 37 13 71 38 71 17 0 20 -7 20 -50 0 -40 3 -50 16 -50 14 0 16 8 11 50 -8
67 -13 73 -54 67 -34 -6 -35 -5 -31 24 5 29 -3 45 -16 32z"/>
<path d="M1336 2121 c-23 -26 -17 -53 15 -68 15 -7 32 -20 40 -29 11 -14 10
-18 -5 -30 -11 -8 -30 -11 -43 -8 -14 4 -23 2 -23 -5 0 -6 17 -11 40 -11 70 0
80 62 14 93 -45 22 -43 51 4 55 18 2 30 8 27 13 -10 16 -51 10 -69 -10z"/>
<path d="M2210 2055 l0 -85 45 0 c25 0 45 5 45 10 0 6 -16 10 -35 10 -32 0
-35 2 -35 30 0 27 3 30 30 30 17 0 30 4 30 8 0 5 -13 7 -30 4 -28 -4 -30 -2
-30 27 0 29 2 31 36 31 21 0 33 4 29 10 -3 6 -24 10 -46 10 l-39 0 0 -85z"/>
<path d="M2337 2133 c-11 -11 -8 -163 3 -163 6 0 10 16 10 36 0 31 3 35 23 32
15 -2 25 -13 32 -35 5 -18 15 -33 21 -33 15 0 1 60 -16 70 -7 5 -6 11 5 20 25
20 19 59 -11 70 -29 12 -58 13 -67 3z m68 -43 c0 -20 -6 -26 -27 -28 -25 -3
-28 0 -28 28 0 28 3 31 28 28 21 -2 27 -8 27 -28z"/>
<path d="M1450 2028 c0 -70 18 -78 22 -10 3 40 6 47 26 50 20 3 22 0 22 -47 0
-35 4 -51 13 -51 9 0 11 12 9 38 -3 26 1 42 12 51 28 23 46 6 46 -44 0 -25 5
-45 11 -45 6 0 9 20 7 51 -4 61 -24 82 -59 61 -16 -10 -24 -11 -29 -3 -3 6
-23 10 -43 9 l-37 -3 0 -57z"/>
<path d="M6 9129 c-3 -34 -6 -90 -6 -124 l0 -62 73 -74 c57 -58 83 -96 120
-169 25 -52 54 -122 64 -155 12 -37 24 -60 33 -60 27 0 16 69 -20 127 -18 29
-73 125 -123 213 -123 221 -124 279 -3 196 68 -45 165 -182 193 -268 16 -51
16 -59 -5 -186 -23 -136 -27 -199 -11 -137 5 19 26 86 46 148 45 140 43 151
-65 295 -81 108 -117 176 -128 245 -9 55 -28 42 -21 -14 2 -24 1 -44 -3 -44
-17 0 -91 62 -113 95 l-24 35 -7 -61z"/>
<path d="M5040 8602 l0 -89 41 -1 c53 -2 69 11 69 58 0 46 -20 65 -60 56 -29
-5 -30 -4 -30 29 0 19 -4 35 -10 35 -6 0 -10 -36 -10 -88z m90 -32 c0 -38 -31
-57 -54 -34 -33 33 -4 94 35 74 12 -7 19 -21 19 -40z"/>
<path d="M5320 8600 c0 -53 4 -90 10 -90 6 0 10 37 10 90 0 53 -4 90 -10 90
-6 0 -10 -37 -10 -90z"/>
<path d="M2266 8673 c-3 -3 -6 -18 -6 -32 0 -23 -4 -26 -32 -26 -24 0 -36 -6
-47 -27 -14 -25 -14 -31 -1 -55 14 -24 22 -28 63 -29 l47 -1 0 83 c0 76 -7
103 -24 87z m-8 -109 c3 -34 -17 -58 -41 -48 -38 14 -24 88 16 82 16 -2 23
-11 25 -34z"/>
<path d="M4432 8671 c4 -13 18 -16 19 -4 0 4 -5 9 -11 12 -7 2 -11 -2 -8 -8z"/>
<path d="M1750 8585 l0 -85 45 0 c50 0 80 21 91 65 15 59 -33 105 -107 105
l-29 0 0 -85z m94 49 c17 -16 21 -70 8 -91 -10 -15 -61 -35 -73 -27 -5 3 -9
34 -9 70 l0 64 29 0 c16 0 37 -7 45 -16z"/>
<path d="M2406 8661 c-4 -5 -2 -12 3 -15 5 -4 12 -2 15 3 4 5 2 12 -3 15 -5 4
-12 2 -15 -3z"/>
<path d="M4830 8646 c0 -8 -6 -17 -12 -19 -10 -4 -10 -7 -1 -14 6 -5 13 -28
15 -53 2 -36 7 -46 23 -48 26 -5 59 -35 106 -99 37 -49 39 -56 39 -125 l0 -74
45 -2 c36 -1 47 3 60 20 32 47 2 106 -49 96 -22 -4 -25 -1 -28 26 -2 23 -7 30
-20 28 -13 -2 -19 7 -24 36 -3 22 -12 39 -19 39 -7 0 -35 17 -63 39 -45 34
-51 43 -52 77 0 26 4 37 15 37 8 0 15 5 15 10 0 6 -7 10 -15 10 -8 0 -15 7
-15 15 0 8 -4 15 -10 15 -5 0 -10 -6 -10 -14z m260 -357 c9 -16 8 -26 -5 -45
-17 -27 -26 -29 -43 -12 -13 13 -16 60 -5 71 13 14 43 6 53 -14z"/>
<path d="M2470 8636 c0 -8 -6 -17 -12 -19 -10 -4 -10 -7 -1 -14 6 -5 13 -29
15 -53 3 -40 6 -45 28 -48 22 -2 23 -1 8 8 -23 14 -26 90 -3 90 8 0 15 5 15
10 0 6 -7 10 -15 10 -8 0 -15 7 -15 15 0 8 -4 15 -10 15 -5 0 -10 -6 -10 -14z"/>
<path d="M4430 8570 c0 -33 4 -60 10 -60 6 0 10 27 10 60 0 33 -4 60 -10 60
-6 0 -10 -27 -10 -60z"/>
<path d="M4509 8620 c-25 -15 -32 -58 -14 -86 11 -18 25 -24 51 -24 22 0 33 4
29 11 -4 6 -13 8 -21 5 -15 -6 -54 26 -54 44 0 18 39 50 55 44 8 -4 15 -1 15
5 0 13 -39 14 -61 1z"/>
<path d="M4900 8589 c0 -63 14 -80 60 -77 l40 3 0 58 c0 69 -18 77 -22 10 -2
-37 -7 -49 -22 -51 -24 -5 -36 14 -36 61 0 20 -4 37 -10 37 -5 0 -10 -18 -10
-41z"/>
<path d="M5180 8589 c0 -63 13 -79 63 -77 l42 2 -3 58 c-4 70 -20 77 -24 11
-2 -37 -7 -49 -22 -51 -24 -5 -36 14 -36 61 0 20 -4 37 -10 37 -5 0 -10 -18
-10 -41z"/>
<path d="M5386 8608 c-21 -30 -20 -61 2 -81 20 -18 82 -23 82 -8 0 5 -14 9
-31 9 -28 -1 -48 14 -49 35 0 4 20 7 45 7 25 0 45 3 45 8 0 20 -34 52 -55 52
-13 0 -31 -10 -39 -22z m64 -8 c10 -18 8 -20 -25 -20 -38 0 -46 13 -17 29 24
15 30 14 42 -9z"/>
<path d="M1927 8602 c-21 -23 -22 -66 -1 -86 17 -18 84 -22 84 -5 0 6 -8 8
-20 4 -21 -7 -60 10 -60 25 0 6 18 10 40 10 35 0 40 3 40 23 0 46 -52 64 -83
29z m47 2 c28 -11 18 -34 -14 -34 -32 0 -37 9 -18 28 14 14 12 14 32 6z"/>
<path d="M2040 8560 c0 -71 16 -80 22 -12 5 51 1 72 -13 72 -5 0 -9 -27 -9
-60z"/>
<path d="M2075 8611 c-3 -5 5 -11 17 -13 20 -3 23 -10 26 -50 2 -29 8 -48 15
-48 15 0 10 88 -5 108 -12 14 -44 16 -53 3z"/>
<path d="M2320 8560 c0 -33 4 -60 10 -60 6 0 10 18 10 39 0 30 6 44 22 55 12
9 19 19 15 22 -4 4 -13 1 -22 -6 -10 -8 -15 -9 -15 -1 0 6 -4 11 -10 11 -6 0
-10 -27 -10 -60z"/>
<path d="M2400 8560 c0 -47 3 -60 15 -60 12 0 15 13 15 60 0 47 -3 60 -15 60
-12 0 -15 -13 -15 -60z"/>
<path d="M2556 8604 c-19 -18 -21 -75 -4 -92 14 -14 78 -16 78 -2 0 5 -6 7
-14 4 -18 -7 -56 13 -56 29 0 9 13 11 40 9 32 -3 40 -1 40 13 0 49 -51 73 -84
39z m52 -6 c19 -19 14 -28 -18 -28 -16 0 -30 4 -30 8 0 9 21 32 30 32 3 0 11
-5 18 -12z"/>
<path d="M2670 8601 c-8 -16 -5 -24 21 -44 36 -28 31 -52 -7 -43 -14 4 -24 2
-24 -4 0 -5 15 -10 34 -10 49 0 60 35 21 66 -28 22 -27 48 0 37 8 -3 15 0 15
6 0 19 -49 12 -60 -8z"/>
<path d="M5290 8300 c0 -53 4 -90 10 -90 6 0 10 37 10 90 0 53 -4 90 -10 90
-6 0 -10 -37 -10 -90z"/>
<path d="M4945 8371 c-6 -11 9 -23 19 -14 9 9 7 23 -3 23 -6 0 -12 -4 -16 -9z"/>
<path d="M5230 8365 c0 -8 5 -15 10 -15 6 0 10 7 10 15 0 8 -4 15 -10 15 -5 0
-10 -7 -10 -15z"/>
<path d="M4520 8283 c0 -64 8 -72 58 -70 l42 1 0 58 c0 32 -4 58 -10 58 -5 0
-10 -17 -10 -37 0 -47 -12 -66 -36 -61 -15 2 -20 14 -22 51 -4 61 -22 61 -22
0z"/>
<path d="M4654 8308 c3 -13 6 -40 6 -60 0 -21 5 -38 10 -38 6 0 10 20 10 44 0
34 5 47 23 59 16 12 18 16 7 16 -9 1 -21 -4 -28 -11 -9 -9 -12 -9 -12 0 0 7
-5 12 -11 12 -7 0 -9 -9 -5 -22z"/>
<path d="M4950 8270 c0 -33 4 -60 10 -60 6 0 10 27 10 60 0 33 -4 60 -10 60
-6 0 -10 -27 -10 -60z"/>
<path d="M5150 8268 c0 -32 4 -58 10 -58 6 0 10 21 10 46 0 37 4 47 20 51 31
8 24 22 -10 20 -30 -2 -30 -3 -30 -59z"/>
<path d="M5230 8270 c0 -33 4 -60 10 -60 6 0 10 27 10 60 0 33 -4 60 -10 60
-6 0 -10 -27 -10 -60z"/>
<path d="M5352 8318 c-19 -19 -14 -37 13 -50 31 -14 29 -44 -3 -41 -12 2 -22
-2 -22 -7 0 -15 56 -12 69 4 15 18 5 41 -25 54 -38 18 -29 38 14 33 6 -1 12 3
12 9 0 14 -43 13 -58 -2z"/>
<path d="M5266 8009 c-11 -13 -14 -24 -8 -28 6 -3 12 -27 14 -51 2 -38 7 -46
26 -48 12 -2 22 1 22 7 0 6 -6 10 -12 9 -9 -2 -14 12 -16 40 -2 33 0 42 12 42
9 0 16 5 16 10 0 6 -6 10 -14 10 -8 0 -16 7 -18 15 -2 13 -7 12 -22 -6z"/>
<path d="M5356 7984 c-18 -18 -21 -56 -6 -85 8 -13 21 -19 45 -19 19 0 35 4
35 10 0 5 -6 7 -14 4 -20 -8 -56 13 -56 32 0 12 9 14 40 10 36 -4 40 -2 40 18
0 44 -52 62 -84 30z m48 0 c28 -11 18 -34 -14 -34 -32 0 -37 9 -18 28 14 14
12 14 32 6z"/>
<path d="M5470 7940 c0 -33 4 -60 10 -60 6 0 10 18 10 39 0 30 6 44 22 55 12
9 19 19 15 22 -4 4 -13 1 -22 -6 -10 -8 -15 -9 -15 -1 0 6 -4 11 -10 11 -6 0
-10 -27 -10 -60z"/>
<path d="M1006 6513 c-3 -3 -6 -44 -6 -90 0 -67 3 -83 15 -83 12 0 15 16 15
84 0 78 -7 105 -24 89z"/>
<path d="M175 6490 c22 -10 54 -21 70 -25 17 -3 3 6 -29 20 -67 28 -102 33
-41 5z"/>
<path d="M1250 5970 c-11 -11 -20 -31 -20 -45 0 -28 32 -65 55 -65 23 0 65 46
65 70 0 26 -34 60 -60 60 -11 0 -29 -9 -40 -20z m65 -45 c0 -36 -3 -40 -25
-40 -18 0 -27 7 -34 27 -12 33 7 60 38 56 17 -2 21 -10 21 -43z"/>
<path d="M450 5541 c0 -54 4 -91 10 -91 6 0 10 35 10 84 0 47 -4 88 -10 91 -6
4 -10 -27 -10 -84z"/>
<path d="M184 5606 c-35 -15 -44 -32 -44 -82 0 -51 30 -76 88 -72 l47 3 0 40
c0 36 -3 40 -27 43 -16 2 -28 -1 -28 -7 0 -6 7 -11 15 -11 18 0 21 -49 3 -51
-68 -7 -104 65 -57 112 16 16 29 20 55 16 35 -6 47 6 18 17 -22 9 -35 7 -70
-8z"/>
<path d="M646 5611 c-4 -5 -2 -12 3 -15 5 -4 12 -2 15 3 4 5 2 12 -3 15 -5 4
-12 2 -15 -3z"/>
<path d="M316 5548 c-34 -49 -8 -102 47 -96 22 2 36 11 47 31 13 24 13 30 0
55 -21 37 -71 43 -94 10z m74 -17 c10 -21 4 -51 -14 -63 -20 -14 -36 -8 -47
16 -22 48 36 93 61 47z"/>
<path d="M515 5554 c-19 -20 -19 -78 0 -94 9 -7 27 -10 45 -6 33 6 38 -4 14
-29 -11 -10 -25 -14 -40 -11 -14 4 -24 2 -24 -4 0 -13 60 -13 80 0 10 6 16 32
18 82 l4 74 -41 1 c-25 1 -47 -4 -56 -13z m70 -24 c10 -33 -4 -60 -31 -60 -28
0 -39 19 -30 55 8 32 51 35 61 5z"/>
<path d="M649 5568 c0 -2 -1 -29 -2 -61 -1 -40 2 -57 11 -57 8 0 12 19 12 60
0 33 -4 60 -10 60 -5 0 -10 -1 -11 -2z"/>
<path d="M760 5561 c0 -5 12 -11 27 -13 34 -4 43 -28 10 -28 -29 0 -50 -22
-45 -47 2 -14 13 -18 46 -19 l42 -2 0 47 c0 26 -5 52 -12 59 -14 14 -68 16
-68 3z m60 -65 c0 -18 -27 -39 -40 -31 -14 9 -13 32 3 38 23 10 37 7 37 -7z"/>
<path d="M880 5483 c0 -49 4 -83 10 -83 6 0 10 13 10 28 0 26 2 28 32 24 37
-6 58 16 58 59 0 40 -25 60 -71 57 l-39 -3 0 -82z m80 52 c15 -18 5 -64 -15
-72 -9 -3 -22 0 -30 7 -15 13 -21 61 -8 73 11 12 40 8 53 -8z"/>
<path d="M11580 4630 c0 -47 4 -80 10 -80 6 0 10 33 10 80 0 47 -4 80 -10 80
-6 0 -10 -33 -10 -80z"/>
<path d="M11636 4701 c-4 -5 -2 -12 3 -15 5 -4 12 -2 15 3 4 5 2 12 -3 15 -5
4 -12 2 -15 -3z"/>
<path d="M11893 4700 c-37 -15 -30 -56 12 -81 19 -12 35 -24 35 -29 0 -16 -30
-32 -50 -27 -11 3 -22 2 -25 -3 -8 -12 35 -20 60 -10 47 18 43 60 -6 86 -38
19 -36 49 4 49 30 -1 36 9 11 19 -9 3 -16 6 -17 5 -1 0 -12 -4 -24 -9z"/>
<path d="M11985 4630 c0 -57 4 -80 13 -80 8 0 12 16 12 46 0 41 2 45 23 42 18
-2 23 -10 25 -45 4 -56 22 -55 22 1 0 50 -18 71 -53 62 -21 -5 -23 -3 -19 24
3 21 0 30 -9 30 -11 0 -14 -19 -14 -80z"/>
<path d="M12420 4630 c0 -83 17 -112 22 -37 3 37 6 42 28 42 22 0 25 -5 28
-42 4 -52 22 -58 22 -7 0 55 -16 77 -51 70 -27 -5 -29 -3 -29 24 0 17 -4 30
-10 30 -6 0 -10 -33 -10 -80z"/>
<path d="M11170 4657 c0 -24 -3 -59 -6 -76 -4 -19 -2 -31 4 -31 5 0 13 28 17
62 l7 63 20 -63 c10 -34 23 -62 28 -62 5 0 19 28 32 63 l23 62 3 -62 c4 -76
22 -85 22 -10 0 112 -26 129 -56 38 -10 -33 -21 -58 -23 -55 -3 3 -12 28 -21
57 -10 33 -22 53 -33 55 -14 3 -17 -4 -17 -41z"/>
<path d="M12340 4663 c-10 -12 -11 -18 -2 -21 7 -2 12 -21 12 -42 0 -43 23
-71 42 -52 9 9 8 12 -5 12 -13 0 -17 9 -17 40 0 29 4 40 15 40 8 0 15 5 15 10
0 6 -7 10 -15 10 -8 0 -15 5 -15 10 0 15 -13 12 -30 -7z"/>
<path d="M11363 4599 c22 -59 22 -61 3 -75 -11 -7 -16 -17 -12 -21 12 -12 44
30 70 95 17 44 21 62 12 62 -7 0 -19 -19 -26 -42 l-13 -43 -19 43 c-28 64 -40
50 -15 -19z"/>
<path d="M11472 4648 c-7 -7 -12 -27 -12 -45 0 -40 33 -66 70 -55 23 6 23 7
-10 12 -22 3 -36 11 -38 23 -3 14 4 17 32 17 28 0 36 4 36 18 0 24 -19 42 -45
42 -12 0 -26 -5 -33 -12z m56 -21 c3 -12 -4 -17 -22 -17 -27 0 -37 24 -13 33
19 8 32 2 35 -16z"/>
<path d="M11638 4605 c-2 -39 1 -55 10 -55 8 0 12 18 12 55 0 71 -17 71 -22 0z"/>
<path d="M11690 4603 c0 -63 17 -72 22 -11 2 33 8 44 22 46 24 5 36 -14 36
-55 0 -18 5 -33 10 -33 13 0 13 66 0 91 -8 14 -20 18 -50 17 l-40 -1 0 -54z"/>
<path d="M12120 4641 c-28 -53 11 -112 62 -95 21 7 20 9 -12 14 -22 3 -36 11
-38 23 -3 14 4 17 38 17 38 0 41 2 34 23 -4 12 -12 25 -18 29 -21 14 -55 8
-66 -11z m59 -4 c14 -17 4 -27 -26 -27 -25 0 -29 10 -11 28 15 15 23 15 37 -1z"/>
<path d="M12235 4651 c-3 -6 7 -9 21 -8 35 3 42 -19 10 -27 -36 -9 -51 -40
-30 -61 9 -9 23 -14 31 -11 8 3 21 6 29 6 18 0 20 80 2 98 -14 14 -54 16 -63
3z m55 -65 c0 -8 -5 -18 -10 -21 -17 -11 -40 3 -34 20 8 19 44 20 44 1z"/>
<path d="M11162 4445 c-16 -35 -14 -84 3 -115 17 -30 19 -15 4 28 -8 23 -8 41
1 67 14 43 8 56 -8 20z"/>
<path d="M11218 4459 c-26 -15 -22 -34 13 -62 35 -27 31 -52 -7 -44 -27 5 -33
-8 -8 -17 22 -9 54 11 54 34 0 11 -11 27 -25 36 -34 22 -32 44 3 44 21 0 24 2
12 10 -18 12 -21 12 -42 -1z"/>
<path d="M11380 4405 c0 -37 4 -65 10 -65 6 0 10 16 10 35 0 28 4 35 20 35 16
0 20 -7 20 -35 0 -19 5 -35 10 -35 16 0 12 66 -5 80 -8 7 -22 10 -30 6 -11 -4
-15 1 -15 19 0 14 -4 25 -10 25 -6 0 -10 -28 -10 -65z"/>
<path d="M12143 4405 c0 -38 2 -53 4 -32 2 20 2 52 0 70 -2 17 -4 1 -4 -38z"/>
<path d="M12180 4405 c0 -37 4 -65 10 -65 6 0 10 28 10 65 0 37 -4 65 -10 65
-6 0 -10 -28 -10 -65z"/>
<path d="M12226 4450 c10 -30 10 -75 0 -115 l-7 -30 15 25 c20 33 20 100 0
125 -16 19 -16 19 -8 -5z"/>
<path d="M11306 4414 c-9 -8 -16 -24 -16 -34 0 -24 37 -50 59 -42 12 5 11 7
-9 12 -18 4 -26 14 -28 33 -3 26 4 32 36 28 6 -1 12 3 12 9 0 16 -37 12 -54
-6z"/>
<path d="M11480 4419 c0 -25 21 -79 31 -79 4 0 13 15 18 33 l9 32 12 -32 c15
-41 25 -42 39 -2 16 48 12 69 -6 29 l-16 -35 -10 33 c-12 40 -23 41 -32 2 -7
-32 -25 -41 -25 -12 0 9 -5 24 -10 32 -8 13 -10 13 -10 -1z"/>
<path d="M11624 4419 c-4 -7 0 -9 14 -5 30 10 38 -12 9 -23 -14 -6 -28 -14
-31 -20 -11 -16 21 -39 48 -34 28 6 35 37 16 74 -12 21 -45 26 -56 8z m46 -49
c0 -12 -28 -25 -36 -17 -9 9 6 27 22 27 8 0 14 -5 14 -10z"/>
<path d="M11710 4383 c0 -24 5 -43 10 -43 6 0 10 15 10 34 0 20 6 36 14 39 20
8 26 -2 26 -40 0 -18 5 -33 10 -33 14 0 12 66 -2 78 -7 6 -25 10 -40 9 -26 -2
-28 -5 -28 -44z"/>
<path d="M11817 4424 c-1 -2 0 -22 2 -46 l5 -43 5 35 c5 26 11 35 26 35 15 0
22 -9 27 -35 6 -32 6 -31 5 10 -2 44 -3 45 -34 46 -18 1 -34 0 -36 -2z"/>
<path d="M11965 4406 c-8 -13 -13 -31 -9 -40 8 -22 41 -39 57 -29 8 5 3 9 -13
13 -32 7 -39 44 -12 59 11 6 22 7 26 4 3 -3 6 -1 6 5 0 21 -39 13 -55 -12z"/>
<path d="M12052 4418 c-21 -21 -15 -68 11 -77 12 -5 29 -6 37 -2 10 4 6 7 -12
9 -14 2 -29 10 -32 18 -4 10 3 14 29 14 38 0 40 2 25 31 -12 21 -40 25 -58 7z
m46 -16 c2 -7 -7 -12 -23 -12 -24 0 -26 2 -15 15 14 17 31 16 38 -3z"/>
<path d="M890 4041 c0 -54 4 -91 10 -91 6 0 10 35 10 84 0 47 -4 88 -10 91 -6
4 -10 -27 -10 -84z"/>
<path d="M477 4113 c-11 -10 -8 -163 3 -163 5 0 10 30 12 68 l3 67 40 -67 c53
-92 65 -89 65 17 0 50 -4 85 -10 85 -6 0 -10 -29 -10 -67 l0 -68 -43 68 c-42
67 -48 73 -60 60z"/>
<path d="M642 4013 l3 -58 48 -1 47 -2 0 59 c0 33 -4 59 -10 59 -5 0 -10 -18
-10 -39 0 -43 -22 -74 -45 -65 -10 4 -15 21 -15 55 0 28 -5 49 -10 49 -7 0
-10 -22 -8 -57z"/>
<path d="M787 4052 c-20 -22 -22 -73 -5 -90 15 -15 78 -16 78 -1 0 6 -7 8 -16
5 -22 -8 -54 11 -54 34 0 36 12 50 41 50 16 0 29 5 29 10 0 17 -56 11 -73 -8z"/>
<path d="M956 4054 c-19 -18 -21 -75 -4 -92 14 -14 78 -16 78 -3 0 5 -9 7 -20
4 -22 -6 -50 12 -50 31 0 7 14 10 40 8 37 -4 40 -2 40 20 0 46 -51 65 -84 32z
m64 -25 c0 -5 -13 -9 -30 -9 -33 0 -39 14 -13 29 18 10 43 -2 43 -20z"/>
<path d="M1070 4021 c0 -57 13 -71 63 -69 l37 1 0 59 c0 32 -4 58 -10 58 -5 0
-10 -20 -10 -44 0 -51 -20 -76 -45 -56 -9 8 -15 30 -15 56 0 24 -4 44 -10 44
-5 0 -10 -22 -10 -49z"/>
<path d="M1210 4050 c-11 -20 -7 -25 34 -54 25 -17 11 -40 -20 -32 -14 4 -24
2 -24 -4 0 -17 67 -12 74 6 10 26 7 34 -19 46 -30 13 -33 38 -5 38 11 0 20 5
20 10 0 18 -49 11 -60 -10z"/>
<path d="M650 3736 c0 -47 5 -88 10 -91 6 -4 10 27 10 84 0 54 -4 91 -10 91
-6 0 -10 -35 -10 -84z"/>
<path d="M970 3736 c0 -47 5 -88 10 -91 6 -4 10 27 10 84 0 54 -4 91 -10 91
-6 0 -10 -35 -10 -84z"/>
<path d="M240 3724 c0 -54 4 -83 10 -79 6 3 10 34 10 68 l0 62 43 -67 c23 -38
45 -68 49 -68 5 0 8 38 8 85 0 57 -4 85 -11 85 -8 0 -10 -20 -7 -65 3 -36 4
-65 3 -65 -2 0 -20 29 -41 65 -52 89 -64 86 -64 -21z"/>
<path d="M400 3721 c0 -32 6 -55 16 -65 18 -18 40 -21 49 -6 5 8 11 7 21 -1
12 -10 14 -1 14 55 0 75 -17 90 -22 20 -2 -32 -9 -51 -21 -58 -24 -15 -37 6
-37 62 0 23 -4 42 -10 42 -5 0 -10 -22 -10 -49z"/>
<path d="M562 3758 c-28 -14 -38 -51 -24 -83 13 -28 58 -43 75 -26 8 8 4 11
-16 11 -34 0 -54 33 -38 66 7 16 19 24 36 24 14 0 25 5 25 10 0 13 -29 12 -58
-2z"/>
<path d="M720 3750 c-50 -50 11 -138 70 -100 11 7 8 10 -16 10 -29 0 -54 15
-54 32 0 4 20 8 45 8 49 0 56 10 29 48 -19 27 -48 28 -74 2z m64 -15 c4 -12
-3 -15 -31 -15 -30 0 -34 2 -23 15 7 8 20 15 30 15 10 0 20 -7 24 -15z"/>
<path d="M852 3754 c-33 -23 -30 -78 4 -101 24 -15 29 -15 53 -2 36 20 42 80
9 103 -28 20 -38 20 -66 0z m56 -16 c30 -30 -2 -93 -36 -71 -21 13 -27 50 -12
69 15 17 32 18 48 2z"/>
<path d="M1030 3721 c0 -32 6 -55 16 -65 18 -18 40 -21 49 -6 5 8 11 7 21 -1
12 -10 14 -1 14 55 0 75 -17 90 -22 20 -2 -32 -9 -51 -21 -58 -24 -15 -37 6
-37 62 0 23 -4 42 -10 42 -5 0 -10 -22 -10 -49z"/>
<path d="M1176 3754 c-22 -22 -20 -30 14 -54 34 -24 31 -40 -6 -40 -14 0 -22
-4 -19 -10 9 -14 38 -12 59 3 23 17 14 53 -15 62 -25 8 -25 35 1 35 11 0 20 5
20 10 0 16 -37 12 -54 -6z"/>
<path d="M710 3431 l0 -89 47 2 c42 1 49 4 57 29 20 57 -28 111 -70 77 -12
-11 -14 -6 -14 29 0 22 -4 41 -10 41 -6 0 -10 -36 -10 -89z m86 -16 c8 -30 0
-53 -21 -61 -22 -9 -45 14 -45 46 0 33 7 40 36 40 17 0 25 -7 30 -25z"/>
<path d="M176 3449 c-8 -85 -8 -109 4 -109 6 0 10 29 10 67 0 76 9 74 35 -10
9 -32 22 -56 28 -54 6 2 21 32 33 67 l22 64 7 -67 c4 -37 12 -67 18 -67 6 0 8
22 3 61 -3 34 -6 73 -6 85 0 48 -28 24 -50 -41 -12 -36 -23 -65 -25 -65 -2 0
-13 29 -25 65 -28 83 -45 84 -54 4z"/>
<path d="M386 3444 c-19 -18 -21 -75 -4 -92 14 -14 78 -16 78 -3 0 5 -9 7 -20
4 -20 -5 -50 12 -50 28 0 5 18 9 40 9 35 0 40 3 40 23 0 45 -52 64 -84 31z
m64 -25 c0 -5 -13 -9 -30 -9 -33 0 -39 14 -13 29 18 10 43 -2 43 -20z"/>
<path d="M500 3400 c0 -71 16 -80 22 -12 5 51 1 72 -13 72 -5 0 -9 -27 -9 -60z"/>
<path d="M535 3450 c-3 -5 3 -10 13 -10 23 0 32 -18 32 -66 0 -52 18 -41 22
14 3 39 6 47 23 47 17 0 20 -8 23 -47 2 -27 8 -48 13 -48 6 0 9 22 7 51 -3 60
-24 82 -58 62 -12 -8 -21 -9 -25 -3 -8 13 -42 13 -50 0z"/>
<path d="M850 3400 c0 -33 4 -60 10 -60 6 0 10 18 10 39 0 30 6 44 22 55 12 9
19 19 15 22 -4 4 -13 1 -22 -6 -10 -8 -15 -9 -15 -1 0 6 -4 11 -10 11 -6 0
-10 -27 -10 -60z"/>
<path d="M935 3450 c-4 -6 7 -10 24 -10 21 0 31 -5 31 -15 0 -9 -9 -15 -25
-15 -27 0 -48 -30 -39 -54 5 -12 18 -16 50 -14 43 1 44 2 44 34 0 57 -16 84
-49 84 -16 0 -33 -4 -36 -10z m55 -70 c0 -24 -26 -38 -42 -22 -8 8 -8 15 2 27
18 21 40 19 40 -5z"/>
<path d="M1050 3400 c0 -33 4 -60 10 -60 6 0 10 17 10 39 0 41 20 67 45 57 10
-4 15 -19 15 -51 0 -25 5 -45 11 -45 6 0 9 20 7 51 -3 60 -24 82 -58 61 -12
-7 -20 -8 -20 -2 0 5 -4 10 -10 10 -6 0 -10 -27 -10 -60z"/>
<path d="M1196 3438 c-33 -46 -6 -98 50 -98 19 0 34 4 34 9 0 4 -11 6 -23 4
-15 -3 -31 2 -42 14 -18 17 -18 18 24 21 49 4 62 23 36 52 -24 26 -60 25 -79
-2z m74 -18 c0 -6 -16 -10 -35 -10 -40 0 -41 2 -19 24 12 12 20 13 35 6 10 -6
19 -15 19 -20z"/>
<path d="M216 3201 c-4 -7 -5 -15 -2 -18 9 -9 19 4 14 18 -4 11 -6 11 -12 0z"/>
<path d="M820 3118 c0 -68 3 -89 11 -81 8 8 18 8 35 1 33 -15 64 13 64 58 0
52 -47 83 -78 52 -9 -9 -12 -4 -12 25 0 20 -4 37 -10 37 -6 0 -10 -37 -10 -92z
m78 10 c30 -30 -2 -93 -36 -71 -21 13 -27 50 -12 69 15 17 32 18 48 2z"/>
<path d="M1100 3120 c0 -53 4 -90 10 -90 6 0 10 37 10 90 0 53 -4 90 -10 90
-6 0 -10 -37 -10 -90z"/>
<path d="M8 3123 c-3 -43 -2 -82 0 -87 9 -17 21 27 22 84 l1 55 24 -70 c14
-38 25 -71 25 -73 0 -2 4 -1 9 3 5 3 20 36 33 73 l23 67 3 -65 c5 -101 22 -99
22 3 0 78 -2 87 -18 87 -14 0 -24 -15 -37 -57 -11 -32 -22 -61 -25 -65 -3 -4
-14 22 -24 57 -14 48 -23 65 -36 65 -15 0 -18 -12 -22 -77z"/>
<path d="M592 3160 c-7 -12 -8 -20 -2 -20 5 0 10 -17 10 -38 0 -49 20 -78 46
-67 17 7 18 8 2 12 -14 3 -18 15 -18 48 0 33 4 45 18 48 14 4 14 6 -5 12 -13
4 -20 11 -17 16 3 5 -1 9 -8 9 -7 0 -19 -9 -26 -20z"/>
<path d="M210 3101 c0 -33 5 -63 10 -66 6 -4 10 18 10 59 0 37 -4 66 -10 66
-6 0 -10 -26 -10 -59z"/>
<path d="M292 3148 c-28 -14 -38 -51 -24 -83 13 -28 58 -43 75 -26 8 8 4 11
-16 11 -34 0 -54 33 -38 66 7 16 19 24 36 24 14 0 25 5 25 10 0 13 -29 12 -58
-2z"/>
<path d="M380 3095 c0 -37 4 -65 10 -65 6 0 10 18 10 40 0 27 7 47 21 61 23
23 18 39 -6 19 -10 -8 -15 -9 -15 -1 0 6 -4 11 -10 11 -6 0 -10 -28 -10 -65z"/>
<path d="M475 3135 c-14 -13 -25 -30 -25 -38 0 -23 40 -67 61 -67 52 0 80 84
37 114 -31 22 -45 20 -73 -9z m65 -11 c20 -24 1 -69 -29 -69 -28 0 -42 30 -30
63 10 26 41 29 59 6z"/>
<path d="M680 3111 c0 -32 6 -55 16 -65 18 -18 40 -21 49 -6 5 8 11 7 21 -1
12 -10 14 -1 14 55 0 75 -17 90 -22 20 -2 -32 -9 -51 -21 -58 -24 -15 -37 6
-37 62 0 23 -4 42 -10 42 -5 0 -10 -22 -10 -49z"/>
<path d="M960 3111 c0 -32 6 -55 16 -65 18 -18 40 -21 49 -6 5 8 11 7 21 -1
12 -10 14 -1 14 55 0 37 -4 66 -10 66 -5 0 -10 -20 -10 -44 0 -26 -6 -48 -15
-56 -25 -20 -45 5 -45 56 0 24 -4 44 -10 44 -5 0 -10 -22 -10 -49z"/>
<path d="M1171 3141 c-51 -51 9 -140 69 -101 11 7 8 10 -15 10 -30 0 -55 15
-55 32 0 4 18 8 39 8 47 0 54 8 38 41 -16 31 -50 36 -76 10z m57 -18 c2 -9 -7
-13 -27 -13 -23 0 -29 4 -24 16 6 17 44 15 51 -3z"/>
<path d="M12348 2833 c-2 -5 0 -42 6 -83 l9 -75 9 45 c9 48 3 106 -12 115 -5
3 -10 2 -12 -2z"/>
<path d="M12714 1832 c5 -8 66 -4 66 4 0 2 -16 4 -36 4 -19 0 -33 -4 -30 -8z"/>
<path d="M12757 1809 c7 -7 15 -10 18 -7 3 3 -2 9 -12 12 -14 6 -15 5 -6 -5z"/>
<path d="M1048 1129 c-26 -14 -23 -56 5 -70 63 -33 69 -69 11 -69 -19 0 -34
-4 -34 -10 0 -18 66 -11 84 9 24 26 13 54 -29 77 -44 23 -42 48 3 52 17 2 32
7 32 13 0 12 -50 11 -72 -2z"/>
<path d="M1144 1074 c41 -99 41 -102 21 -124 -24 -26 -10 -40 14 -14 21 21 74
144 66 153 -9 8 -22 -12 -35 -53 l-13 -40 -16 44 c-9 24 -22 45 -30 48 -10 3
-12 0 -7 -14z"/>
<path d="M1270 1028 c0 -32 4 -58 10 -58 6 0 10 18 10 39 0 43 22 74 45 65 10
-4 15 -21 15 -55 0 -28 5 -49 10 -49 7 0 10 22 8 58 l-3 57 -47 1 -48 1 0 -59z"/>
<path d="M1410 1081 c0 -6 12 -9 26 -8 35 3 43 -20 10 -29 -33 -8 -49 -28 -41
-53 5 -17 14 -20 51 -19 43 2 44 3 44 35 0 60 -15 83 -55 83 -19 0 -35 -4 -35
-9z m60 -70 c0 -23 -25 -34 -39 -17 -7 9 -7 16 1 24 18 18 38 14 38 -7z"/>
<path d="M1530 1003 c0 -49 4 -83 10 -83 6 0 10 13 10 29 0 28 2 29 33 24 39
-6 58 11 59 56 1 45 -17 61 -68 59 l-44 -2 0 -83z m88 24 c-2 -25 -8 -33 -27
-35 -39 -6 -56 42 -25 72 25 25 56 3 52 -37z"/>
<path d="M1677 1083 c-15 -15 -5 -44 18 -55 40 -18 31 -44 -12 -39 -7 1 -13
-3 -13 -9 0 -7 14 -10 33 -8 26 2 33 8 35 29 2 19 -3 28 -23 37 -31 14 -28 38
4 35 11 -2 21 2 21 7 0 11 -53 14 -63 3z"/>
<path d="M1780 1074 c-8 -8 -13 -28 -13 -44 0 -40 19 -60 59 -60 43 0 44 18 2
22 -22 2 -34 9 -36 21 -3 14 4 17 37 17 42 0 48 8 31 41 -13 23 -62 26 -80 3z
m58 -6 c19 -19 14 -28 -18 -28 -41 0 -40 33 1 39 3 1 10 -4 17 -11z"/>
<path d="M8137 1053 c-4 -3 -7 -18 -7 -32 0 -23 -4 -26 -32 -26 -42 0 -67 -39
-52 -82 8 -25 14 -28 57 -29 l47 -2 0 89 c0 89 -1 95 -13 82z m-9 -109 c3 -34
-17 -58 -41 -48 -40 15 -25 88 16 82 16 -2 23 -11 25 -34z"/>
<path d="M7620 966 l0 -86 43 0 c48 1 72 15 87 54 22 59 -10 102 -83 112 l-47
7 0 -87z m92 47 c18 -16 24 -68 10 -90 -7 -12 -54 -33 -73 -33 -5 0 -9 32 -9
70 0 69 0 70 27 70 14 0 35 -7 45 -17z"/>
<path d="M8272 1041 c4 -13 18 -16 19 -4 0 4 -5 9 -11 12 -7 2 -11 -2 -8 -8z"/>
<path d="M8336 1009 c-11 -13 -14 -24 -8 -28 6 -3 12 -27 14 -51 3 -40 6 -45
28 -48 22 -2 23 -1 8 8 -23 14 -26 90 -3 90 8 0 15 5 15 10 0 6 -6 10 -14 10
-8 0 -16 7 -18 15 -2 13 -7 12 -22 -6z"/>
<path d="M7796 984 c-19 -18 -21 -75 -4 -92 14 -14 78 -16 78 -3 0 5 -9 7 -20
4 -20 -5 -50 12 -50 28 0 5 18 9 40 9 35 0 40 3 40 23 0 45 -52 64 -84 31z
m64 -25 c0 -5 -13 -9 -30 -9 -33 0 -39 14 -13 29 18 10 43 -2 43 -20z"/>
<path d="M7910 940 c0 -71 16 -80 22 -12 5 51 1 72 -13 72 -5 0 -9 -27 -9 -60z"/>
<path d="M7945 991 c-3 -5 5 -11 17 -13 20 -3 23 -10 26 -50 2 -27 7 -48 13
-48 13 0 11 94 -3 108 -14 14 -44 16 -53 3z"/>
<path d="M8190 940 c0 -33 4 -60 10 -60 6 0 10 18 10 39 0 30 6 44 22 55 12 9
19 19 15 22 -4 4 -13 1 -22 -6 -10 -8 -15 -9 -15 -1 0 6 -4 11 -10 11 -6 0
-10 -27 -10 -60z"/>
<path d="M8270 940 c0 -33 4 -60 10 -60 6 0 10 27 10 60 0 33 -4 60 -10 60 -6
0 -10 -27 -10 -60z"/>
<path d="M8421 986 c-16 -20 -17 -72 -1 -91 13 -16 80 -21 80 -6 0 5 -9 7 -20
4 -20 -5 -50 12 -50 28 0 5 18 9 40 9 43 0 50 13 30 51 -13 23 -62 26 -79 5z
m57 -8 c19 -19 14 -28 -18 -28 -16 0 -30 4 -30 8 0 9 21 32 30 32 3 0 11 -5
18 -12z"/>
<path d="M8541 986 c-15 -18 -5 -41 25 -55 32 -14 26 -37 -10 -34 -14 1 -26
-2 -26 -8 0 -5 15 -9 34 -9 57 0 59 54 3 73 -6 2 -8 11 -4 20 4 10 12 14 22
11 8 -3 15 -1 15 5 0 16 -45 14 -59 -3z"/>
<path d="M910 859 c-12 -42 1 -109 21 -109 6 0 6 8 -1 19 -5 11 -10 36 -10 56
0 20 5 45 10 56 7 12 7 19 1 19 -6 0 -15 -18 -21 -41z"/>
<path d="M975 848 c-10 -29 -20 -59 -23 -65 -2 -7 0 -13 6 -13 5 0 12 9 15 20
7 29 53 27 62 -2 3 -13 8 -18 11 -13 6 15 -30 118 -43 122 -6 2 -19 -20 -28
-49z m44 -20 c1 -5 -6 -8 -14 -8 -15 0 -21 31 -8 44 7 6 20 -17 22 -36z"/>
<path d="M1320 880 c0 -15 -7 -20 -25 -20 -33 0 -52 -38 -36 -69 9 -16 20 -20
46 -18 l35 2 0 63 c0 35 -4 62 -10 62 -5 0 -10 -9 -10 -20z m-2 -59 c4 -28
-17 -45 -35 -29 -14 11 -17 40 -6 52 14 14 38 0 41 -23z"/>
<path d="M1630 880 c0 -14 -7 -20 -23 -20 -29 0 -47 -18 -47 -46 0 -28 21 -45
54 -42 25 2 26 4 26 65 0 35 -2 63 -5 63 -3 0 -5 -9 -5 -20z m-6 -53 c8 -13 6
-21 -7 -34 -17 -17 -19 -17 -32 1 -10 14 -11 24 -4 38 12 22 27 20 43 -5z"/>
<path d="M1730 890 c0 -5 5 -10 10 -10 6 0 10 5 10 10 0 6 -4 10 -10 10 -5 0
-10 -4 -10 -10z"/>
<path d="M1840 890 c0 -5 5 -10 11 -10 5 0 7 5 4 10 -3 6 -8 10 -11 10 -2 0
-4 -4 -4 -10z"/>
<path d="M1772 865 c-7 -8 -8 -15 -3 -15 5 0 11 -17 13 -37 2 -29 8 -39 23
-41 12 -2 16 0 9 5 -18 13 -24 64 -8 70 11 4 11 7 -1 19 -17 17 -17 17 -33 -1z"/>
<path d="M1070 854 c0 -6 5 -15 11 -21 8 -8 8 -17 0 -31 -16 -30 -13 -40 5
-17 15 20 15 20 30 1 7 -11 16 -17 19 -15 3 3 -1 14 -9 24 -12 16 -12 22 1 42
10 15 11 23 4 23 -6 0 -14 -7 -18 -15 -5 -14 -8 -14 -24 1 -11 9 -19 13 -19 8z"/>
<path d="M1162 848 c-30 -30 -3 -82 40 -76 29 4 47 50 28 72 -15 19 -51 21
-68 4z m53 -33 c0 -23 -4 -30 -20 -30 -21 0 -31 25 -21 51 11 28 41 12 41 -21z"/>
<path d="M1372 848 c-29 -29 -7 -78 35 -78 13 0 23 4 23 8 0 5 -10 8 -21 8
-12 -1 -24 5 -26 12 -3 8 6 12 26 12 31 0 36 6 25 34 -7 19 -45 21 -62 4z m43
-8 c3 -5 -3 -10 -15 -10 -12 0 -18 5 -15 10 3 6 10 10 15 10 5 0 12 -4 15 -10z"/>
<path d="M1460 813 c0 -53 18 -57 22 -5 2 25 8 37 18 37 10 0 16 -12 18 -37 4
-46 22 -51 22 -5 0 45 -12 58 -48 55 -31 -2 -32 -4 -32 -45z"/>
<path d="M1670 813 c0 -24 5 -43 10 -43 6 0 10 16 10 35 0 22 6 38 18 44 14 9
13 10 -10 9 -26 -2 -28 -6 -28 -45z"/>
<path d="M1730 815 c0 -25 5 -45 10 -45 6 0 10 20 10 45 0 25 -4 45 -10 45 -5
0 -10 -20 -10 -45z"/>
<path d="M1843 815 c0 -27 2 -38 4 -22 2 15 2 37 0 50 -2 12 -4 0 -4 -28z"/>
<path d="M1887 839 c-8 -11 -12 -29 -10 -40 6 -20 43 -35 65 -26 7 3 3 6 -8 6
-52 2 -55 58 -3 72 24 7 24 7 -3 8 -17 1 -32 -7 -41 -20z"/>
<path d="M12527 340 c6 -71 22 -127 22 -80 0 14 -6 52 -14 85 l-14 60 6 -65z"/>
</g>
</svg>
