<?xml version="1.0" standalone="no"?>
<!DOCTYPE svg PUBLIC "-//W3C//DTD SVG 20010904//EN"
 "http://www.w3.org/TR/2001/REC-SVG-20010904/DTD/svg10.dtd">
<svg version="1.0" xmlns="http://www.w3.org/2000/svg"
 width="1280.000000pt" height="709.000000pt" viewBox="0 0 1280.000000 709.000000"
 preserveAspectRatio="xMidYMid meet">
<metadata>
Created by potrace 1.15, written by Peter Selinger 2001-2017
</metadata>
<g transform="translate(0.000000,709.000000) scale(0.100000,-0.100000)"
fill="#000000" stroke="none">
<path d="M11605 7074 c-22 -8 -69 -23 -105 -32 -99 -26 -150 -62 -237 -164
-42 -51 -89 -103 -104 -115 l-26 -23 -7 -207 c-4 -115 -9 -221 -12 -238 -4
-28 2 -35 80 -92 l84 -62 10 -61 11 -62 -144 -227 -144 -227 -22 -174 c-19
-156 -20 -190 -10 -310 6 -74 15 -268 21 -430 13 -403 20 -547 31 -670 7 -80
6 -125 -5 -195 -8 -49 -20 -164 -26 -254 l-12 -163 35 -77 c29 -62 46 -129 91
-361 30 -157 85 -436 121 -620 36 -184 65 -339 65 -345 -1 -12 -86 -80 -99
-80 -5 0 -13 -4 -18 -9 -5 -6 -2 -6 7 -1 10 5 8 1 -4 -13 -23 -26 -45 -30 -25
-4 13 15 12 16 -3 3 -10 -7 -16 -17 -13 -21 3 -5 -45 -48 -107 -96 -62 -48
-121 -94 -130 -102 -10 -8 -18 -13 -18 -9 0 3 44 41 98 85 141 117 152 127
102 94 -74 -49 -265 -207 -265 -220 0 -6 -6 -17 -14 -24 -10 -10 -12 -10 -7 0
17 29 -15 4 -177 -141 -220 -195 -231 -204 -357 -272 -128 -69 -165 -97 -186
-137 -19 -36 -21 -140 -5 -191 10 -31 29 -187 67 -554 l18 -173 47 -15 c66
-22 112 -12 160 36 46 46 46 48 54 353 4 139 10 237 17 250 6 12 48 59 93 106
44 47 91 99 103 116 12 17 36 37 54 44 73 29 353 165 357 173 2 5 53 33 115
63 109 53 111 53 118 31 3 -12 14 -152 24 -312 18 -314 15 -615 -10 -759 l-13
-78 34 -14 c66 -28 234 -38 651 -37 227 0 415 2 418 5 8 9 -53 220 -67 229
-32 20 -134 53 -276 90 -157 40 -247 70 -276 92 -10 7 -33 74 -58 167 -40 151
-41 157 -31 232 6 42 36 177 67 300 31 123 59 256 63 297 l7 73 120 92 120 92
5 235 c6 285 -4 794 -19 984 -14 170 -46 438 -66 553 -19 107 -18 115 5 71 26
-50 72 -94 150 -145 80 -52 107 -76 152 -134 60 -77 97 -152 114 -235 37 -182
127 -285 249 -285 82 0 155 54 155 115 0 57 -122 249 -248 390 -70 78 -135
184 -233 378 -97 194 -127 244 -170 295 l-29 33 0 159 c0 87 -5 250 -10 362
-32 625 -100 896 -302 1206 l-54 83 20 123 20 124 115 7 c64 4 125 11 137 15
28 11 49 145 48 310 -1 133 -13 180 -67 267 -13 21 -34 72 -46 113 -36 117
-80 199 -142 262 -76 77 -145 95 -234 62z m-725 -5447 c0 -2 -10 -12 -22 -23
l-23 -19 19 23 c18 21 26 27 26 19z"/>
<path d="M8985 6230 c-27 -10 -121 -43 -208 -74 -153 -53 -162 -58 -235 -123
-43 -37 -79 -68 -81 -70 -2 -2 -19 -121 -36 -265 l-33 -263 -161 -311 c-88
-171 -161 -320 -161 -330 0 -11 27 -153 59 -316 l60 -296 92 -163 92 -163 -17
-110 c-30 -190 -47 -260 -70 -291 -39 -51 -75 -132 -92 -202 -37 -158 15 -378
134 -564 l46 -73 62 -340 c45 -247 64 -377 69 -471 l6 -130 -203 -95 -203 -96
-81 -239 -81 -239 -136 -152 -136 -152 108 -263 c59 -145 110 -271 113 -280
16 -42 289 -87 371 -60 88 29 93 89 17 197 -65 95 -90 165 -96 279 -8 146 -5
154 133 323 l122 149 116 23 c63 12 118 20 121 17 3 -3 27 -146 54 -317 l48
-311 -60 -105 -60 -105 18 -86 19 -86 453 5 c249 3 456 8 459 12 7 7 -37 156
-46 156 -3 0 -96 14 -206 30 -110 16 -204 30 -209 30 -5 0 -6 35 -2 78 3 42
19 235 36 427 16 193 43 514 60 715 17 201 42 485 55 632 14 147 25 272 25
278 0 6 54 10 155 10 l155 0 0 179 0 179 -140 128 c-171 157 -215 219 -205
292 3 26 10 169 15 317 8 242 13 293 47 495 34 206 37 241 37 410 0 157 -4
197 -22 262 -41 149 -72 211 -159 317 l-83 99 0 126 c0 69 1 126 3 126 1 0 71
-7 156 -15 85 -8 155 -14 157 -12 1 1 34 52 74 112 l72 110 -5 61 c-17 181
-152 358 -397 520 -146 97 -138 94 -195 74z"/>
<path d="M6055 5946 l-240 -31 -106 -128 -106 -128 -6 -67 c-3 -37 -12 -156
-19 -266 l-12 -198 -98 -130 c-54 -72 -98 -135 -98 -140 0 -6 -63 -203 -139
-437 l-140 -426 14 -355 c12 -328 17 -380 60 -685 50 -355 53 -421 35 -701 -5
-82 -10 -152 -10 -155 0 -4 80 -37 178 -73 l179 -67 -32 -167 -31 -167 -271
-530 c-326 -638 -409 -803 -403 -808 3 -2 138 -63 300 -135 l295 -131 153 -11
c85 -5 158 -10 164 -10 7 0 8 20 4 58 -13 110 -6 101 -191 253 l-174 143 18
30 c63 103 525 895 532 911 5 11 18 107 28 214 11 106 22 195 24 197 2 3 63
-18 136 -47 l131 -51 0 -363 0 -363 245 -410 246 -409 -21 -52 -20 -52 88 6
c48 3 170 9 272 15 102 5 238 12 303 16 64 3 117 9 117 12 0 4 -15 24 -33 45
-26 31 -75 57 -271 147 -131 60 -241 111 -244 114 -2 3 -10 29 -17 58 -58 244
-161 678 -176 743 -11 44 -27 116 -38 160 -10 44 -42 178 -70 297 l-51 217
-205 421 c-178 366 -205 427 -205 468 0 26 13 211 30 412 l29 365 81 190 82
190 -41 370 -42 370 -79 131 c-44 72 -80 136 -80 143 0 6 21 53 47 106 l47 95
66 -5 c36 -2 101 -7 145 -10 l81 -5 62 84 62 84 0 98 c0 153 -30 251 -110 359
-37 51 -217 226 -229 224 -3 -1 -114 -16 -246 -33z"/>
<path d="M3246 5011 c-40 -44 -59 -190 -37 -282 7 -29 0 -64 -33 -178 l-40
-141 -143 -132 c-79 -72 -145 -141 -148 -152 -2 -12 -13 -223 -25 -471 -12
-247 -30 -605 -39 -795 l-18 -345 52 -105 52 -105 -11 -350 -11 -350 -133
-225 -134 -225 -39 -385 c-21 -212 -39 -398 -39 -415 1 -28 9 -35 133 -105
l132 -75 233 -5 c127 -3 232 -1 232 3 0 8 -69 169 -75 175 -1 1 -44 -2 -95 -9
l-93 -11 -68 68 -69 68 0 172 0 171 118 108 c64 60 123 114 130 121 8 6 46
141 86 300 l72 289 82 3 82 3 0 -256 c0 -288 10 -354 87 -583 l39 -114 -31
-234 -31 -234 346 0 345 0 100 49 100 49 -55 24 c-30 13 -128 55 -217 93
l-162 69 -5 51 c-3 27 -10 115 -16 195 -6 80 -26 361 -45 625 -19 264 -37 494
-39 511 -3 25 -142 467 -198 629 -9 26 -5 41 29 110 l38 80 5 775 5 775 137
19 137 20 26 73 c25 68 26 77 15 125 -61 259 -149 383 -368 516 l-52 32 -164
0 c-147 0 -165 -2 -180 -19z"/>
<path d="M1732 2717 c-12 -6 -119 -78 -237 -160 -203 -139 -230 -154 -478
-268 -144 -66 -365 -159 -491 -205 -127 -46 -233 -87 -237 -91 -7 -8 -59 -140
-117 -298 l-26 -71 102 -163 c85 -137 100 -167 89 -179 -6 -9 -85 -101 -175
-206 l-162 -191 2 -104 3 -104 175 -78 c96 -43 180 -79 185 -79 6 0 21 30 34
68 13 37 26 72 28 78 3 7 -29 23 -79 39 -46 15 -86 30 -90 34 -4 3 25 66 64
139 l70 133 51 -3 51 -3 18 -50 c15 -43 18 -85 18 -283 l0 -233 43 -74 42 -75
258 0 257 0 0 43 c0 42 -1 43 -140 161 l-140 120 2 343 3 343 129 60 c71 33
129 60 130 60 1 0 48 -93 103 -208 l102 -207 -19 -145 c-11 -80 -19 -154 -20
-165 0 -26 93 -100 112 -89 7 4 64 50 126 103 100 83 113 97 107 118 -3 14
-17 76 -30 139 -13 63 -28 120 -32 127 -3 7 -44 58 -90 114 -46 55 -83 109
-83 118 0 16 92 337 109 379 4 11 16 -66 29 -190 21 -203 23 -213 75 -359 30
-82 89 -279 133 -437 l79 -288 143 0 144 0 -6 26 c-4 14 -64 225 -133 467
l-126 442 -22 365 c-12 201 -21 366 -20 367 1 2 42 -11 90 -27 85 -29 90 -29
106 -13 38 40 109 156 120 196 22 83 0 188 -73 332 -26 52 -74 102 -120 126
-43 22 -150 26 -186 6z"/>
<path d="M11175 1220 c-33 -15 -55 -28 -50 -28 13 0 133 56 120 57 -5 0 -37
-13 -70 -29z"/>
</g>
</svg>
