<?xml version="1.0" standalone="no"?>
<!DOCTYPE svg PUBLIC "-//W3C//DTD SVG 20010904//EN"
 "http://www.w3.org/TR/2001/REC-SVG-20010904/DTD/svg10.dtd">
<svg version="1.0" xmlns="http://www.w3.org/2000/svg"
 width="1280.000000pt" height="1280.000000pt" viewBox="0 0 1280.000000 1280.000000"
 preserveAspectRatio="xMidYMid meet">
<metadata>
Created by potrace 1.15, written by Peter Selinger 2001-2017
</metadata>
<g transform="translate(0.000000,1280.000000) scale(0.100000,-0.100000)"
fill="#000000" stroke="none">
<path d="M10710 9843 c-999 -12 -3711 -46 -4574 -58 -1017 -13 -1080 -15
-1098 -32 -14 -15 -62 -292 -253 -1463 -355 -2181 -365 -2243 -368 -2247 -2
-2 -142 302 -311 674 -169 373 -315 686 -324 695 -14 14 -102 23 -552 57 -294
23 -551 41 -571 41 -25 0 -87 -24 -190 -74 -357 -171 -1203 -587 -1225 -601
-41 -27 -31 -61 67 -232 120 -207 132 -223 171 -223 17 0 215 25 440 56 225
31 411 54 414 52 2 -3 194 -367 425 -809 232 -442 682 -1301 1001 -1909 318
-607 584 -1108 591 -1112 23 -15 64 -8 84 15 11 12 167 263 346 557 l325 535
167 900 c91 495 227 1229 301 1630 74 402 138 743 142 759 7 26 32 -8 326
-453 181 -274 316 -487 313 -495 -3 -8 -208 -317 -454 -688 -247 -370 -452
-681 -456 -691 -10 -26 10 -66 38 -77 14 -5 193 -10 411 -10 341 -1 388 0 403
15 10 8 135 218 277 465 142 248 262 450 265 450 4 0 123 -206 265 -457 143
-252 267 -466 277 -475 15 -16 38 -18 195 -18 99 0 240 -3 315 -7 l137 -6 0
-28 c0 -46 279 -892 300 -910 25 -22 231 -78 350 -96 282 -43 563 45 759 239
163 161 244 323 543 1082 930 2364 1010 2571 1001 2596 -16 48 -33 50 -405 50
l-346 0 -403 -50 c-241 -30 -409 -56 -416 -63 -6 -7 -58 -131 -113 -277 -56
-146 -105 -268 -108 -272 -4 -4 -54 131 -112 299 -58 169 -114 317 -124 331
l-19 25 -776 -7 c-477 -4 -786 -11 -801 -17 -16 -7 -96 -110 -230 -300 -113
-160 -208 -293 -212 -295 -4 -3 -38 43 -75 101 -37 58 -113 174 -168 258
l-100 151 -115 48 -115 47 -270 0 c-218 0 -270 2 -268 13 3 21 139 762 182
991 21 114 42 211 45 215 4 3 478 10 1054 14 576 4 1574 12 2217 17 l1170 9
565 276 c311 152 574 287 586 300 20 22 22 40 29 235 6 186 5 215 -9 236 l-16
25 -363 -2 c-199 -2 -450 -4 -557 -5z m-2691 -2861 c19 -53 159 -445 312 -870
l277 -774 -55 -139 c-84 -214 -111 -236 -279 -226 -56 4 -112 10 -124 15 -18
7 -39 45 -92 167 -64 147 -89 188 -363 602 -162 244 -299 452 -304 461 -8 15
46 98 286 440 163 232 299 422 302 422 3 0 21 -44 40 -98z"/>
</g>
</svg>
