<?xml version="1.0" standalone="no"?>
<!DOCTYPE svg PUBLIC "-//W3C//DTD SVG 20010904//EN"
 "http://www.w3.org/TR/2001/REC-SVG-20010904/DTD/svg10.dtd">
<svg version="1.0" xmlns="http://www.w3.org/2000/svg"
 width="1280.000000pt" height="640.000000pt" viewBox="0 0 1280.000000 640.000000"
 preserveAspectRatio="xMidYMid meet">
<metadata>
Created by potrace 1.15, written by Peter Selinger 2001-2017
</metadata>
<g transform="translate(0.000000,640.000000) scale(0.100000,-0.100000)"
fill="#000000" stroke="none">
<path d="M11521 5489 c-132 -23 -307 -96 -417 -174 -94 -67 -93 -59 -13 -163
75 -98 92 -107 139 -75 l25 17 -19 -22 c-19 -22 -19 -22 7 -22 14 0 84 18 154
41 208 66 344 64 484 -6 94 -48 187 -169 190 -245 0 -23 1 -24 10 -5 7 15 8 9
3 -19 -18 -120 -122 -250 -406 -504 -359 -321 -494 -476 -565 -653 -31 -76
-53 -178 -53 -246 0 -61 23 -93 68 -94 21 0 23 -2 9 -8 -16 -6 -16 -8 7 -30
52 -49 64 -50 596 -45 273 3 515 10 539 15 25 6 58 21 74 35 l29 24 -49 2
c-26 1 0 4 58 7 67 4 112 11 122 20 24 19 25 192 1 215 -14 14 -75 16 -529 16
-332 0 -516 4 -520 10 -3 6 -1 10 4 10 6 0 11 7 11 15 0 33 45 107 103 171 34
37 158 156 277 264 118 109 238 222 266 251 68 71 174 211 168 221 -3 4 6 23
19 40 111 148 153 311 124 475 -41 227 -192 377 -447 443 -66 17 -121 23 -250
25 -91 2 -189 0 -219 -6z m769 -982 c0 -2 -10 -12 -22 -23 l-23 -19 19 23 c18
21 26 27 26 19z m-70 -80 c0 -2 -10 -12 -22 -23 l-23 -19 19 23 c18 21 26 27
26 19z"/>
<path d="M630 3989 c-131 -19 -229 -79 -272 -167 l-23 -47 -9 -1155 c-8 -1128
-8 -1156 11 -1212 11 -31 16 -55 11 -52 -12 7 -10 1 11 -48 40 -94 106 -144
237 -180 77 -21 94 -22 689 -22 l610 -1 50 23 c61 28 90 53 74 63 -6 4 12 10
40 14 77 10 83 25 79 179 -2 104 -6 128 -21 143 -17 17 -62 18 -693 23 -585 4
-676 7 -684 20 -6 9 -9 174 -8 405 0 215 3 380 5 367 l4 -23 30 25 c63 53 102
58 519 65 345 5 389 8 422 24 37 19 79 57 62 57 -23 1 24 20 49 20 64 0 67 7
67 160 0 132 -1 140 -22 154 -20 14 -90 16 -565 16 -479 0 -543 2 -557 16 -14
13 -16 57 -15 342 1 180 4 315 6 301 l4 -26 28 26 c56 52 71 54 571 60 503 7
508 7 568 64 21 20 22 22 5 28 -12 5 -3 8 24 8 55 1 92 19 99 47 3 12 4 77 2
144 -3 107 -5 123 -22 136 -17 12 -124 14 -675 13 -361 -1 -681 -5 -711 -10z"/>
<path d="M6445 3340 c-135 -10 -383 -45 -463 -65 -66 -17 -97 -37 -122 -78
-19 -31 -20 -58 -20 -989 0 -945 0 -958 20 -978 11 -11 26 -20 33 -20 9 0 9
-2 -1 -9 -11 -6 -7 -13 14 -30 35 -28 65 -35 119 -29 46 6 106 42 83 51 -7 3
6 8 29 12 85 15 77 -65 83 827 3 520 8 793 15 792 6 -1 26 9 45 22 55 36 142
54 265 54 175 0 279 -35 367 -124 74 -76 136 -220 139 -331 l2 -40 7 40 c4 22
8 -231 9 -562 0 -365 5 -612 11 -627 5 -15 21 -31 35 -38 14 -6 21 -14 15 -18
-6 -4 0 -16 16 -31 36 -33 136 -35 177 -2 18 14 23 23 15 26 -7 2 6 7 29 11
28 5 50 17 63 33 20 25 20 40 20 662 0 350 -5 674 -10 721 -5 47 -12 105 -15
130 -3 25 -3 40 0 34 4 -7 17 -1 35 16 67 63 195 100 345 100 155 0 267 -42
351 -132 65 -70 121 -202 125 -298 l2 -35 6 40 c12 73 21 -254 21 -736 0 -489
1 -507 44 -527 11 -6 15 -11 8 -11 -8 -1 1 -13 18 -28 45 -37 116 -43 164 -13
20 12 34 25 31 30 -3 4 15 13 40 19 28 7 49 20 57 34 10 17 13 163 13 677 0
576 -2 668 -18 766 -25 157 -42 218 -87 311 -81 165 -210 266 -405 319 -90 24
-283 37 -376 24 -175 -23 -362 -85 -484 -159 -37 -23 -70 -41 -74 -41 -5 0
-16 9 -27 21 -59 65 -230 148 -348 169 -88 15 -286 20 -421 10z m612 -822 c-3
-7 -5 -2 -5 12 0 14 2 19 5 13 2 -7 2 -19 0 -25z"/>
<path d="M9996 3334 c-96 -19 -158 -40 -256 -89 -108 -54 -188 -116 -268 -208
-196 -224 -286 -516 -267 -866 5 -80 8 -168 8 -196 0 -34 2 -44 8 -30 l8 20 0
-20 c1 -11 4 -31 6 -45 5 -22 4 -22 -4 -5 -32 68 20 -154 60 -254 45 -113 103
-204 183 -288 82 -88 156 -140 270 -193 138 -65 217 -81 416 -87 256 -7 403
21 473 93 24 24 26 29 12 34 -10 4 5 12 43 24 33 10 68 26 78 37 17 19 17 25
0 130 -22 142 -32 169 -59 169 -12 0 -65 -12 -116 -25 -181 -48 -407 -52 -558
-11 -196 53 -346 214 -405 435 -26 97 -36 365 -19 479 13 81 48 212 57 212 3
0 3 -10 -1 -22 -3 -13 4 -6 15 15 38 68 135 154 225 198 129 62 196 72 417 64
176 -6 190 -5 234 15 45 19 46 21 28 35 -17 12 -14 13 25 3 40 -10 46 -9 61
10 21 26 73 229 68 268 -3 27 -9 30 -96 56 -51 15 -140 34 -196 43 -126 18
-355 18 -450 -1z"/>
<path d="M3008 2980 c-103 -55 -107 -212 -5 -280 18 -12 24 -19 13 -16 -17 6
-18 5 -4 -16 23 -35 74 -65 129 -77 33 -7 269 -11 682 -11 540 0 642 2 692 16
65 16 125 61 103 76 -9 5 -4 8 13 8 42 0 104 52 124 104 20 53 15 98 -18 147
-48 73 0 69 -892 69 -771 -1 -801 -2 -837 -20z"/>
<path d="M3020 2128 c-60 -31 -90 -77 -90 -140 0 -57 17 -96 59 -131 17 -14
26 -27 19 -29 -6 -2 5 -20 25 -40 62 -63 66 -63 787 -63 702 0 718 1 781 55
29 25 31 29 14 30 -11 1 0 7 24 15 74 23 131 94 131 163 0 49 -41 113 -90 139
l-43 23 -786 0 -787 0 -44 -22z"/>
</g>
</svg>
